<?xml version="1.0" encoding="UTF-8"?>
<svg version="1.1" xmlns="http://www.w3.org/2000/svg" width="303" height="62">
<path d="M0 0 C2.87525669 -0.05425013 5.74947646 -0.09379277 8.625 -0.125 C9.43324219 -0.14175781 10.24148437 -0.15851562 11.07421875 -0.17578125 C15.80093815 -0.21420986 19.55387702 0.17262906 24 2 C22.68 3.32 21.36 4.64 20 6 C20.495 6.99 20.495 6.99 21 8 C20.34 8.33 19.68 8.66 19 9 C19.99 10.32 20.98 11.64 22 13 C21.34 13.33 20.68 13.66 20 14 C21.32 15.65 22.64 17.3 24 19 C23.01 19.495 23.01 19.495 22 20 C24.475 20.99 24.475 20.99 27 22 C27.10957031 21.443125 27.21914062 20.88625 27.33203125 20.3125 C28.44398817 14.96064228 29.98551909 10.07999535 32 5 C32.33 4.01 32.66 3.02 33 2 C35.76452033 0.61773984 38.0461363 0.90474613 41.125 0.9375 C42.22070312 0.94652344 43.31640625 0.95554687 44.4453125 0.96484375 C45.70988281 0.98224609 45.70988281 0.98224609 47 1 C47.495 1.99 47.495 1.99 48 3 C47.505 3.45375 47.01 3.9075 46.5 4.375 C44.77390663 5.87635519 44.77390663 5.87635519 45 8 C43 9.625 43 9.625 41 11 C41.495 11.99 41.495 11.99 42 13 C40.68 13.99 39.36 14.98 38 16 C38.495 16.99 38.495 16.99 39 18 C38.01 18.495 38.01 18.495 37 19 C37.66 19.99 38.32 20.98 39 22 C38.01 22.495 38.01 22.495 37 23 C37.495 23.99 37.495 23.99 38 25 C36.68 25.99 35.36 26.98 34 28 C34.66 28.99 35.32 29.98 36 31 C35.01 31.495 35.01 31.495 34 32 C34.33 32.66 34.66 33.32 35 34 C34.01 34.495 34.01 34.495 33 35 C33.66 35.99 34.32 36.98 35 38 C31.20984471 40.93431377 27.85197498 41.77735951 23.1484375 41.59765625 C20.4251393 40.84008421 19.6815154 39.95977309 18.125 37.625 C16.08427239 33.68332064 14.83461921 29.58812616 13.6875 25.3125 C13.01821528 22.79403899 13.01821528 22.79403899 11.375 19.875 C9.60741376 16.17913785 9.35086427 13.07002548 9 9 C7.02 9.99 7.02 9.99 5 11 C5.33 11.66 5.66 12.32 6 13 C3.03 13.66 0.06 14.32 -3 15 C-2.67 15.66 -2.34 16.32 -2 17 C-3.65 17.66 -5.3 18.32 -7 19 C-6.34 19.99 -5.68 20.98 -5 22 C-5.66 22.33 -6.32 22.66 -7 23 C-6.34 23.99 -5.68 24.98 -5 26 C-5.66 26.33 -6.32 26.66 -7 27 C-6.34 27.99 -5.68 28.98 -5 30 C-5.66 30.33 -6.32 30.66 -7 31 C-6.34 31.99 -5.68 32.98 -5 34 C-5.99 34.495 -5.99 34.495 -7 35 C-6.34 35.99 -5.68 36.98 -5 38 C-5.99 38.495 -5.99 38.495 -7 39 C-6.67 39.66 -6.34 40.32 -6 41 C-9.3 40.67 -12.6 40.34 -16 40 C-18.43525534 33.64676481 -18.33708782 27.58783738 -18.31567383 20.89477539 C-18.31249251 18.80758427 -18.33608885 16.72178413 -18.36132812 14.63476562 C-18.36197266 13.31798828 -18.36261719 12.00121094 -18.36328125 10.64453125 C-18.36626221 9.44159424 -18.36924316 8.23865723 -18.37231445 6.99926758 C-18 4 -18 4 -16.65698242 2.1003418 C-13.47908153 -0.00998667 -9.95533283 0.81803184 -6.375 1.5 C-5.59125 1.665 -4.8075 1.83 -4 2 C-2.68 2 -1.36 2 0 2 C0 1.34 0 0.68 0 0 Z M4 2 C8 3 8 3 8 3 Z " fill="#E37A29" transform="translate(164,18)"/>
<path d="M0 0 C1.89949607 1.89445761 3.39620658 3.83016185 5 6 C4.34 6.33 3.68 6.66 3 7 C3.99 8.32 4.98 9.64 6 11 C5.34 11.33 4.68 11.66 4 12 C4.99 13.32 5.98 14.64 7 16 C6.01 16.495 6.01 16.495 5 17 C5.66 17.99 6.32 18.98 7 20 C6.01 20.495 6.01 20.495 5 21 C5.66 21.99 6.32 22.98 7 24 C6.01 24.495 6.01 24.495 5 25 C5.66 25.99 6.32 26.98 7 28 C6.01 28.495 6.01 28.495 5 29 C5.99 30.32 6.98 31.64 8 33 C5.69287028 35.83954427 4.64024405 36.92160277 0.9375 37.375 C-2 37 -2 37 -5 35 C-7.34013344 35.64238957 -9.67251306 36.31320058 -12 37 C-17.11269904 37.72321087 -21.14253291 37.16045359 -25.51953125 34.3359375 C-28.17278823 31.9417056 -29.05281749 29.3743377 -30 26 C-29.81049819 22.02046194 -28.34951327 19.18862515 -26 16 C-21.91762782 12.91002769 -18.16116627 12.47908212 -13.1875 12.3125 C-12.49462891 12.27833984 -11.80175781 12.24417969 -11.08789062 12.20898438 C-9.39247151 12.12713656 -7.69626542 12.06187635 -6 12 C-10.86798838 8.75467441 -16.48281763 9.59725082 -22.125 10.5 C-22.74375 10.665 -23.3625 10.83 -24 11 C-26.02074659 8.2797642 -27.07720465 6.81064886 -26.75 3.375 C-21.3826078 -3.90931799 -7.42973262 -3.80125855 0 0 Z M-18 22 C-18.99 23.485 -18.99 23.485 -20 25 C-16.7162062 27.48772258 -15.38801417 28.03180444 -11.1875 27.6875 C-10.135625 27.460625 -9.08375 27.23375 -8 27 C-7.67 26.01 -7.34 25.02 -7 24 C-6.34 24 -5.68 24 -5 24 C-5 23.34 -5 22.68 -5 22 C-7.12438339 21.91921359 -9.2496323 21.86090859 -11.375 21.8125 C-12.55835938 21.77769531 -13.74171875 21.74289063 -14.9609375 21.70703125 C-15.96382812 21.80371094 -16.96671875 21.90039062 -18 22 Z " fill="#2B444E" transform="translate(133,21)"/>
<path d="M0 0 C2.5546875 2.1640625 2.5546875 2.1640625 4.875 4.625 C6.04675781 5.85089844 6.04675781 5.85089844 7.2421875 7.1015625 C8.11230469 8.04128906 8.11230469 8.04128906 9 9 C8.34 9.66 7.68 10.32 7 11 C8.32 12.65 9.64 14.3 11 16 C10.01 16.495 10.01 16.495 9 17 C9.66 17.99 10.32 18.98 11 20 C10.01 20.495 10.01 20.495 9 21 C9.495 21.99 9.495 21.99 10 23 C9.01 23.495 9.01 23.495 8 24 C8.495 24.99 8.495 24.99 9 26 C7.68 26.99 6.36 27.98 5 29 C5.495 29.99 5.495 29.99 6 31 C3.22719294 34.08089673 0.93673644 35.68775452 -3 37 C-3 37.33 -3 37.66 -3 38 C-13.65884788 38.62090376 -13.65884788 38.62090376 -18.375 36.4375 C-27.82641066 27.6611901 -27.82641066 27.6611901 -29.09765625 20.6875 C-28.88524752 14.84201173 -26.25585524 9.32169876 -24 4 C-24.66 4 -25.32 4 -26 4 C-26 3.34 -26 2.68 -26 2 C-18.69546915 -3.37097857 -8.16479385 -3.44946717 0 0 Z M-18 14 C-17.67 14.66 -17.34 15.32 -17 16 C-17.66 16.66 -18.32 17.32 -19 18 C-17.68 19.32 -16.36 20.64 -15 22 C-15.66 22.66 -16.32 23.32 -17 24 C-14.48987037 26.51012963 -13.53194763 26.29721609 -10.0625 26.3125 C-9.18722656 26.32925781 -8.31195313 26.34601562 -7.41015625 26.36328125 C-4.54740253 25.93178028 -3.71061139 25.29340644 -2 23 C-0.95579534 19.56904184 -0.80640602 17.62226636 -1.875 14.1875 C-4.69163733 11.28802039 -6.82187009 11.09881251 -10.76953125 10.84765625 C-13.79316438 11.0541741 -15.66449437 12.11652772 -18 14 Z " fill="#E36A0C" transform="translate(237,21)"/>
<path d="M0 0 C1.6697245 1.55003009 3.20491699 3.15761784 4.72509766 4.85424805 C5.26134766 5.42208008 5.79759766 5.98991211 6.35009766 6.57495117 C7.65842839 7.96505257 8.94418627 9.37634096 10.22509766 10.79174805 C9.56509766 11.45174805 8.90509766 12.11174805 8.22509766 12.79174805 C8.88509766 13.78174805 9.54509766 14.77174805 10.22509766 15.79174805 C9.23509766 16.28674805 9.23509766 16.28674805 8.22509766 16.79174805 C8.88509766 17.78174805 9.54509766 18.77174805 10.22509766 19.79174805 C7.7038141 22.31303161 6.71270752 22.08527874 3.21728516 22.20581055 C2.23115234 22.24448242 1.24501953 22.2831543 0.22900391 22.32299805 C-1.31980469 22.3694043 -1.31980469 22.3694043 -2.89990234 22.41674805 C-3.94017578 22.45541992 -4.98044922 22.4940918 -6.05224609 22.53393555 C-8.62628546 22.62839571 -11.20031389 22.71396019 -13.77490234 22.79174805 C-13.11490234 23.45174805 -12.45490234 24.11174805 -11.77490234 24.79174805 C-9.85577053 24.75439967 -7.93776714 24.63865345 -6.02490234 24.47924805 C-0.39773688 24.33721623 -0.39773688 24.33721623 2.35009766 26.3425293 C3.81228036 28.09644557 5.0778819 29.819342 6.22509766 31.79174805 C3.01306822 35.22529676 1.10519944 36.66122029 -3.70068359 36.99487305 C-11.86448529 37.10786684 -16.86906386 36.57680046 -23.02490234 30.97924805 C-26.64217412 27.13471312 -27.61220572 23.58141092 -28.08740234 18.35424805 C-27.54040924 12.11852668 -25.04865385 7.30971392 -20.77490234 2.79174805 C-14.79038869 -1.79213475 -6.90426774 -4.7000304 0 0 Z M-16.77490234 11.79174805 C-16.77490234 12.12174805 -16.77490234 12.45174805 -16.77490234 12.79174805 C-12.15490234 12.79174805 -7.53490234 12.79174805 -2.77490234 12.79174805 C-3.10490234 11.80174805 -3.43490234 10.81174805 -3.77490234 9.79174805 C-8.58745801 7.38547021 -12.6452651 8.75525007 -16.77490234 11.79174805 Z " fill="#263F4A" transform="translate(89.77490234375,21.208251953125)"/>
<path d="M0 0 C1.19109375 -0.03867187 1.19109375 -0.03867187 2.40625 -0.078125 C3.0971875 0.03015625 3.788125 0.1384375 4.5 0.25 C5.16 1.24 5.82 2.23 6.5 3.25 C5.51 3.745 5.51 3.745 4.5 4.25 C6.16545339 6.41641665 6.16545339 6.41641665 8.5 8.25 C11.03714314 8.64491898 11.03714314 8.64491898 13.5 7.25 C14.76250799 5.59256715 14.76250799 5.59256715 15.9375 3.6875 C18.13232806 0.34004211 18.13232806 0.34004211 21.5625 -0.5 C25.33469272 0.46311304 26.41689254 2.04521929 28.5 5.25 C27.84 5.58 27.18 5.91 26.5 6.25 C26.995 7.24 26.995 7.24 27.5 8.25 C26.84 8.58 26.18 8.91 25.5 9.25 C25.995 10.24 25.995 10.24 26.5 11.25 C25.71625 11.53875 24.9325 11.8275 24.125 12.125 C21.40328368 13.09912254 21.40328368 13.09912254 19.5 15.25 C20.49 16.735 20.49 16.735 21.5 18.25 C20.84 18.58 20.18 18.91 19.5 19.25 C19.83 19.91 20.16 20.57 20.5 21.25 C19.84 21.58 19.18 21.91 18.5 22.25 C22.13 25.88 25.76 29.51 29.5 33.25 C28.84 33.91 28.18 34.57 27.5 35.25 C28.16 36.24 28.82 37.23 29.5 38.25 C27.18847303 40.56152697 26.42395896 40.69459498 23.25 40.9375 C20.8125 40.91796875 20.8125 40.91796875 18.5 40.25 C16.56982026 38.03115499 15.2980104 35.8460208 13.984375 33.21875 C13.49453125 32.5690625 13.0046875 31.919375 12.5 31.25 C9.8839713 30.87413188 9.8839713 30.87413188 7.5 31.25 C7.83 31.91 8.16 32.57 8.5 33.25 C7.00260417 34.45442708 5.50520833 35.65885417 4.0078125 36.86328125 C2.24707893 38.37270545 2.24707893 38.37270545 0.5 41.25 C-2.3899704 41.69461083 -3.88813841 41.63751234 -6.375 40.0625 C-7.5 38.25 -7.5 38.25 -7.5625 36.0625 C-6.49530252 33.2375655 -5.31408067 31.64266178 -3.4375 29.3125 C-1.21396048 26.50660489 -0.53347149 25.60479778 -0.1875 21.9375 C-0.290625 21.050625 -0.39375 20.16375 -0.5 19.25 C-0.17 18.26 0.16 17.27 0.5 16.25 C-1.20417137 13.31717124 -1.20417137 13.31717124 -3.5 10.25 C-5.8125 7.0625 -5.8125 7.0625 -7.5 4.25 C-7.17 3.26 -6.84 2.27 -6.5 1.25 C-4.15897141 0.07948571 -2.60647047 0.0507754 0 0 Z " fill="#DD6C13" transform="translate(254.5,18.75)"/>
<path d="M0 0 C2.75 2.625 2.75 2.625 4 5 C3.34 5.33 2.68 5.66 2 6 C2.495 6.99 2.495 6.99 3 8 C-0.54833781 10.93655543 -3.13416002 11.12102746 -7.5625 10.9375 C-11.96572369 10.71873027 -11.96572369 10.71873027 -15.6875 13 C-16.3371875 13.99 -16.3371875 13.99 -17 15 C-16.67 15.66 -16.34 16.32 -16 17 C-16.66 17.33 -17.32 17.66 -18 18 C-17.01 19.32 -16.02 20.64 -15 22 C-15.66 22.33 -16.32 22.66 -17 23 C-15.20733971 25.21255533 -15.20733971 25.21255533 -12.79296875 25.23046875 C-6.33847792 25.14607207 -6.33847792 25.14607207 0 24 C1.32 25.65 2.64 27.3 4 29 C3.01 29.495 3.01 29.495 2 30 C2.33 30.66 2.66 31.32 3 32 C2.01 32.804375 1.02 33.60875 0 34.4375 C-1.485 35.7059375 -1.485 35.7059375 -3 37 C-3 37.33 -3 37.66 -3 38 C-6.96 38 -10.92 38 -15 38 C-15 37.34 -15 36.68 -15 36 C-15.845625 36.020625 -16.69125 36.04125 -17.5625 36.0625 C-22.85995295 34.42510545 -25.11190493 30.56775036 -28 26 C-30.70775326 20.13320127 -29.51865328 15.9699889 -27.4375 10.0625 C-25.25758618 4.73205379 -22.13399406 1.59089831 -17 -1 C-11.2752823 -2.66657078 -5.63940237 -1.65911696 0 0 Z " fill="#29414B" transform="translate(37,21)"/>
<path d="M0 0 C3.80099658 1.4479987 5.21194352 3.75960987 7.625 7 C6.635 7.495 6.635 7.495 5.625 8 C6.615 9.485 6.615 9.485 7.625 11 C6.635 11.495 6.635 11.495 5.625 12 C6.615 13.485 6.615 13.485 7.625 15 C6.635 15.495 6.635 15.495 5.625 16 C6.285 16.99 6.945 17.98 7.625 19 C6.965 19.33 6.305 19.66 5.625 20 C6.285 20.99 6.945 21.98 7.625 23 C6.965 23.33 6.305 23.66 5.625 24 C6.285 24.99 6.945 25.98 7.625 27 C6.965 27.33 6.305 27.66 5.625 28 C6.285 28.99 6.945 29.98 7.625 31 C6.965 31.33 6.305 31.66 5.625 32 C6.285 32.99 6.945 33.98 7.625 35 C6.635 35.495 6.635 35.495 5.625 36 C6.285 36.99 6.945 37.98 7.625 39 C6.635 39.495 6.635 39.495 5.625 40 C6.285 40.99 6.945 41.98 7.625 43 C6.635 43.495 6.635 43.495 5.625 44 C6.285 44.99 6.945 45.98 7.625 47 C6.635 47.495 6.635 47.495 5.625 48 C6.285 48.99 6.945 49.98 7.625 51 C6.635 51.495 6.635 51.495 5.625 52 C6.285 52.99 6.945 53.98 7.625 55 C6.635 55.495 6.635 55.495 5.625 56 C5.955 56.66 6.285 57.32 6.625 58 C5.00036158 58.05395478 3.37521459 58.09277195 1.75 58.125 C0.84507813 58.14820313 -0.05984375 58.17140625 -0.9921875 58.1953125 C-3.375 58 -3.375 58 -5.375 56 C-5.63569641 53.72290039 -5.63569641 53.72290039 -5.6496582 50.84765625 C-5.65919022 49.77314209 -5.66872223 48.69862793 -5.67854309 47.59155273 C-5.67763168 46.42696533 -5.67672028 45.26237793 -5.67578125 44.0625 C-5.68006638 42.87148682 -5.6843515 41.68047363 -5.68876648 40.45336914 C-5.69451775 37.93148434 -5.69500421 35.40958295 -5.69067383 32.88769531 C-5.68751305 29.0159902 -5.71096716 25.14504808 -5.73632812 21.2734375 C-5.73860083 18.82812597 -5.73930475 16.38281237 -5.73828125 13.9375 C-5.747491 12.7729126 -5.75670074 11.6083252 -5.76618958 10.40844727 C-5.75996078 9.33393311 -5.75373199 8.25941895 -5.74731445 7.15234375 C-5.74794388 6.20351318 -5.7485733 5.25468262 -5.7492218 4.27709961 C-5.62572861 3.52565674 -5.50223541 2.77421387 -5.375 2 C-2.375 -0 -2.375 -0 0 0 Z " fill="#2A444F" transform="translate(50.375,0)"/>
<path d="M0 0 C0.78375 0.165 1.5675 0.33 2.375 0.5 C4.78393044 0.95884389 6.81128086 1.03471486 9.25 1 C10.4875 1 11.725 1 13 1 C14 2 14 2 14 5.9375 C13.979375 6.64777344 13.95875 7.35804687 13.9375 8.08984375 C13.86973661 10.087577 13.86973661 10.087577 15 12 C12.03 12.66 9.06 13.32 6 14 C6.33 14.66 6.66 15.32 7 16 C5.35 16.66 3.7 17.32 2 18 C2.66 18.99 3.32 19.98 4 21 C3.34 21.33 2.68 21.66 2 22 C2.66 22.99 3.32 23.98 4 25 C3.34 25.33 2.68 25.66 2 26 C2.66 26.99 3.32 27.98 4 29 C3.34 29.33 2.68 29.66 2 30 C2.66 30.99 3.32 31.98 4 33 C3.01 33.495 3.01 33.495 2 34 C2.66 34.99 3.32 35.98 4 37 C3.01 37.495 3.01 37.495 2 38 C2.33 38.66 2.66 39.32 3 40 C-0.3 39.67 -3.6 39.34 -7 39 C-9.43525534 32.64676481 -9.33708782 26.58783738 -9.31567383 19.89477539 C-9.31249251 17.80758427 -9.33608885 15.72178413 -9.36132812 13.63476562 C-9.36197266 12.31798828 -9.36261719 11.00121094 -9.36328125 9.64453125 C-9.36626221 8.44159424 -9.36924316 7.23865723 -9.37231445 5.99926758 C-9 3 -9 3 -7.65698242 1.1003418 C-5.09728363 -0.59946113 -3.00601455 -0.24048116 0 0 Z " fill="#2E4853" transform="translate(155,19)"/>
<path d="M0 0 C3.68774733 1.04218946 4.82125078 2.65288582 6.875 5.8125 C5.885 6.3075 5.885 6.3075 4.875 6.8125 C5.205 7.4725 5.535 8.1325 5.875 8.8125 C4.885 9.3075 4.885 9.3075 3.875 9.8125 C4.205 10.4725 4.535 11.1325 4.875 11.8125 C3.699375 12.245625 3.699375 12.245625 2.5 12.6875 C-0.22171632 13.66162254 -0.22171632 13.66162254 -2.125 15.8125 C-1.135 17.2975 -1.135 17.2975 -0.125 18.8125 C-0.785 19.1425 -1.445 19.4725 -2.125 19.8125 C-1.795 20.4725 -1.465 21.1325 -1.125 21.8125 C-1.785 22.1425 -2.445 22.4725 -3.125 22.8125 C-2.795 23.328125 -2.465 23.84375 -2.125 24.375 C-0.80489123 27.59276512 -0.99257895 30.3695528 -1.125 33.8125 C-2.445 33.8125 -3.765 33.8125 -5.125 33.8125 C-5.455 32.1625 -5.785 30.5125 -6.125 28.8125 C-6.785 28.8125 -7.445 28.8125 -8.125 28.8125 C-8.125 28.1525 -8.125 27.4925 -8.125 26.8125 C-9.053125 26.544375 -9.98125 26.27625 -10.9375 26 C-13.92995496 24.88516384 -15.2811378 24.33567985 -17.125 21.8125 C-17.6875 20.0625 -17.6875 20.0625 -18.125 17.8125 C-18.78652556 15.4777039 -19.45241333 13.14413378 -20.125 10.8125 C-19.125 9.25 -19.125 9.25 -17.125 7.8125 C-14.35885218 7.84523548 -11.86469453 8.31845672 -9.125 8.8125 C-8.57972656 7.94625 -8.57972656 7.94625 -8.0234375 7.0625 C-3.9341024 1.02286662 -3.9341024 1.02286662 0 0 Z " fill="#E5690C" transform="translate(276.125,18.1875)"/>
<path d="M0 0 C1.09570312 0.00902344 2.19140625 0.01804687 3.3203125 0.02734375 C4.16335937 0.03894531 5.00640625 0.05054687 5.875 0.0625 C6.205 0.7225 6.535 1.3825 6.875 2.0625 C6.38 2.51625 5.885 2.97 5.375 3.4375 C3.64890663 4.93885519 3.64890663 4.93885519 3.875 7.0625 C1.875 8.6875 1.875 8.6875 -0.125 10.0625 C0.205 10.7225 0.535 11.3825 0.875 12.0625 C-0.445 13.0525 -1.765 14.0425 -3.125 15.0625 C-2.795 15.7225 -2.465 16.3825 -2.125 17.0625 C-2.785 17.3925 -3.445 17.7225 -4.125 18.0625 C-3.465 19.0525 -2.805 20.0425 -2.125 21.0625 C-2.785 21.3925 -3.445 21.7225 -4.125 22.0625 C-3.795 22.7225 -3.465 23.3825 -3.125 24.0625 C-7.875 27.0625 -7.875 27.0625 -10.125 27.0625 C-10.455 28.3825 -10.785 29.7025 -11.125 31.0625 C-14.0275206 28.1599794 -14.05152698 25.98091272 -14.375 21.9375 C-13.96146731 15.52774323 -12.02814442 9.76257625 -9.125 4.0625 C-8.795 3.0725 -8.465 2.0825 -8.125 1.0625 C-5.36047967 -0.31976016 -3.0788637 -0.03275387 0 0 Z " fill="#E1761C" transform="translate(205.125,18.9375)"/>
<path d="M0 0 C2.45703125 2.06640625 2.45703125 2.06640625 4.8125 4.5625 C5.60269531 5.38878906 6.39289063 6.21507812 7.20703125 7.06640625 C7.79871094 7.70449219 8.39039063 8.34257812 9 9 C8.34 9.66 7.68 10.32 7 11 C6.75684344 13.66949409 6.75684344 13.66949409 6.875 16.625 C6.90207031 18.12933594 6.90207031 18.12933594 6.9296875 19.6640625 C6.95289063 20.43492188 6.97609375 21.20578125 7 22 C6.34 21.34 5.68 20.68 5 20 C4.566875 20.495 4.13375 20.99 3.6875 21.5 C2 23 2 23 -1 23 C-0.9071875 21.4221875 -0.9071875 21.4221875 -0.8125 19.8125 C-1.01050149 15.78646977 -1.57481047 14.14376421 -4 11 C-7.45662331 8.69558446 -8.94857881 8.74139865 -13 9 C-13.99 9.495 -13.99 9.495 -15 10 C-14.67 8.68 -14.34 7.36 -14 6 C-11.36 6.33 -8.72 6.66 -6 7 C-6 6.34 -6 5.68 -6 5 C-8.64 5 -11.28 5 -14 5 C-14 4.34 -14 3.68 -14 3 C-9.17963684 -0.34747442 -5.70135304 -1.70624434 0 0 Z " fill="#DB7D33" transform="translate(237,21)"/>
<path d="M0 0 C0.33 0.66 0.66 1.32 1 2 C-1.97411124 3.23921302 -4.85262818 4.30058404 -8 5 C-8 5.66 -8 6.32 -8 7 C-5.36 7 -2.72 7 0 7 C0 7.66 0 8.32 0 9 C-2.64 9 -5.28 9 -8 9 C-7.67 9.33 -7.34 9.66 -7 10 C-6.113125 9.9175 -5.22625 9.835 -4.3125 9.75 C0.26817349 10.09571121 1.93318399 11.64789878 5 15 C5.875 18.8125 5.875 18.8125 6 22 C4 19 4 19 3.15625 16.8671875 C2.15499214 14.80109675 2.15499214 14.80109675 -0.09375 14.3203125 C-1.28484375 14.22363281 -1.28484375 14.22363281 -2.5 14.125 C-3.69109375 14.00511719 -3.69109375 14.00511719 -4.90625 13.8828125 C-7.22353088 13.77920636 -7.22353088 13.77920636 -9 16 C-9.99 15.67 -10.98 15.34 -12 15 C-13.1875 11.4375 -13.1875 11.4375 -14 8 C-14.45375 8.825 -14.9075 9.65 -15.375 10.5 C-15.91125 11.325 -16.4475 12.15 -17 13 C-17.66 13 -18.32 13 -19 13 C-19.33 14.32 -19.66 15.64 -20 17 C-20.95465783 14.83032311 -21.14401212 13.43671207 -20.3984375 11.17578125 C-19.64129615 9.4315257 -18.82390802 7.71372869 -18 6 C-18.66 6 -19.32 6 -20 6 C-20 5.34 -20 4.68 -20 4 C-13.86771688 -0.50903171 -7.28005433 -0.14560109 0 0 Z " fill="#DB6E17" transform="translate(231,19)"/>
<path d="M0 0 C0.66 0 1.32 0 2 0 C2.33 1.98 2.66 3.96 3 6 C2.01 6.495 2.01 6.495 1 7 C2.32 8.65 3.64 10.3 5 12 C4.01 12.495 4.01 12.495 3 13 C4.65094122 14.65094122 6.54485937 14.28867693 8.8125 14.375 C13.21472428 14.37884078 13.21472428 14.37884078 16.625 11.5 C17.305625 10.2625 17.305625 10.2625 18 9 C18 9.99 18 10.98 18 12 C20.46800047 10.84826645 22.04783565 9.95216435 24 8 C24.33 8.33 24.66 8.66 25 9 C25.33 6.36 25.66 3.72 26 1 C27.32 2.32 28.64 3.64 30 5 C29.01 5.495 29.01 5.495 28 6 C28.99 7.485 28.99 7.485 30 9 C29.01 9.495 29.01 9.495 28 10 C28.33 10.66 28.66 11.32 29 12 C28.01 12.495 28.01 12.495 27 13 C27.33 13.66 27.66 14.32 28 15 C26.68 15.99 25.36 16.98 24 18 C24.33 18.66 24.66 19.32 25 20 C24.34 20.66 23.68 21.32 23 22 C22.01 21.67 21.02 21.34 20 21 C20 19.35 20 17.7 20 16 C17.97024323 15.92146666 17.97024323 15.92146666 15.9375 16.5 C10.6434181 17.40112032 5.9794941 17.80795677 0.9375 15.75 C-2.20528465 11.2892734 -1.5601954 6.28984509 -1 1 C-0.67 0.67 -0.34 0.34 0 0 Z " fill="#E87D2B" transform="translate(218,32)"/>
<path d="M0 0 C1.19109375 -0.03867187 1.19109375 -0.03867187 2.40625 -0.078125 C3.0971875 0.03015625 3.788125 0.1384375 4.5 0.25 C5.16 1.24 5.82 2.23 6.5 3.25 C5.51 3.745 5.51 3.745 4.5 4.25 C5.49 5.57 6.48 6.89 7.5 8.25 C5.85 8.58 4.2 8.91 2.5 9.25 C3.04994028 13.89741082 3.04994028 13.89741082 4.3125 18.375 C4.5 20.25 4.5 20.25 2.5625 23 C1.881875 23.7425 1.20125 24.485 0.5 25.25 C-0.625 19.625 -0.625 19.625 0.5 16.25 C-1.20417137 13.31717124 -1.20417137 13.31717124 -3.5 10.25 C-5.8125 7.0625 -5.8125 7.0625 -7.5 4.25 C-7.17 3.26 -6.84 2.27 -6.5 1.25 C-4.15897141 0.07948571 -2.60647047 0.0507754 0 0 Z " fill="#E0853C" transform="translate(254.5,18.75)"/>
<path d="M0 0 C7.57142857 6.28571429 7.57142857 6.28571429 10 10 C9.01 10.495 9.01 10.495 8 11 C8.99 12.485 8.99 12.485 10 14 C7.68847303 16.31152697 6.92395896 16.44459498 3.75 16.6875 C1.3125 16.6640625 1.3125 16.6640625 -1 16 C-2.93245573 13.81736027 -4.19899836 11.66308656 -5.515625 9.06640625 C-6.86394146 6.74259152 -6.86394146 6.74259152 -9.671875 6.21484375 C-10.82429688 6.10849609 -10.82429688 6.10849609 -12 6 C-11.67 5.01 -11.34 4.02 -11 3 C-7.65750371 3.59687434 -5.53563658 4.73603877 -3 7 C-3 7.66 -3 8.32 -3 9 C-1.68 9 -0.36 9 1 9 C0.67 6.03 0.34 3.06 0 0 Z " fill="#E46F10" transform="translate(274,43)"/>
<path d="M0 0 C3.5908444 0.4833829 3.94709234 0.79289784 6.125 3.4375 C7.176875 4.9225 7.176875 4.9225 8.25 6.4375 C7.26 6.9325 7.26 6.9325 6.25 7.4375 C7.24 8.9225 7.24 8.9225 8.25 10.4375 C2.625 15.3125 2.625 15.3125 -0.75 16.4375 C-1.08 15.7775 -1.41 15.1175 -1.75 14.4375 C-2.74 13.7775 -3.73 13.1175 -4.75 12.4375 C-4.60962479 10.62456911 -4.46255111 8.8121557 -4.3125 7 C-4.23128906 5.99066406 -4.15007812 4.98132813 -4.06640625 3.94140625 C-3.62585022 0.45503075 -3.50567325 0.55772074 0 0 Z " fill="#E2914D" transform="translate(286.75,5.5625)"/>
<path d="M0 0 C2 2 2 2 2.4375 4.4375 C2 7 2 7 0 8.75 C-6.82282756 11.59284482 -12.14438485 11.28520505 -19 9 C-19.33 8.34 -19.66 7.68 -20 7 C-17.69 7.33 -15.38 7.66 -13 8 C-13.33 7.01 -13.66 6.02 -14 5 C-13.67 4.34 -13.34 3.68 -13 3 C-10.3125 2.40234375 -10.3125 2.40234375 -7 1.9375 C-3.18188068 1.69235896 -3.18188068 1.69235896 0 0 Z " fill="#DE751E" transform="translate(237,46)"/>
<path d="M0 0 C2.87525669 -0.05425013 5.74947646 -0.09379277 8.625 -0.125 C9.43324219 -0.14175781 10.24148437 -0.15851562 11.07421875 -0.17578125 C15.80093815 -0.21420986 19.55387702 0.17262906 24 2 C22.68 3.32 21.36 4.64 20 6 C20.33 6.66 20.66 7.32 21 8 C20.01 7.67 19.02 7.34 18 7 C17.67 5.35 17.34 3.7 17 2 C14.69 2 12.38 2 10 2 C10.99 8.27 11.98 14.54 13 21 C12.34 20.67 11.68 20.34 11 20 C10.3671875 17.49609375 10.3671875 17.49609375 9.875 14.4375 C9.70742187 13.42558594 9.53984375 12.41367187 9.3671875 11.37109375 C9.24601563 10.58863281 9.12484375 9.80617188 9 9 C7.68 9.33 6.36 9.66 5 10 C5 7.69 5 5.38 5 3 C3.35 2.67 1.7 2.34 0 2 C0 1.34 0 0.68 0 0 Z " fill="#FCF5EE" transform="translate(164,18)"/>
<path d="M0 0 C2.75 -0.3125 2.75 -0.3125 6 0 C8.375 2.5 8.375 2.5 10 5 C9.01 5.495 9.01 5.495 8 6 C8.33 6.66 8.66 7.32 9 8 C8.01 8.495 8.01 8.495 7 9 C7.33 9.66 7.66 10.32 8 11 C7.21625 11.28875 6.4325 11.5775 5.625 11.875 C2.90328368 12.84912254 2.90328368 12.84912254 1 15 C1.99 16.485 1.99 16.485 3 18 C2.34 18.33 1.68 18.66 1 19 C1.33 19.66 1.66 20.32 2 21 C1.34 21.33 0.68 21.66 0 22 C0.33 22.66 0.66 23.32 1 24 C-0.32 24 -1.64 24 -3 24 C-3 20.37 -3 16.74 -3 13 C-1.68 13 -0.36 13 1 13 C1 11.68 1 10.36 1 9 C2.375 7.25 2.375 7.25 4 6 C4.66 6 5.32 6 6 6 C4.95125002 3.37812506 4.35068687 2.20628639 1.875 0.75 C1.25625 0.5025 0.6375 0.255 0 0 Z " fill="#E4B484" transform="translate(273,19)"/>
<path d="M0 0 C1 1 1 1 1.125 4.4375 C1 8 1 8 0 10 C-4.67461851 10.32613618 -7.16674383 9.70582788 -11 7 C-9.23576552 1.70729656 -5.56187691 -0.7724829 0 0 Z " fill="#0E2C35" transform="translate(168,20)"/>
<path d="M0 0 C2.3125 0.5625 2.3125 0.5625 4.3125 2.5625 C4.3125 3.5525 4.3125 4.5425 4.3125 5.5625 C3.6525 5.5625 2.9925 5.5625 2.3125 5.5625 C1.9825 6.5525 1.6525 7.5425 1.3125 8.5625 C0.6525 8.5625 -0.0075 8.5625 -0.6875 8.5625 C-1.0175 9.8825 -1.3475 11.2025 -1.6875 12.5625 C-2.3475 11.2425 -3.0075 9.9225 -3.6875 8.5625 C-4.079375 9.0575 -4.47125 9.5525 -4.875 10.0625 C-7.23841715 12.01843143 -8.70185003 11.80457973 -11.6875 11.5625 C-12.0175 10.2425 -12.3475 8.9225 -12.6875 7.5625 C-11.965625 7.706875 -11.24375 7.85125 -10.5 8 C-7.65604335 7.87881476 -7.65604335 7.87881476 -6.41796875 6.00390625 C-6.01191406 5.36324219 -5.60585938 4.72257812 -5.1875 4.0625 C-2.98611111 0.625 -2.98611111 0.625 0 0 Z " fill="#E3761F" transform="translate(274.6875,19.4375)"/>
<path d="M0 0 C2.40928735 0.96371494 3.76007009 1.65210163 5.25 3.8125 C6.11081611 6.32321365 6.14647297 8.36348649 6 11 C5.34 11 4.68 11 4 11 C4 11.66 4 12.32 4 13 C3.01 13.495 3.01 13.495 2 14 C2.33 15.32 2.66 16.64 3 18 C2.01 17.67 1.02 17.34 0 17 C-2.27696937 11.53527351 -2.22548472 6.76844323 -1 1 C-0.67 0.67 -0.34 0.34 0 0 Z " fill="#E06C14" transform="translate(181,33)"/>
<path d="M0 0 C2.4375 1.625 2.4375 1.625 4 3 C3.67 4.32 3.34 5.64 3 7 C1.68 7.33 0.36 7.66 -1 8 C-1 7.01 -1 6.02 -1 5 C-1.99 5.33 -2.98 5.66 -4 6 C-4 5.01 -4 4.02 -4 3 C-6.64 3 -9.28 3 -12 3 C-12 2.34 -12 1.68 -12 1 C-7.68055138 -2.66498671 -5.07930946 -2.03172378 0 0 Z " fill="#E9690C" transform="translate(235,23)"/>
<path d="M0 0 C1.32 1.32 2.64 2.64 4 4 C3.01 4.495 3.01 4.495 2 5 C2.99 6.485 2.99 6.485 4 8 C3.01 8.495 3.01 8.495 2 9 C2.99 10.485 2.99 10.485 4 12 C3.01 12.495 3.01 12.495 2 13 C2.99 14.485 2.99 14.485 4 16 C3.34 16.33 2.68 16.66 2 17 C2.33 17.66 2.66 18.32 3 19 C-0.3 19 -3.6 19 -7 19 C-7.33 18.34 -7.66 17.68 -8 17 C-6.02 17 -4.04 17 -2 17 C-2 16.01 -2 15.02 -2 14 C-1.34 14 -0.68 14 0 14 C0 9.38 0 4.76 0 0 Z " fill="#829297" transform="translate(54,39)"/>
<path d="M0 0 C0 3.63 0 7.26 0 11 C-0.66 10.34 -1.32 9.68 -2 9 C-2.433125 9.495 -2.86625 9.99 -3.3125 10.5 C-5 12 -5 12 -8 12 C-7.92910226 8.92561638 -7.74241032 5.99085301 -7 3 C-4.55477027 0.93095946 -3.20908881 0 0 0 Z " fill="#E46C0C" transform="translate(244,32)"/>
<path d="M0 0 C3 1 3 1 5.125 3.5 C8.98488987 6.85642597 11.97974364 7.17785127 17 7 C20.06392074 6.52720134 23.02046754 5.85230125 26 5 C26.33 5.66 26.66 6.32 27 7 C25.35 7.66 23.7 8.32 22 9 C22 9.33 22 9.66 22 10 C11.25217391 10.62608696 11.25217391 10.62608696 6.5 8.25 C5.675 7.5075 4.85 6.765 4 6 C3.21625 5.29875 2.4325 4.5975 1.625 3.875 C0 2 0 2 0 0 Z " fill="#F8EBD8" transform="translate(212,49)"/>
<path d="M0 0 C1.32 0.66 2.64 1.32 4 2 C3.34 2.66 2.68 3.32 2 4 C2.99 5.485 2.99 5.485 4 7 C1.47871644 9.52128356 0.48760987 9.29353069 -3.0078125 9.4140625 C-4.48701172 9.47207031 -4.48701172 9.47207031 -5.99609375 9.53125 C-7.54490234 9.57765625 -7.54490234 9.57765625 -9.125 9.625 C-10.16527344 9.66367187 -11.20554687 9.70234375 -12.27734375 9.7421875 C-14.85138311 9.83664766 -17.42541155 9.92221214 -20 10 C-19.67 10.66 -19.34 11.32 -19 12 C-19.99 11.67 -20.98 11.34 -22 11 C-22.33 10.01 -22.66 9.02 -23 8 C-21.91460937 7.93941406 -20.82921875 7.87882812 -19.7109375 7.81640625 C-18.26561514 7.73193936 -16.82030318 7.64729449 -15.375 7.5625 C-14.66214844 7.52318359 -13.94929688 7.48386719 -13.21484375 7.44335938 C-9.08196318 7.19690319 -5.07730976 6.76529947 -1 6 C-1.020625 5.195625 -1.04125 4.39125 -1.0625 3.5625 C-1 1 -1 1 0 0 Z " fill="#899BA0" transform="translate(96,34)"/>
<path d="M0 0 C2 0 2 0 3.5625 1.3125 C5 3 5 3 6 6 C5.0625 8.1875 5.0625 8.1875 4 10 C3.34 10 2.68 10 2 10 C1.67 11.32 1.34 12.64 1 14 C-1.86274764 11.13725236 -1.9615008 7.89611889 -2 4 C-1.0625 1.5 -1.0625 1.5 0 0 Z " fill="#E56A0C" transform="translate(193,36)"/>
<path d="M0 0 C2.475 0.99 2.475 0.99 5 2 C-1.846875 10.803125 -1.846875 10.803125 -5.5625 11.4375 C-8.36248966 10.93493775 -9.26107595 10.19653565 -11 8 C-10.67 7.01 -10.34 6.02 -10 5 C-10 5.66 -10 6.32 -10 7 C-8.02 6.67 -6.04 6.34 -4 6 C-4.33 5.34 -4.66 4.68 -5 4 C-4.01 3.67 -3.02 3.34 -2 3 C-1.34 3.33 -0.68 3.66 0 4 C0 2.68 0 1.36 0 0 Z " fill="#E4A566" transform="translate(258,49)"/>
<path d="M0 0 C1.32 1.32 2.64 2.64 4 4 C3.01 4.495 3.01 4.495 2 5 C2.99 6.485 2.99 6.485 4 8 C3.01 8.495 3.01 8.495 2 9 C2.33 9.66 2.66 10.32 3 11 C2.01 11.495 2.01 11.495 1 12 C1.33 12.66 1.66 13.32 2 14 C0.68 14.99 -0.64 15.98 -2 17 C-1.67 17.66 -1.34 18.32 -1 19 C-1.66 19.66 -2.32 20.32 -3 21 C-3.99 20.67 -4.98 20.34 -6 20 C-5.67 18.02 -5.34 16.04 -5 14 C-4.34 14 -3.68 14 -3 14 C-3 13.34 -3 12.68 -3 12 C-2.34 12 -1.68 12 -1 12 C-0.67 8.04 -0.34 4.08 0 0 Z " fill="#EBB379" transform="translate(244,33)"/>
<path d="M0 0 C4.24497866 0.86632218 6.1509076 2.44256179 9.0625 5.625 C9.9375 9.4375 9.9375 9.4375 10.0625 12.625 C8.0625 9.625 8.0625 9.625 7.21875 7.4921875 C6.21749214 5.42609675 6.21749214 5.42609675 3.96875 4.9453125 C3.1746875 4.88085938 2.380625 4.81640625 1.5625 4.75 C0.7684375 4.67007813 -0.025625 4.59015625 -0.84375 4.5078125 C-3.16103088 4.40420636 -3.16103088 4.40420636 -4.9375 6.625 C-5.9275 6.295 -6.9175 5.965 -7.9375 5.625 C-3.85308442 0.81980519 -3.85308442 0.81980519 0 0 Z " fill="#F9EBDA" transform="translate(226.9375,28.375)"/>
<path d="M0 0 C1.65 0 3.3 0 5 0 C5.99 5.94 6.98 11.88 8 18 C7.34 17.67 6.68 17.34 6 17 C5.3671875 14.49609375 5.3671875 14.49609375 4.875 11.4375 C4.70742187 10.42558594 4.53984375 9.41367187 4.3671875 8.37109375 C4.24601563 7.58863281 4.12484375 6.80617188 4 6 C2.68 6.33 1.36 6.66 0 7 C0 4.69 0 2.38 0 0 Z " fill="#E7B386" transform="translate(169,21)"/>
<path d="M0 0 C0.99 0.33 1.98 0.66 3 1 C2.34 1 1.68 1 1 1 C0.67 1.99 0.34 2.98 0 4 C-6.75 3.125 -6.75 3.125 -9 2 C-12.16666667 3.83333333 -12.16666667 3.83333333 -14 7 C-13.74438677 4.6568787 -13.40729228 2.32156597 -13 0 C-8.93318467 -2.03340766 -4.27708711 -1.04037254 0 0 Z " fill="#758084" transform="translate(160,20)"/>
<path d="M0 0 C0.66 1.32 1.32 2.64 2 4 C0.68 4.33 -0.64 4.66 -2 5 C-2 5.99 -2 6.98 -2 8 C-3.98 8 -5.96 8 -8 8 C-8.12375 7.360625 -8.2475 6.72125 -8.375 6.0625 C-8.684375 5.0415625 -8.684375 5.0415625 -9 4 C-9.66 3.67 -10.32 3.34 -11 3 C-10.28972656 2.86722656 -9.57945312 2.73445313 -8.84765625 2.59765625 C-7.92855469 2.42105469 -7.00945312 2.24445312 -6.0625 2.0625 C-4.68771484 1.80146484 -4.68771484 1.80146484 -3.28515625 1.53515625 C-1.04710156 1.22285012 -1.04710156 1.22285012 0 0 Z " fill="#EB6908" transform="translate(237,46)"/>
<path d="M0 0 C1.32 0.66 2.64 1.32 4 2 C2 5 2 5 -1 6 C-2.56118428 6.06740865 -4.1250252 6.08514456 -5.6875 6.0625 C-6.89986328 6.04896484 -6.89986328 6.04896484 -8.13671875 6.03515625 C-9.05904297 6.01775391 -9.05904297 6.01775391 -10 6 C-10.66 4.68 -11.32 3.36 -12 2 C-8.04 2.33 -4.08 2.66 0 3 C0 2.01 0 1.02 0 0 Z " fill="#FDF9EF" transform="translate(195,53)"/>
<path d="M0 0 C2.31 0 4.62 0 7 0 C7.66 1.98 8.32 3.96 9 6 C8.01 6.33 7.02 6.66 6 7 C6 6.01 6 5.02 6 4 C5.34 4 4.68 4 4 4 C4 4.66 4 5.32 4 6 C2.68 5.67 1.36 5.34 0 5 C0 3.35 0 1.7 0 0 Z " fill="#DC6F1B" transform="translate(174,20)"/>
<path d="M0 0 C4 1 4 1 5.25 3.0625 C5.4975 3.701875 5.745 4.34125 6 5 C5.01 5.495 5.01 5.495 4 6 C4.33 6.66 4.66 7.32 5 8 C4.01 8.495 4.01 8.495 3 9 C3.33 9.66 3.66 10.32 4 11 C2.68 11 1.36 11 0 11 C0 7.37 0 3.74 0 0 Z " fill="#D87928" transform="translate(270,32)"/>
<path d="M0 0 C2.48020497 0.11341491 4.95844969 0.24014686 7.4375 0.375 C8.14455078 0.4059375 8.85160156 0.436875 9.58007812 0.46875 C11.39239188 0.57280629 13.19817988 0.77919892 15 1 C15.33 1.66 15.66 2.32 16 3 C12.55640202 3.6887196 9.31377726 4.05177489 5.8125 4 C2.0757629 3.79906361 2.0757629 3.79906361 -1 5 C-0.67 3.35 -0.34 1.7 0 0 Z " fill="#919EA2" transform="translate(22,28)"/>
<path d="M0 0 C0.66 0.99 1.32 1.98 2 3 C0.02 3.99 0.02 3.99 -2 5 C-1.42655063 7.86724686 -1.1385485 8.8614515 1 11 C0 12 0 12 -3.0625 12.0625 C-4.031875 12.041875 -5.00125 12.02125 -6 12 C-5.54300722 6.97307937 -3.00758252 3.85103739 0 0 Z " fill="#DE873A" transform="translate(254,44)"/>
<path d="M0 0 C1.125 3.75 1.125 3.75 0 6 C5.28 6.33 10.56 6.66 16 7 C16 7.33 16 7.66 16 8 C11.05 8.66 6.1 9.32 1 10 C0.01 8.35 -0.98 6.7 -2 5 C-1.1875 2.1875 -1.1875 2.1875 0 0 Z " fill="#95A0A6" transform="translate(108,22)"/>
<path d="M0 0 C0 0.33 0 0.66 0 1 C-0.71285156 1.08636719 -1.42570312 1.17273438 -2.16015625 1.26171875 C-8.81058329 2.2373534 -12.85652386 3.65662015 -18 8 C-18 7.34 -18 6.68 -18 6 C-18.66 6 -19.32 6 -20 6 C-20 5.34 -20 4.68 -20 4 C-13.86771688 -0.50903171 -7.28005433 -0.14560109 0 0 Z " fill="#FCF9F5" transform="translate(231,19)"/>
<path d="M0 0 C0.99 0.495 0.99 0.495 2 1 C3.70702735 1.06996014 5.41668003 1.08440154 7.125 1.0625 C8.03507812 1.05347656 8.94515625 1.04445312 9.8828125 1.03515625 C10.93082031 1.01775391 10.93082031 1.01775391 12 1 C12.33 1.66 12.66 2.32 13 3 C11 5 11 5 8.90625 5.265625 C8.1121875 5.26046875 7.318125 5.2553125 6.5 5.25 C5.7059375 5.25515625 4.911875 5.2603125 4.09375 5.265625 C2 5 2 5 0 3 C0 2.01 0 1.02 0 0 Z " fill="#F8EBDA" transform="translate(271,54)"/>
<path d="M0 0 C7.57142857 6.28571429 7.57142857 6.28571429 10 10 C8.88625 9.649375 7.7725 9.29875 6.625 8.9375 C3.19735524 7.62760669 3.19735524 7.62760669 1 9 C0.67 6.03 0.34 3.06 0 0 Z " fill="#E0A46A" transform="translate(274,43)"/>
<path d="M0 0 C0.66 0.66 1.32 1.32 2 2 C0 4 0 4 -2.8203125 4.1953125 C-3.91085938 4.17210937 -5.00140625 4.14890625 -6.125 4.125 C-7.22070312 4.10695313 -8.31640625 4.08890625 -9.4453125 4.0703125 C-10.28835937 4.04710937 -11.13140625 4.02390625 -12 4 C-12 3.34 -12 2.68 -12 2 C-12.99 1.67 -13.98 1.34 -15 1 C-14.16855469 1.01160156 -13.33710938 1.02320313 -12.48046875 1.03515625 C-10.85044922 1.04869141 -10.85044922 1.04869141 -9.1875 1.0625 C-7.56908203 1.07990234 -7.56908203 1.07990234 -5.91796875 1.09765625 C-2.93487831 1.13624766 -2.93487831 1.13624766 0 0 Z " fill="#F2F7F7" transform="translate(34,55)"/>
<path d="M0 0 C0.66 0 1.32 0 2 0 C2.33 1.98 2.66 3.96 3 6 C2.01 6.495 2.01 6.495 1 7 C2.32 8.65 3.64 10.3 5 12 C2.5625 11.625 2.5625 11.625 0 11 C-1.62651522 7.74696956 -1.11453156 4.60774398 -1 1 C-0.67 0.67 -0.34 0.34 0 0 Z " fill="#DEA574" transform="translate(218,32)"/>
<path d="M0 0 C3.96 0 7.92 0 12 0 C12.33 0.66 12.66 1.32 13 2 C12.505 2.45375 12.01 2.9075 11.5 3.375 C9.77390663 4.87635519 9.77390663 4.87635519 10 7 C9.01 7 8.02 7 7 7 C6.67 5.35 6.34 3.7 6 2 C3.03 1.505 3.03 1.505 0 1 C0 0.67 0 0.34 0 0 Z " fill="#FDF8F0" transform="translate(199,19)"/>
<path d="M0 0 C1.65 1.65 3.3 3.3 5 5 C4.01 5.495 4.01 5.495 3 6 C3.99 7.485 3.99 7.485 5 9 C3.71034824 10.37562854 2.37310707 11.70766393 1 13 C0.34 13 -0.32 13 -1 13 C-1.33 12.01 -1.66 11.02 -2 10 C-1.34 10 -0.68 10 0 10 C0 6.7 0 3.4 0 0 Z " fill="#DEAE7B" transform="translate(290,7)"/>
<path d="M0 0 C0.639375 0.804375 1.27875 1.60875 1.9375 2.4375 C5.90127449 5.75412763 8.97294083 5.87952582 14 6 C14 6.66 14 7.32 14 8 C9.37368315 8.36284838 6.04949666 8.59971238 1.9375 6.25 C0 4 0 4 0 0 Z " fill="#E18A42" transform="translate(217,41)"/>
<path d="M0 0 C0.66 0 1.32 0 2 0 C6.02755267 5.06320908 6.02755267 5.06320908 5.9375 8.125 C4.84851824 10.30296352 3.54379989 12.12059143 2 14 C0.875 8.375 0.875 8.375 2 5 C1.12085312 2.3430809 1.12085312 2.3430809 0 0 Z " fill="#F8EEE2" transform="translate(253,30)"/>
<path d="M0 0 C2.10388569 -0.05402274 4.20816714 -0.09280256 6.3125 -0.125 C8.07013672 -0.15980469 8.07013672 -0.15980469 9.86328125 -0.1953125 C13 0 13 0 16 2 C10.31302429 2.91397824 5.68697571 2.91397824 0 2 C0 1.34 0 0.68 0 0 Z " fill="#FEFCFB" transform="translate(164,18)"/>
<path d="M0 0 C1.32 1.32 2.64 2.64 4 4 C3.01 4.495 3.01 4.495 2 5 C2.99 6.485 2.99 6.485 4 8 C3.01 8.495 3.01 8.495 2 9 C2.99 10.485 2.99 10.485 4 12 C2.68 12 1.36 12 0 12 C0 8.04 0 4.08 0 0 Z " fill="#5D7075" transform="translate(54,39)"/>
<path d="M0 0 C2 2 2 2 2.125 4.625 C2.08375 5.40875 2.0425 6.1925 2 7 C0.02 7 -1.96 7 -4 7 C-4 5.68 -4 4.36 -4 3 C-2 1.25 -2 1.25 0 0 Z " fill="#E56B09" transform="translate(256,46)"/>
<path d="M0 0 C2.09749995 2.35968744 2.96905704 3.54616994 3.1875 6.75 C3.125625 7.4925 3.06375 8.235 3 9 C1.68 9 0.36 9 -1 9 C-2.0326802 6.21176345 -2.04509293 5.1322726 -1.0625 2.25 C-0.711875 1.5075 -0.36125 0.765 0 0 Z " fill="#E8680A" transform="translate(181,33)"/>
<path d="M0 0 C0.66 0.66 1.32 1.32 2 2 C1.6442194 5.37991574 0.64284201 8.04288438 -1 11 C-1.33 10.67 -1.66 10.34 -2 10 C-1.9140625 7.96875 -1.9140625 7.96875 -1.625 5.5 C-1.53476563 4.6853125 -1.44453125 3.870625 -1.3515625 3.03125 C-1 1 -1 1 0 0 Z M-4 10 C-2 11 -2 11 -2 11 Z " fill="#E96306" transform="translate(217,26)"/>
<path d="M0 0 C2.21399303 3.79541663 3.00980198 7.75629421 4 12 C3.01 12 2.02 12 1 12 C0.63597631 10.56496445 0.28413409 9.12683494 -0.0625 7.6875 C-0.25972656 6.88699219 -0.45695313 6.08648437 -0.66015625 5.26171875 C-1 3 -1 3 0 0 Z " fill="#E0AD85" transform="translate(209,36)"/>
<path d="M0 0 C0.99 0.33 1.98 0.66 3 1 C1.625 3.5 1.625 3.5 0 6 C-0.66 6 -1.32 6 -2 6 C-2.33 7.32 -2.66 8.64 -3 10 C-3.75 8.375 -3.75 8.375 -4 6 C-2.0625 2.75 -2.0625 2.75 0 0 Z " fill="#E58F4D" transform="translate(214,26)"/>
<path d="M0 0 C0.99 0.33 1.98 0.66 3 1 C3.73046875 3.06640625 3.73046875 3.06640625 4.1875 5.5625 C4.34605469 6.38878906 4.50460938 7.21507812 4.66796875 8.06640625 C4.77753906 8.70449219 4.88710937 9.34257812 5 10 C-0.73529412 4.70588235 -0.73529412 4.70588235 -1 1 C-0.67 0.67 -0.34 0.34 0 0 Z " fill="#E4B995" transform="translate(248,20)"/>
<path d="M0 0 C1.32 1.32 2.64 2.64 4 4 C3.01 4.495 3.01 4.495 2 5 C2.99 6.485 2.99 6.485 4 8 C3.01 8.495 3.01 8.495 2 9 C2.33 9.66 2.66 10.32 3 11 C2.01 10.67 1.02 10.34 0 10 C0 6.7 0 3.4 0 0 Z " fill="#E2B187" transform="translate(244,33)"/>
<path d="M0 0 C0.66 0.99 1.32 1.98 2 3 C0.8125 4.5 0.8125 4.5 -1 6 C-3.6875 6.1875 -3.6875 6.1875 -6 6 C-6.33 4.68 -6.66 3.36 -7 2 C-6.21625 2.04125 -5.4325 2.0825 -4.625 2.125 C-1.83883881 2.28728734 -1.83883881 2.28728734 0 0 Z " fill="#DE8842" transform="translate(269,25)"/>
<path d="M0 0 C2.75 -0.3125 2.75 -0.3125 6 0 C8.375 2.5 8.375 2.5 10 5 C9.01 5.495 9.01 5.495 8 6 C8.33 6.66 8.66 7.32 9 8 C8.01 8 7.02 8 6 8 C5.7525 7.05125 5.505 6.1025 5.25 5.125 C4.3142923 1.91306809 4.3142923 1.91306809 1.875 0.625 C1.25625 0.41875 0.6375 0.2125 0 0 Z " fill="#E4C5A0" transform="translate(273,19)"/>
<path d="M0 0 C3.35595828 0.59927826 5.37801226 1.84622436 8 4 C7.67 5.32 7.34 6.64 7 8 C6.4121875 7.0409375 6.4121875 7.0409375 5.8125 6.0625 C3.61527704 3.56221181 2.24208567 3.35049575 -1 3 C-0.67 2.01 -0.34 1.02 0 0 Z " fill="#F0D5B7" transform="translate(263,46)"/>
<path d="M0 0 C0.66 0.66 1.32 1.32 2 2 C4.65537372 2.56520003 7.29144713 2.73788198 10 3 C9.01 4.485 9.01 4.485 8 6 C5.06247802 6.45192646 3.62024561 6.44914337 1.1875 4.6875 C0 3 0 3 0 0 Z " fill="#FCF7F1" transform="translate(247,54)"/>
<path d="M0 0 C4.75 0.875 4.75 0.875 7 2 C7 2.66 7 3.32 7 4 C7.66 4 8.32 4 9 4 C9 4.66 9 5.32 9 6 C8.401875 5.690625 7.80375 5.38125 7.1875 5.0625 C4.91043228 3.89790296 4.91043228 3.89790296 2 3 C1.67 3.66 1.34 4.32 1 5 C0.67 3.35 0.34 1.7 0 0 Z " fill="#D67320" transform="translate(261,43)"/>
<path d="M0 0 C0.33 0 0.66 0 1 0 C1.33 2.31 1.66 4.62 2 7 C1.01 7.495 1.01 7.495 0 8 C0.33 8.66 0.66 9.32 1 10 C-0.98 10.99 -0.98 10.99 -3 12 C-2.40075776 7.80530429 -1.42500059 3.99000166 0 0 Z " fill="#DBA46B" transform="translate(205,21)"/>
<path d="M0 0 C2 2 2 2 2 5 C0.54257537 5.08096803 -0.91612807 5.13917774 -2.375 5.1875 C-3.18710937 5.22230469 -3.99921875 5.25710937 -4.8359375 5.29296875 C-5.55007813 5.19628906 -6.26421875 5.09960938 -7 5 C-7.66 4.01 -8.32 3.02 -9 2 C-5.97580475 2.58803797 -2.98241547 3.22678118 0 4 C0 2.68 0 1.36 0 0 Z " fill="#CD772B" transform="translate(280,51)"/>
<path d="M0 0 C0.66 0.33 1.32 0.66 2 1 C1.55090939 2.48199902 1.09043436 3.96055236 0.625 5.4375 C0.36976563 6.26121094 0.11453125 7.08492187 -0.1484375 7.93359375 C-1 10 -1 10 -3 11 C-2.32829194 7.1936543 -1.27253436 3.64793184 0 0 Z " fill="#E5AD7D" transform="translate(197,20)"/>
<path d="M0 0 C0.99 0 1.98 0 3 0 C3.33 1.98 3.66 3.96 4 6 C2.68 6.33 1.36 6.66 0 7 C0 4.69 0 2.38 0 0 Z " fill="#E4E8E4" transform="translate(169,21)"/>
<path d="M0 0 C1.32 0.66 2.64 1.32 4 2 C0.57905758 4.28062828 -0.68187222 4.21925007 -4.6875 4.125 C-6.17830078 4.09792969 -6.17830078 4.09792969 -7.69921875 4.0703125 C-8.45847656 4.04710937 -9.21773437 4.02390625 -10 4 C-10 3.67 -10 3.34 -10 3 C-6.7 3 -3.4 3 0 3 C0 2.01 0 1.02 0 0 Z " fill="#F1D9BD" transform="translate(195,53)"/>
<path d="M0 0 C2.60608273 2.5162178 4.89381685 5.05134359 7 8 C5.35 8 3.7 8 2 8 C0.23537317 4.91190305 0 3.76687864 0 0 Z " fill="#E3B086" transform="translate(180,47)"/>
<path d="M0 0 C1.32 0.33 2.64 0.66 4 1 C4 2.65 4 4.3 4 6 C2.68 5.67 1.36 5.34 0 5 C0 3.35 0 1.7 0 0 Z " fill="#EC6C07" transform="translate(220,48)"/>
<path d="M0 0 C1.32 0.66 2.64 1.32 4 2 C3.34 2.66 2.68 3.32 2 4 C2.33 4.66 2.66 5.32 3 6 C1.02 6.99 1.02 6.99 -1 8 C-0.67 5.36 -0.34 2.72 0 0 Z " fill="#E3B487" transform="translate(199,37)"/>
<path d="M0 0 C1.32 0 2.64 0 4 0 C4 1.65 4 3.3 4 5 C3.01 5.33 2.02 5.66 1 6 C0.67 4.02 0.34 2.04 0 0 Z " fill="#E1690F" transform="translate(218,26)"/>
<path d="M0 0 C1.32 0.66 2.64 1.32 4 2 C4 2.66 4 3.32 4 4 C2.68 4.33 1.36 4.66 0 5 C0 4.34 0 3.68 0 3 C-0.99 2.67 -1.98 2.34 -3 2 C-2.01 1.34 -1.02 0.68 0 0 Z " fill="#DA6916" transform="translate(215,47)"/>
<path d="M0 0 C1.32 0.66 2.64 1.32 4 2 C3.34 2.66 2.68 3.32 2 4 C2.33 4.66 2.66 5.32 3 6 C1.68 5.67 0.36 5.34 -1 5 C-0.67 3.35 -0.34 1.7 0 0 Z " fill="#F9F1E2" transform="translate(272,34)"/>
<path d="M0 0 C0.66 0.33 1.32 0.66 2 1 C2.33 1.99 2.66 2.98 3 4 C2.34 4.66 1.68 5.32 1 6 C0.01 6 -0.98 6 -2 6 C-2 4.68 -2 3.36 -2 2 C-1.34 2 -0.68 2 0 2 C0 1.34 0 0.68 0 0 Z " fill="#DF9F61" transform="translate(243,43)"/>
<path d="M0 0 C-0.66 0 -1.32 0 -2 0 C-2.33 0.99 -2.66 1.98 -3 3 C-4.32 3 -5.64 3 -7 3 C-7 2.01 -7 1.02 -7 0 C-3.98968256 -0.93423645 -3.13349732 -1.04449911 0 0 Z " fill="#93A1A6" transform="translate(163,21)"/>
<path d="M0 0 C2.5 0.1875 2.5 0.1875 5 1 C5.66 1.99 6.32 2.98 7 4 C2.545 3.01 2.545 3.01 -2 2 C-1.34 1.34 -0.68 0.68 0 0 Z " fill="#E4B58A" transform="translate(232,20)"/>
<path d="M0 0 C3 1 3 1 3 1 Z " fill="#FFFFFE" transform="translate(228,35)"/>
</svg>
