<?xml version="1.0" encoding="utf-8"?>
<svg xmlns="http://www.w3.org/2000/svg" viewBox="0 0 24 24" width="48" height="48">
  <path d="M12,2C6.477,2,2,6.477,2,12c0,5.523,4.477,10,10,10s10-4.477,10-10C22,6.477,17.523,2,12,2z M12,4.75 c1.795,0,3.25,1.455,3.25,3.25s-1.455,3.25-3.25,3.25S8.75,9.795,8.75,8S10.205,4.75,12,4.75z M12,20 c-2.438,0-4.621-1.091-6.088-2.812c-0.381-0.447-0.296-1.118,0.173-1.471C7.602,14.576,10.366,14,12,14s4.398,0.576,5.916,1.717 c0.469,0.353,0.554,1.025,0.173,1.471C16.621,18.909,14.438,20,12,20z" fill="#FFFFFF" />
</svg>