<?xml version="1.0" encoding="utf-8"?>
<svg xmlns="http://www.w3.org/2000/svg" viewBox="0 0 24 24" width="48" height="48">
  <path d="M20,4H4C2.895,4,2,4.895,2,6v12c0,1.105,0.895,2,2,2h16c1.105,0,2-0.895,2-2V6C22,4.895,21.105,4,20,4z M7,16H5 c-0.552,0-1-0.448-1-1v0c0-0.552,0.448-1,1-1h2c0.552,0,1,0.448,1,1v0C8,15.552,7.552,16,7,16z M7,10H5c-0.552,0-1-0.448-1-1v0 c0-0.552,0.448-1,1-1h2c0.552,0,1,0.448,1,1v0C8,9.552,7.552,10,7,10z M19,17h-8c-0.552,0-1-0.448-1-1v-2c0-0.552,0.448-1,1-1h8 c0.552,0,1,0.448,1,1v2C20,16.552,19.552,17,19,17z M19,11h-8c-0.552,0-1-0.448-1-1V8c0-0.552,0.448-1,1-1h8c0.552,0,1,0.448,1,1v2 C20,10.552,19.552,11,19,11z" fill="#FF9900" />
</svg>