<?xml version="1.0" encoding="UTF-8"?>
<svg version="1.1" xmlns="http://www.w3.org/2000/svg" width="4000" height="4000">
<path d="M0 0 C7.3909277 7.11850569 12.15042802 15.53147395 15.4765625 25.15625 C15.85323563 26.23670593 15.85323563 26.23670593 16.23751831 27.33898926 C19.75553073 37.6399828 22.71536601 48.11905443 25.75048828 58.56970215 C27.71633265 65.33754213 29.70504499 72.09868407 31.6953125 78.859375 C32.00470638 79.91067974 32.00470638 79.91067974 32.32035065 80.98322296 C50.06835321 141.24676516 69.13761791 201.14473035 88.75785828 260.8203125 C90.9845918 267.59600516 93.19751844 274.3760362 95.3984375 281.16015625 C95.68967499 282.05767105 95.98091248 282.95518585 96.28097534 283.87989807 C96.86061971 285.66637405 97.44024031 287.45285773 98.01983643 289.23934937 C101.95090985 301.35508544 105.91238929 313.45938279 109.953125 325.5390625 C110.30273285 326.58459793 110.6523407 327.63013336 111.01254272 328.70735168 C112.71318996 333.79022918 114.41821678 338.87158583 116.12939453 343.95092773 C116.73995882 345.77065381 117.35047572 347.59039578 117.9609375 349.41015625 C118.24455139 350.24749298 118.52816528 351.08482971 118.82037354 351.94754028 C120.75 357.71126385 120.75 357.71126385 120.75 359.9375 C122.07 359.9375 123.39 359.9375 124.75 359.9375 C124.9665625 358.64457031 125.183125 357.35164063 125.40625 356.01953125 C126.83874005 348.89314194 129.17166188 342.05803029 131.42456055 335.16021729 C156.83351526 257.1203066 178.08285679 177.51071894 211.3787384 50.72312927 C212.10462042 47.91726797 212.83670379 45.11313739 213.57377625 42.31019592 C215.22647222 36.00215113 216.82878776 29.69416755 218.25046635 23.32948589 C218.89530401 20.45456913 219.56727166 17.58628841 220.24115944 14.71806145 C220.54958457 13.36954191 220.84437918 12.0178177 221.12412071 10.66305733 C223.25458828 0.36005593 223.25458828 0.36005593 226.91825867 -3.12512207 C232.52722522 -6.65045161 238.30351832 -7.90114542 244.75 -9.0625 C246.37780217 -9.46825057 248.00181217 -9.88960407 249.62109375 -10.328125 C269.21741904 -15.51935576 292.17014098 -17.05899477 311.75 -11.0625 C312.62527344 -10.80726562 313.50054688 -10.55203125 314.40234375 -10.2890625 C325.76338785 -6.37641224 336.15987626 1.21187102 341.75 11.9375 C343.00973892 14.89412604 343.99684715 17.81481243 344.75 20.9375 C344.93175781 21.66582031 345.11351563 22.39414063 345.30078125 23.14453125 C357.70344435 100.25674097 300.26271315 211.86380554 264.73510742 307.37219238 C263.70362656 310.05826058 262.67506643 312.74543775 261.64648438 315.43261719 C247.93805642 351.19329896 233.39770384 386.60081195 217.02441406 421.23291016 C215.78100101 423.87170897 214.55606427 426.51833542 213.3359375 429.16796875 C199.01306257 460.13159119 199.01306257 460.13159119 190.75 464.9375 C189.84636719 465.48148438 188.94273437 466.02546875 188.01171875 466.5859375 C168.5260812 477.27386803 146.6871933 481.00157396 124.75 481.9375 C123.40228516 482.00130859 123.40228516 482.00130859 122.02734375 482.06640625 C96.62833529 482.67018617 67.60398684 477.73247298 48.359375 459.89453125 C44.20123547 455.66285994 41.68934475 450.90130353 39.0625 445.625 C38.546875 444.60776855 38.03125 443.59053711 37.5 442.54248047 C35.89600983 439.35059856 34.31912556 436.14664684 32.75 432.9375 C32.29028809 432.00663574 31.83057617 431.07577148 31.35693359 430.11669922 C-3.98998901 357.97305283 -29.73752374 280.0472897 -56.33935547 204.36376953 C-57.61820358 200.72694537 -58.90391791 197.09266333 -60.19580078 193.46044922 C-77.59262668 144.54140565 -92.92815121 94.95631762 -107.34075928 45.08154297 C-107.97310806 42.89495837 -108.60811055 40.70914018 -109.24517822 38.52392578 C-110.24090553 35.10165575 -111.22535509 31.6763238 -112.20703125 28.25 C-112.51275558 27.20424805 -112.81847992 26.15849609 -113.13346863 25.08105469 C-115.77980422 15.75759326 -115.77980422 15.75759326 -115.25 10.9375 C-106.991581 -1.58595775 -83.41281168 -9.49880193 -69.5625 -12.9375 C-45.96414999 -17.0945933 -19.12309662 -15.86810145 0 0 Z " fill="#FF9918" transform="translate(2262.25,1747.0625)"/>
<path d="M0 0 C1.47019592 0.00697906 1.47019592 0.00697906 2.97009277 0.01409912 C17.68066797 0.09576139 32.15577781 0.48634631 46.625 3.375 C47.63288574 3.57367676 48.64077148 3.77235352 49.67919922 3.97705078 C84.32872225 11.05324984 116.7734124 25.94905142 142.625 50.375 C143.97508458 51.52564027 145.32911589 52.6716696 146.6875 53.8125 C183.16328767 85.83824157 200.72467539 137.5299822 204.11303711 184.61352539 C207.75783547 241.4684817 195.91073517 300.51450832 157.95263672 344.57861328 C129.68951006 376.56395907 91.80438448 396.51346892 50 404.625 C49.2270459 404.77598145 48.4540918 404.92696289 47.65771484 405.08251953 C32.14211423 407.90093807 16.73735832 408.74952848 1 408.6875 C0.08389954 408.68634186 -0.83220093 408.68518372 -1.77606201 408.68399048 C-16.1985395 408.64803869 -30.14277929 407.84771073 -44.375 405.375 C-45.76912703 405.16526407 -47.16363986 404.95807037 -48.55859375 404.75390625 C-65.42068941 402.0199713 -82.09539983 396.66797281 -97.48779297 389.27978516 C-99.43227281 388.34754165 -101.38926091 387.44555846 -103.34765625 386.54296875 C-143.93880011 367.45139229 -173.9571009 331.19055029 -189.55566406 289.60205078 C-200.057838 260.38989894 -204.8858814 228.40202872 -203.375 197.375 C-203.32859375 196.39660156 -203.2821875 195.41820312 -203.234375 194.41015625 C-200.78029899 146.61144846 -188.38738622 99.27043716 -154.58984375 63.7109375 C-152.66515729 61.68102127 -150.89508395 59.60044547 -149.125 57.4375 C-113.06879333 16.25442012 -52.78517462 -0.4502776 0 0 Z M-54.375 117.375 C-79.43320128 146.12960833 -82.34644021 186.31766206 -80.17285156 222.76464844 C-78.03909388 248.86090753 -71.18055629 275.9841263 -51.375 294.375 C-50.79878906 294.96796875 -50.22257812 295.5609375 -49.62890625 296.171875 C-34.96148949 310.47884485 -15.38997243 314.61246444 4.45092773 314.62646484 C24.29034038 314.2772204 42.07297585 305.68955863 55.9140625 291.76318359 C77.31407484 268.95831433 82.08639369 234.62548233 81.9375 204.6875 C81.93534485 203.9022998 81.9331897 203.11709961 81.93096924 202.30810547 C81.80496636 173.59984268 77.3190068 142.7144704 57.625 120.375 C56.94824219 119.54484375 56.27148438 118.7146875 55.57421875 117.859375 C50.2966386 111.59752147 44.76551253 107.34082443 37.625 103.375 C36.3875 102.66537109 36.3875 102.66537109 35.125 101.94140625 C25.92837917 96.97464147 16.00244123 94.92846353 5.625 94.375 C4.9340625 94.33375 4.243125 94.2925 3.53125 94.25 C-18.32534332 93.59756438 -39.15174218 101.55261575 -54.375 117.375 Z " fill="#FF9918" transform="translate(2833.375,1824.625)"/>
<path d="M0 0 C0.99338379 0.16628906 1.98676758 0.33257813 3.01025391 0.50390625 C42.22665936 7.23633637 84.30108075 23.76862436 108.3046875 57.2109375 C127.01390079 84.73118159 131.15551281 115.5835513 131.14526367 148.14819336 C131.14826096 150.05988124 131.1516648 151.97156851 131.15544128 153.883255 C131.16422534 159.04441296 131.16661697 164.2055543 131.16725707 169.36671901 C131.16797051 172.59781422 131.17011033 175.82890529 131.17275429 179.05999947 C131.18198767 190.35046784 131.1860915 201.64092446 131.18530273 212.93139648 C131.18470179 223.42760163 131.19526208 233.92375541 131.2110464 244.41994756 C131.22415004 253.45811228 131.22948548 262.49626025 131.22884732 271.53443438 C131.22859326 276.92093852 131.2313939 282.30739691 131.24202538 287.69389153 C131.25175458 292.76076888 131.25175267 297.82755717 131.24450874 302.89443779 C131.24346903 304.74504223 131.24578899 306.59565236 131.2518692 308.4462471 C131.31569463 329.23161064 129.5535056 345.13363445 114.4921875 360.5703125 C108.44987965 366.33076343 102.06458203 370.90028753 94.79394531 374.98925781 C93.57914552 375.67369863 92.37025704 376.36872004 91.16699219 377.07324219 C66.00361371 391.77675318 37.53490505 398.56948149 9 403 C8.2673291 403.11472656 7.5346582 403.22945312 6.77978516 403.34765625 C-10.80562685 406.04718999 -28.43616789 406.24021819 -46.1875 406.25 C-47.84466537 406.25101212 -47.84466537 406.25101212 -49.53530884 406.25204468 C-102.32947398 406.20095186 -158.56460502 396.65575029 -197.73828125 358.3203125 C-203.93436996 351.83275376 -208.62386685 344.81031836 -213 337 C-213.47179688 336.18015625 -213.94359375 335.3603125 -214.4296875 334.515625 C-229.35719746 306.88582396 -230.11347226 269.98875135 -221.7109375 240.3046875 C-217.54766819 226.53563085 -211.38921253 214.97753756 -202 204 C-201.236875 202.989375 -200.47375 201.97875 -199.6875 200.9375 C-170.10073319 168.59847582 -122.52944503 161.65147313 -81.37109375 157.3359375 C-79.12439148 157.09640995 -76.87773397 156.85646226 -74.63111877 156.61611938 C-69.9511557 156.11671522 -65.27079777 155.62126061 -60.59008789 155.12890625 C-54.63332546 154.50216258 -48.67748127 153.86714859 -42.72189236 153.22936058 C-38.09182883 152.73417043 -33.46139099 152.2425568 -28.83082771 151.75206375 C-26.6362067 151.51933886 -24.4416784 151.28573775 -22.24725151 151.05118942 C-10.17271174 149.76342684 1.87012088 148.60981297 14 148 C12.73136653 124.7954061 12.73136653 124.7954061 0 106 C-18.28566179 90.23862148 -43.88372147 88.57890873 -66.9375 88.6875 C-68.14830734 88.69023422 -68.14830734 88.69023422 -69.38357544 88.69302368 C-108.01570799 88.83920061 -143.71151016 99.58781959 -180 112 C-192.78150253 101.58448989 -200.89723449 88.62901293 -203 72 C-203.92676864 56.28057802 -201.38345973 43.41521585 -191.33984375 30.9375 C-189.64821943 29.14589788 -187.89990864 27.56830241 -186 26 C-185.34128906 25.44054688 -184.68257812 24.88109375 -184.00390625 24.3046875 C-170.39846736 13.78817841 -152.42640731 9.07276702 -136 5 C-135.23768066 4.80954102 -134.47536133 4.61908203 -133.68994141 4.42285156 C-127.83540775 3.00690706 -121.94684787 1.94791 -116 1 C-114.30713867 0.72494629 -114.30713867 0.72494629 -112.58007812 0.44433594 C-76.1378361 -5.20851578 -36.38405909 -6.42108807 0 0 Z M-0.35546875 229.57910156 C-1.38668602 229.6718763 -1.38668602 229.6718763 -2.43873596 229.76652527 C-4.68873307 229.97034556 -6.9381376 230.17992175 -9.1875 230.390625 C-9.96557007 230.46286034 -10.74364014 230.53509567 -11.54528809 230.60951996 C-15.66845463 230.99247332 -19.7911758 231.37986372 -23.91357422 231.77099609 C-28.1235246 232.16959101 -32.33468792 232.55329653 -36.54634094 232.93341446 C-39.82643664 233.2322453 -43.10540521 233.5423162 -46.38418579 233.85521698 C-47.93358431 234.00120197 -49.48336631 234.14318532 -51.03353882 234.28070831 C-68.61984672 235.84961155 -90.05936634 238.73511356 -103 252 C-109.18426302 260.21801395 -112.00459288 268.71102456 -111 279 C-109.39979679 289.75045608 -104.77972524 298.83362664 -96.1171875 305.62890625 C-70.74131834 322.06235657 -34.8710783 318.42480509 -6.64404297 312.60449219 C0.8718992 310.88616598 8.09857626 308.45071187 15 305 C15 279.92 15 254.84 15 229 C9.73583016 229 4.84334072 229.10480421 -0.35546875 229.57910156 Z " fill="#1D3B6F" transform="translate(1639,1828)"/>
<path d="M0 0 C0.93910217 0.00054382 1.87820435 0.00108765 2.84576416 0.00164795 C53.57621334 0.1361601 98.37906248 16.45257662 136.125 50.375 C136.80046875 50.97699219 137.4759375 51.57898437 138.171875 52.19921875 C148.17621117 61.65569841 156.08679018 73.61955281 163.125 85.375 C163.80304688 86.48746094 164.48109375 87.59992188 165.1796875 88.74609375 C177.39455688 109.63272319 183.4187122 135.30235751 184.125 159.375 C184.15078125 160.02243164 184.1765625 160.66986328 184.203125 161.33691406 C184.77946194 176.89080715 183.28033947 192.43756783 173.015625 204.9453125 C159.9094461 218.63900977 143.30505182 221.94074098 125.2734375 224.6640625 C123.40084638 224.95697408 121.5284039 225.25083725 119.65609741 225.54556274 C113.48239755 226.51101113 107.30406387 227.44460062 101.125 228.375 C98.93721239 228.70583288 96.7494276 229.03668434 94.56164551 229.36755371 C79.21142378 231.68419437 63.85352335 233.94778443 48.49380875 236.20048904 C42.14420009 237.13247563 35.7951487 238.06824338 29.44604492 239.00366211 C19.5002631 240.46859026 9.55421188 241.93167249 -0.39208984 243.39306641 C-11.90395531 245.08457509 -23.41515783 246.78052983 -34.92578125 248.48046875 C-35.67830673 248.59159752 -36.43083221 248.70272629 -37.2061615 248.8172226 C-40.043828 249.23628476 -42.88149075 249.65537229 -45.71914291 250.07453156 C-52.33733808 251.05209851 -58.95575336 252.02817073 -65.57421875 253.00390625 C-66.54321609 253.14676559 -67.51221344 253.28962494 -68.51057434 253.43681335 C-70.63204603 253.74956615 -72.75352236 254.06228753 -74.875 254.375 C-74.875 267.73169056 -63.83633004 280.80363436 -55.23828125 290.06640625 C-39.11413048 305.81743618 -15.67659936 313.21501845 6.125 316.375 C6.77291504 316.4692627 7.42083008 316.56352539 8.08837891 316.66064453 C27.11456331 319.12088906 47.36034439 318.15227822 66.125 314.375 C67.06520996 314.19227539 68.00541992 314.00955078 68.97412109 313.82128906 C93.86578541 308.84540737 117.23860249 299.16544353 140.125 288.375 C152.96813976 297.62087145 162.49528896 309.46995988 166.625 325 C168.83785203 338.99695561 166.8505486 353.35319869 159.125 365.375 C137.25117145 393.78931986 99.41907646 402.30915503 65.69970703 406.71972656 C35.11965299 410.31228776 2.5125516 410.50841125 -27.875 405.375 C-28.86258301 405.21402832 -29.85016602 405.05305664 -30.86767578 404.88720703 C-71.76065602 397.984403 -109.70598341 380.96373477 -139.875 352.375 C-140.76960938 351.53324219 -141.66421875 350.69148438 -142.5859375 349.82421875 C-168.95568254 324.30391927 -184.52804917 289.91311214 -191.875 254.375 C-192.08817871 253.3526123 -192.30135742 252.33022461 -192.52099609 251.27685547 C-195.87845252 234.23929507 -196.26409276 217.31087678 -196.3125 200 C-196.31876404 198.95152893 -196.32502808 197.90305786 -196.33148193 196.82281494 C-196.40379122 177.67583979 -194.91281938 158.64261121 -190.3125 140 C-190.06274414 138.98091553 -189.81298828 137.96183105 -189.55566406 136.91186523 C-181.45805564 105.61628571 -165.43138451 77.41542709 -142.875 54.375 C-142.19050781 53.64023438 -141.50601562 52.90546875 -140.80078125 52.1484375 C-105.41489879 14.90794904 -49.73608765 -0.1089907 0 0 Z M-46.875 102.375 C-47.6896875 102.95894531 -48.504375 103.54289062 -49.34375 104.14453125 C-68.84136518 118.9181872 -78.67650944 139.32707551 -83.578125 162.86328125 C-83.84585006 165.1283762 -83.90454759 167.25514912 -83.89355469 169.53198242 C-83.88743164 170.80017822 -83.88130859 172.06837402 -83.875 173.375 C-63.81147275 170.29123951 -43.74954794 167.19725511 -23.68949223 164.09099007 C-14.37585372 162.64903509 -5.06171508 161.21046856 4.25366211 159.77978516 C12.37010052 158.53322965 20.48554269 157.28041146 28.59983641 156.01996791 C32.898893 155.35239551 37.19839209 154.68803398 41.49909782 154.03116226 C45.54264997 153.41346595 49.58482169 152.78743815 53.62607002 152.15485001 C55.113552 151.92354419 56.60152154 151.6953502 58.08998108 151.47042084 C60.11402528 151.16409139 62.13623662 150.845722 64.15830994 150.52664185 C65.2930371 150.35150118 66.42776426 150.17636051 67.5968771 149.99591255 C68.43115766 149.79101141 69.26543821 149.58611027 70.125 149.375 C72.45362816 144.71774368 68.66520285 136.2166242 67.125 131.375 C60.71825816 114.95044365 49.40456133 102.19676155 33.453125 94.69140625 C8.06266078 84.64846442 -24.2951634 85.95691459 -46.875 102.375 Z " fill="#1D3B6F" transform="translate(1177.875,1824.625)"/>
<path d="M0 0 C0.87253418 0.00491455 1.74506836 0.0098291 2.64404297 0.01489258 C15.30876051 0.24284347 28.0315605 2.80612454 37.25 12.0625 C37.78625 12.65546875 38.3225 13.2484375 38.875 13.859375 C40.20792151 15.43408738 40.20792151 15.43408738 42.25 16.3125 C42.25 16.9725 42.25 17.6325 42.25 18.3125 C42.91 18.3125 43.57 18.3125 44.25 18.3125 C45.625 19.640625 45.625 19.640625 47.25 21.5625 C48.18779297 22.66851563 48.18779297 22.66851563 49.14453125 23.796875 C49.83933594 24.62703125 50.53414062 25.4571875 51.25 26.3125 C52.36955078 27.61960937 52.36955078 27.61960937 53.51171875 28.953125 C59.32806351 35.80910627 64.7617936 42.90035918 70.12109375 50.1171875 C73.24492001 54.3207945 76.43145607 58.47426175 79.625 62.625 C84.77163726 69.32654275 89.79996617 76.10810782 94.79272461 82.92480469 C99.98764395 89.99916624 105.30179065 96.97932629 110.6574707 103.93261719 C114.54876833 109.00374706 118.24617403 114.15276312 121.78930664 119.47436523 C122.27133545 120.08094971 122.75336426 120.68753418 123.25 121.3125 C123.91 121.3125 124.57 121.3125 125.25 121.3125 C127.04193741 119.12063192 128.71658977 116.91566223 130.375 114.625 C131.46252402 113.14768782 132.55112064 111.6711648 133.640625 110.1953125 C134.22392578 109.40286133 134.80722656 108.61041016 135.40820312 107.79394531 C138.60012026 103.49348855 141.86762039 99.25094327 145.125 95 C150.87047767 87.4850026 156.51371371 79.90316673 162.09887695 72.26855469 C166.07603427 66.85261054 170.16269561 61.53448963 174.3125 56.25 C180.04993436 48.93680263 185.53418113 41.47068892 190.9453125 33.9140625 C194.46674388 28.997627 198.03941517 24.11978026 201.625 19.25 C202.18380859 18.48888916 202.74261719 17.72777832 203.31835938 16.94360352 C206.19285721 13.04329277 209.09743445 9.16636648 212.0390625 5.31640625 C212.6057666 4.57334229 213.1724707 3.83027832 213.75634766 3.06469727 C215.25 1.3125 215.25 1.3125 217.25 0.3125 C241.28930551 -1.57450543 266.0646216 1.55840162 284.98046875 17.6328125 C293.3680004 25.53716286 298.98429475 34.90112589 299.5859375 46.66015625 C300.30193425 83.92345938 270.97942997 111.93370072 247.3828125 137.8984375 C245.15700396 140.41775926 243.0438917 143.00522251 240.9375 145.625 C237.04679292 150.43915588 232.91999534 154.96174334 228.69213867 159.47583008 C225.57475274 162.82314243 222.61440833 166.24236788 219.75 169.8125 C215.86648124 174.6509824 211.73719443 179.19681594 207.50683594 183.72924805 C203.98178473 187.50682485 200.56752388 191.34990203 197.25 195.3125 C198.77953036 200.09003307 201.47067089 203.33561127 204.625 207.125 C208.99612526 212.47780438 213.25056801 217.89219179 217.375 223.4375 C222.59797898 230.45049023 227.90370097 237.39325447 233.25 244.3125 C234.91780845 246.47828903 236.5839277 248.64537525 238.25 250.8125 C240.67805973 253.97000967 243.10689466 257.12690264 245.5390625 260.28125 C252.06343688 268.74766224 258.54304622 277.24784633 265.015625 285.75390625 C267.83205944 289.45422171 270.65534487 293.14915019 273.484375 296.83984375 C286.3042673 313.58076166 286.3042673 313.58076166 291.78198242 321.48120117 C293.77507256 324.3378352 295.8477153 327.06160369 298.11328125 329.703125 C305.99703326 338.97702339 305.99703326 338.97702339 305.6875 344.1875 C305.1328125 346.5859375 305.1328125 346.5859375 304.25 349.3125 C303.91742187 350.50101563 303.58484375 351.68953125 303.2421875 352.9140625 C298.06979973 370.52868138 287.96048183 383.10738539 272.2265625 392.5234375 C263.31864365 397.35916487 253.89887298 398.83566942 243.875 398.6875 C242.36401733 398.6711853 242.36401733 398.6711853 240.82250977 398.65454102 C220.5618315 398.22186475 206.07321577 390.51747984 192.25 376.3125 C191.7152002 375.77206055 191.18040039 375.23162109 190.62939453 374.67480469 C178.25801328 362.10646243 167.98456283 348.05650388 158.12719727 333.47436523 C154.40751877 327.97456688 150.59105262 322.55823391 146.6875 317.1875 C135.95406068 302.41333113 125.38058584 287.50837875 115.25 272.3125 C108.78179393 280.80131495 102.45905348 289.3486059 96.4609375 298.17675781 C93.03777839 303.20209154 89.51265039 308.14432073 85.9375 313.0625 C80.70036533 320.26930862 75.57087799 327.54497541 70.47900391 334.85498047 C66.64879316 340.34321768 62.75339544 345.77835677 58.8125 351.1875 C53.93278972 357.8934514 49.22141023 364.70156783 44.5625 371.5625 C43.92683105 372.49070557 43.29116211 373.41891113 42.63623047 374.37524414 C39.83295013 378.47304684 37.06373115 382.57622574 34.4296875 386.78515625 C28.80709716 395.59201267 28.80709716 395.59201267 24.9453125 397.37890625 C22.27544823 397.72467556 19.93024655 397.56260657 17.25 397.3125 C14.89570237 397.36985528 12.54153756 397.43281288 10.1875 397.5 C-11.76065423 397.30067267 -33.27748865 392.90255539 -49.75 377.3125 C-60.24932187 365.68178569 -62.65134325 352.882669 -61.92773438 337.65722656 C-60.47530036 318.49627009 -46.6421687 303.31826614 -34.75 289.3125 C-33.76406829 288.14344386 -32.77838153 286.97418109 -31.79296875 285.8046875 C-29.96587689 283.64028638 -28.13294483 281.48100532 -26.296875 279.32421875 C-23.9173704 276.51041806 -21.57603701 273.67055611 -19.25 270.8125 C-15.50147354 266.2071675 -11.67915754 261.67045556 -7.83374023 257.14624023 C-4.9545468 253.75295891 -2.11795763 250.32982214 0.6875 246.875 C5.58572239 240.86116823 10.63913246 234.98616596 15.70166016 229.11083984 C18.22292916 226.18247853 20.73619153 223.24726543 23.25 220.3125 C26.34094653 216.70461316 29.433546 213.09818158 32.53125 209.49609375 C33.07007812 208.86896484 33.60890625 208.24183594 34.1640625 207.59570312 C35.18941633 206.40240341 36.21541414 205.20965662 37.2421875 204.01757812 C39.97774322 200.83239377 42.64754545 197.60853324 45.25 194.3125 C43.56078858 190.22440847 40.69517134 187.1562182 37.8125 183.875 C36.72359025 182.62011097 35.6350569 181.36489524 34.546875 180.109375 C33.99580078 179.47580078 33.44472656 178.84222656 32.87695312 178.18945312 C30.41776998 175.3523883 27.98693578 172.49177232 25.5625 169.625 C25.10601074 169.08528564 24.64952148 168.54557129 24.17919922 167.98950195 C20.66227124 163.8211272 17.19908964 159.61071198 13.75390625 155.3828125 C10.63657026 151.56030691 7.5080706 147.74711513 4.375 143.9375 C3.77284668 143.20523193 3.17069336 142.47296387 2.55029297 141.71850586 C-1.07391579 137.32033175 -4.73670585 132.95879825 -8.4375 128.625 C-12.61836129 123.72589794 -16.60689361 118.69989694 -20.55541992 113.61254883 C-24.31243679 108.80130437 -28.25966363 104.17863761 -32.26269531 99.5715332 C-35.78438741 95.49693773 -39.14167656 91.32124585 -42.4375 87.0625 C-45.65756798 82.90200233 -48.94845703 78.88806819 -52.5 75 C-53.21285156 74.20980469 -53.92570312 73.41960937 -54.66015625 72.60546875 C-56.06252592 71.06679399 -57.4875881 69.54852234 -58.93359375 68.05078125 C-63.64876375 62.78412938 -63.64876375 62.78412938 -63.91015625 58.984375 C-63.45158333 56.27661111 -62.69566243 53.89191388 -61.75 51.3125 C-61.38777344 50.25417969 -61.02554688 49.19585938 -60.65234375 48.10546875 C-56.85761532 37.6242092 -51.99508442 28.78411445 -44.75 20.3125 C-44.05390625 19.48492188 -43.3578125 18.65734375 -42.640625 17.8046875 C-31.40658481 5.47740179 -16.4593742 -0.11058392 0 0 Z " fill="#FF9918" transform="translate(3147.75,1830.6875)"/>
<path d="M0 0 C0.81678223 0.16628906 1.63356445 0.33257813 2.47509766 0.50390625 C27.79529702 5.88376368 52.56978255 17.856526 67 40 C74.12556767 51.63048584 75.84014906 65.2077782 73.34375 78.4921875 C69.64204036 91.79919542 61.70703015 103.29296985 52 113 C48.41401173 112.62139739 45.43477024 111.43286565 42.18359375 109.92578125 C40.80554565 109.29941772 40.80554565 109.29941772 39.3996582 108.66040039 C38.422146 108.21559326 37.44463379 107.77078613 36.4375 107.3125 C4.05048648 92.9736604 -31.39540005 87.42849213 -65.68359375 98.71484375 C-90.38123739 108.28554429 -110.26809661 124.74986375 -121.66015625 148.859375 C-135.15167572 180.48381131 -135.81314028 221.01923524 -123 253 C-118.64227987 263.28051776 -113.02939536 272.17474181 -105 280 C-103 282 -103 282 -103 284 C-102.45859375 284.24492187 -101.9171875 284.48984375 -101.359375 284.7421875 C-98.45089141 286.2927367 -95.91446813 288.18413108 -93.25 290.125 C-66.36563184 309.06118078 -33.23077336 312.79422802 -1.16137695 307.54443359 C13.95291546 304.68718999 28.06889229 298.90278605 41.80615234 292.11303711 C42.67449707 291.69417236 43.5428418 291.27530762 44.4375 290.84375 C45.58025391 290.27430664 45.58025391 290.27430664 46.74609375 289.69335938 C49.55930412 288.82794371 51.20795929 289.14257219 54 290 C57.63366162 292.66974817 60.78953354 295.83985434 64 299 C64.65742187 299.64453125 65.31484375 300.2890625 65.9921875 300.953125 C75.69222459 311.21360868 79.36250328 323.57409451 79.3125 337.375 C79.32861328 338.25671875 79.34472656 339.1384375 79.36132812 340.046875 C79.3715022 353.92431146 73.7333782 364.69441039 64.37109375 374.65625 C48.3272004 390.51512316 26.76577458 398.00329585 5 402 C4.18321777 402.15098145 3.36643555 402.30196289 2.52490234 402.45751953 C-27.66332811 407.69904222 -60.83261824 406.91232326 -91 402 C-91.87833496 401.86078125 -92.75666992 401.7215625 -93.66162109 401.578125 C-142.27210501 393.59495486 -188.7813111 370.7646698 -218.125 330.1875 C-222.91956943 323.39519331 -227.06891729 316.31937994 -231 309 C-231.89332031 307.37191406 -231.89332031 307.37191406 -232.8046875 305.7109375 C-261.07065816 252.06840652 -260.47565798 181.72306088 -243.4765625 124.796875 C-237.46413785 105.7703094 -227.95247176 88.11391792 -215.35351562 72.66357422 C-214.11343503 71.13942033 -212.90648138 69.58846832 -211.703125 68.03515625 C-181.82634392 30.03494382 -136.6600125 8.93212163 -90 0 C-88.61530518 -0.26901123 -88.61530518 -0.26901123 -87.20263672 -0.54345703 C-59.69710838 -5.59877133 -27.39862091 -5.69846445 0 0 Z " fill="#1D3B6F" transform="translate(627,1828)"/>
<path d="M0 0 C0.81252228 -0.00785522 1.62504456 -0.01571045 2.46218872 -0.02380371 C20.77491347 -0.16139096 40.86540164 1.44258197 54.59375 14.92578125 C64.34463878 26.00151905 66.92321348 39.33315789 66.87304783 53.7795248 C66.87420167 54.6030862 66.87535552 55.4266476 66.87654433 56.27516541 C66.87919103 59.03457388 66.87470487 61.79392399 66.87025452 64.55332947 C66.87069062 66.55164957 66.87156624 68.54996962 66.87284368 70.54828936 C66.87508103 76.03944136 66.87107771 81.53057387 66.86606562 87.02172339 C66.86175043 92.9432644 66.86320831 98.8648043 66.8639679 104.78634644 C66.86452663 115.71427715 66.86063781 126.64220076 66.85462701 137.57012968 C66.84912383 147.66110334 66.84589638 157.75207489 66.84487724 167.84305 C66.8448085 168.51217432 66.84473976 169.18129864 66.84466894 169.87069945 C66.84433061 173.26887843 66.84402922 176.66705741 66.84374207 180.0652364 C66.84164196 204.13113914 66.83490544 228.19703857 66.82543945 252.26293945 C66.8162543 275.64184552 66.80917104 299.02075069 66.80493164 322.3996582 C66.80480011 323.12036653 66.80466859 323.84107485 66.80453308 324.58362282 C66.80321455 331.82130763 66.80193874 339.05899246 66.80069422 346.29667729 C66.79815804 361.04052274 66.79533679 375.78436814 66.79234314 390.5282135 C66.7921372 391.54504868 66.7921372 391.54504868 66.79192711 392.58242599 C66.78272728 437.84661872 66.76686138 483.11080954 66.75 528.375 C63.59052833 529.01903146 60.43011776 529.65833899 57.26953125 530.296875 C56.38527466 530.47718262 55.50101807 530.65749023 54.58996582 530.84326172 C27.18787153 536.36528486 -9.69211702 539.94640927 -34.65234375 524.9296875 C-45.54609158 517.18031754 -50.32376206 506.59472515 -52.64149153 493.75324905 C-53.89995539 485.65363984 -53.65091221 477.44611134 -53.61076355 469.27259827 C-53.61207409 467.27149741 -53.61470507 465.27039707 -53.61853105 463.26929945 C-53.62519916 457.80756412 -53.61329424 452.34600725 -53.59819686 446.88429463 C-53.58518744 440.98061795 -53.58962942 435.07695054 -53.59190369 429.17326355 C-53.59347333 418.95702308 -53.58409649 408.74084029 -53.56719017 398.52461433 C-53.54948134 387.81644416 -53.53788551 377.10829871 -53.53463173 366.40011406 C-53.53442551 365.73292601 -53.53421929 365.06573795 -53.53400682 364.37833208 C-53.53299175 360.98966483 -53.53208762 357.60099756 -53.5312262 354.21233027 C-53.52493428 330.24513489 -53.50474831 306.27796951 -53.47631836 282.31079102 C-53.44874061 259.03507649 -53.42750176 235.75937018 -53.41479492 212.48364258 C-53.41440034 211.76548052 -53.41400576 211.04731846 -53.41359923 210.30739392 C-53.40964348 203.09494951 -53.40581607 195.88250504 -53.40208265 188.67006052 C-53.39447515 173.97905012 -53.38601139 159.28804026 -53.37702942 144.59703064 C-53.37661755 143.92164433 -53.37620568 143.24625802 -53.37578133 142.55040545 C-53.34820527 97.49192434 -53.3006101 52.43346049 -53.25 7.375 C-50.83942229 6.72958502 -48.42867366 6.08482087 -46.01782227 5.44042969 C-44.99853512 5.16741531 -44.99853512 5.16741531 -43.95865631 4.8888855 C-29.25763579 0.96176481 -15.14798296 0.0722088 0 0 Z " fill="#1D3B6F" transform="translate(837.25,1692.625)"/>
<path d="M0 0 C1.47956177 -0.00855011 1.47956177 -0.00855011 2.98901367 -0.01727295 C5.06639556 -0.02666044 7.14379192 -0.03323182 9.22119141 -0.03710938 C12.33914394 -0.04676397 15.45642167 -0.07782733 18.57421875 -0.109375 C42.06266244 -0.23406388 67.386415 2.35775569 85.6875 18.765625 C96.10828814 29.9696039 99.01084809 44.23536139 98.62109375 59.0546875 C97.97988053 72.74028299 93.72619528 86.60748959 86.375 98.203125 C85.52679687 98.07035156 84.67859375 97.93757813 83.8046875 97.80078125 C82.63164062 97.62417969 81.45859375 97.44757813 80.25 97.265625 C78.54457031 97.00458984 78.54457031 97.00458984 76.8046875 96.73828125 C37.75813053 91.58876557 -5.81012182 94.7183189 -41.625 112.203125 C-42.47820674 112.49164998 -43.33141348 112.78017496 -44.21047497 113.07744312 C-46.78030646 114.91787119 -46.78030646 114.91787119 -47.09081233 117.3164438 C-47.27722032 120.28539751 -47.29361593 123.21893537 -47.26423645 126.19377136 C-47.27676996 127.91270827 -47.27676996 127.91270827 -47.28955668 129.66637117 C-47.30774628 132.85234434 -47.30347893 136.03739137 -47.2898711 139.22335899 C-47.28062773 142.6569406 -47.30013845 146.09037088 -47.31619263 149.52391052 C-47.34006303 155.47438695 -47.34563381 161.4246562 -47.33884621 167.37517357 C-47.32905882 175.97861989 -47.34675985 184.58183599 -47.37121352 193.18524507 C-47.41013737 207.14295164 -47.42676808 221.10059251 -47.42944336 235.05834961 C-47.43209005 248.61860526 -47.44519614 262.17878411 -47.47241211 275.73901367 C-47.47492218 276.99236956 -47.47492218 276.99236956 -47.47748295 278.27104577 C-47.4859423 282.46277418 -47.49460773 286.65450213 -47.50337565 290.84622991 C-47.57587064 325.63185109 -47.61221312 360.41743259 -47.625 395.203125 C-49.67348622 395.68549781 -51.72260189 396.16519797 -53.77197266 396.64379883 C-54.91300446 396.91122391 -56.05403625 397.17864899 -57.22964478 397.45417786 C-84.89658859 403.55694978 -124.02965284 406.9354873 -149.125 391.203125 C-160.03548379 382.47473797 -164.77800871 371.31067938 -166.42111349 357.52975559 C-166.80416037 353.15865432 -166.76929846 348.78723045 -166.76544189 344.40222168 C-166.76841302 343.33678462 -166.77138414 342.27134755 -166.7744453 341.17362452 C-166.78309425 337.61509059 -166.78463733 334.05659046 -166.78613281 330.49804688 C-166.79076373 327.94157846 -166.79578876 325.38511073 -166.80117798 322.8286438 C-166.81427878 315.89024771 -166.82077987 308.95186269 -166.82518864 302.01345634 C-166.82795833 297.67411554 -166.83219702 293.33477694 -166.83669281 288.99543762 C-166.84888091 276.96142467 -166.85918065 264.92741346 -166.8625679 252.89339447 C-166.86278747 252.12418628 -166.86300703 251.3549781 -166.86323325 250.56246057 C-166.86356067 249.40601424 -166.86356067 249.40601424 -166.8638947 248.22620535 C-166.86433815 246.66414992 -166.86478472 245.10209449 -166.86523438 243.54003906 C-166.8654558 242.76521897 -166.86567723 241.99039888 -166.86590537 241.19209939 C-166.86984903 228.65186227 -166.88729187 216.11168341 -166.9105939 203.57146877 C-166.93437031 190.67091437 -166.94677263 177.77038913 -166.94793582 164.86981249 C-166.94884913 157.63704788 -166.9545141 150.40435917 -166.97275543 143.1716156 C-166.98986942 136.36225997 -166.99136228 129.55304998 -166.98261642 122.74367905 C-166.98184925 120.25415028 -166.98614627 117.76461361 -166.99607468 115.27510452 C-167.09293291 89.45981499 -164.55266396 68.50529393 -145.875 49.078125 C-113.15873783 17.65068528 -64.32672606 6.23315701 -20.625 1.203125 C-19.48633232 1.07043213 -19.48633232 1.07043213 -18.32466125 0.93505859 C-12.20400913 0.26905142 -6.15434192 0.02842994 0 0 Z " fill="#1D3B6F" transform="translate(2026.625,1825.796875)"/>
<path d="M0 0 C0.87011719 0.18304687 1.74023438 0.36609375 2.63671875 0.5546875 C14.25956866 3.51057711 24.15215707 10.89614316 30.30859375 21.1875 C34.58917875 29.96818718 35.14256849 39.00393072 35.125 48.61328125 C35.12356995 49.53512711 35.12213989 50.45697296 35.1206665 51.40675354 C35.05931498 61.11387636 34.47097675 70.76015472 33.75 80.4375 C33.6501329 81.81504959 33.6501329 81.81504959 33.54824829 83.22042847 C31.58471289 110.19019018 28.69430726 136.98036463 24.875 163.75 C24.74684906 164.64840607 24.61869812 165.54681213 24.48666382 166.47244263 C23.78943887 171.32673223 23.06055664 176.17450576 22.296875 181.01876831 C22.03406161 182.77268568 21.81999928 184.53375616 21.61328125 186.29516602 C21.28047405 188.71042666 20.96205009 190.7626311 20 193 C17.015625 195.18359375 17.015625 195.18359375 13.25 196.4375 C12.23147949 196.78095459 12.23147949 196.78095459 11.19238281 197.13134766 C9.13957404 197.80144787 7.07534547 198.40405311 5 199 C3.9584375 199.33902344 2.916875 199.67804688 1.84375 200.02734375 C-6.30091921 202.25890084 -14.41252959 202.27310051 -22.8125 202.3125 C-23.96975586 202.31813965 -25.12701172 202.3237793 -26.31933594 202.32958984 C-40.22921999 202.2113017 -53.79274598 199.2064192 -64.09375 189.22265625 C-73.20462707 178.59952295 -73.22025636 164.45685963 -74.05322266 151.12841797 C-74.14167732 149.78325093 -74.23065684 148.43811831 -74.32011414 147.09301758 C-74.55899335 143.47781343 -74.79038453 139.86216703 -75.02014971 136.24637365 C-75.26304109 132.44183073 -75.51238278 128.63770976 -75.76083374 124.83352661 C-76.17673914 118.45064151 -76.58794619 112.06746764 -76.99609375 105.68408203 C-77.46657204 98.32644351 -77.94356912 90.9692507 -78.42426455 83.6122731 C-78.88872899 76.50259301 -79.34947426 69.39267713 -79.80823898 62.28262711 C-80.00257749 59.27086796 -80.1980277 56.25918411 -80.39436722 53.24755478 C-80.62561408 49.69687915 -80.85353 46.1460041 -81.07897377 42.59495544 C-81.20088963 40.686021 -81.32591538 38.77728595 -81.45106506 36.86856079 C-81.77732681 31.68346883 -82.07040737 26.49862688 -82.19003296 21.30422974 C-82.20892263 20.52771624 -82.22781231 19.75120274 -82.2472744 18.95115852 C-82 17 -82 17 -79.75390625 14.51953125 C-78.70074219 13.95621094 -77.64757813 13.39289063 -76.5625 12.8125 C-75.98701416 12.49772705 -75.41152832 12.1829541 -74.81860352 11.85864258 C-72.90350539 10.84411015 -70.96537131 9.91313592 -69 9 C-67.96504395 8.51805176 -67.96504395 8.51805176 -66.90917969 8.02636719 C-45.58535372 -1.67514485 -23.07997662 -4.88170858 0 0 Z " fill="#FF9918" transform="translate(3574,1716)"/>
</svg>
