<?xml version="1.0" encoding="UTF-8"?>
<svg version="1.1" xmlns="http://www.w3.org/2000/svg" width="4000" height="4000">
<path d="M0 0 C12.93462824 12.17747927 18.00057893 29.48805568 22.75390625 46.04296875 C23.15743721 47.42615243 23.5617587 48.80910568 23.96679688 50.19184875 C24.82750237 53.13384044 25.68427289 56.07693489 26.53787231 59.02099609 C28.84758638 66.98250374 31.19025478 74.9343648 33.53125 82.88671875 C33.89095981 84.10963182 33.89095981 84.10963182 34.25793648 85.35725021 C39.32967956 102.59215245 44.56008303 119.77616637 49.875 136.9375 C50.09141773 137.63633678 50.30783546 138.33517357 50.53081131 139.05518723 C53.77352137 149.52154302 57.03652408 159.98151195 60.3125 170.4375 C60.52228233 171.10711761 60.73206467 171.77673523 60.94820404 172.46664429 C72.75366631 210.13807102 84.87076334 247.70501579 97.26776123 285.18586731 C99.85026836 292.99557908 102.41873848 300.80971453 104.97354221 308.62853432 C106.91646059 314.57344719 108.86789658 320.51551914 110.82557583 326.45558739 C111.99416601 330.0024112 113.15872062 333.55044227 114.31344604 337.10180664 C115.58391718 341.00845384 116.87307919 344.90867702 118.1640625 348.80859375 C118.54120895 349.97813095 118.91835541 351.14766815 119.30693054 352.35264587 C119.66019913 353.40988358 120.01346771 354.46712128 120.37744141 355.55639648 C120.68050201 356.480327 120.98356262 357.40425751 121.29580688 358.35618591 C121.63131561 359.04301956 121.96682434 359.72985321 122.3125 360.4375 C123.3025 360.7675 124.2925 361.0975 125.3125 361.4375 C125.4869162 360.77903076 125.6613324 360.12056152 125.84103394 359.44213867 C127.70735814 352.48701484 129.77256525 345.61482713 131.9453125 338.75 C132.66768114 336.4508233 133.38958359 334.15150009 134.11108398 331.85205078 C134.67869949 330.04465424 134.67869949 330.04465424 135.25778198 328.20074463 C144.91199763 297.40425375 153.98450542 266.45709446 162.75862122 235.39775848 C163.31830961 233.41693894 163.87852101 231.43626791 164.43884277 229.45562744 C182.42105454 165.87767154 199.73710682 102.12548078 216.07759666 38.10528183 C216.58108511 36.13582304 217.08701217 34.16700368 217.59333801 32.19827271 C219.04607496 26.52560612 220.46369172 20.85333473 221.74658203 15.13964844 C222.07088951 13.72974136 222.07088951 13.72974136 222.40174866 12.29135132 C222.78751889 10.59817748 223.15724402 8.90121917 223.5063324 7.20010376 C224.30666665 3.72107374 224.85885773 1.80102854 227.69067383 -0.46826172 C228.55587646 -0.82936035 229.4210791 -1.19045898 230.3125 -1.5625 C231.01777832 -1.87123047 231.72305664 -2.17996094 232.44970703 -2.49804688 C233.14950684 -2.75650391 233.84930664 -3.01496094 234.5703125 -3.28125 C235.35559326 -3.57241699 236.14087402 -3.86358398 236.94995117 -4.16357422 C237.77084229 -4.46021973 238.5917334 -4.75686523 239.4375 -5.0625 C240.28481689 -5.37074707 241.13213379 -5.67899414 242.00512695 -5.99658203 C266.62551686 -14.8428795 296.61085842 -17.06633825 320.99389648 -6.18554688 C333.39570206 -0.23188105 340.52371691 7.590538 345.3125 20.4375 C356.83789288 63.7195548 329.20070942 123.66375888 316.3125 164.4375 C316.00250061 165.41841614 315.69250122 166.39933228 315.37310791 167.40997314 C305.69007852 197.99189362 295.21593719 228.27100174 284.3125 258.4375 C283.9474939 259.44895081 283.58248779 260.46040161 283.2064209 261.50250244 C268.26988388 302.87905947 252.71400381 344.0272097 235.3125 384.4375 C234.86422852 385.48421875 234.41595703 386.5309375 233.95410156 387.609375 C224.31720598 410.05985163 214.33774585 432.62840156 202.8125 454.1875 C202.46437256 454.86482178 202.11624512 455.54214355 201.75756836 456.23999023 C197.64630146 463.63833822 190.68847014 467.73195022 183.0625 470.9375 C182.38920654 471.22520264 181.71591309 471.51290527 181.0222168 471.80932617 C163.26267053 479.15622733 145.47599875 482.56835902 126.3125 483.4375 C124.99765625 483.50130859 124.99765625 483.50130859 123.65625 483.56640625 C99.7971249 484.13268295 69.77820573 479.94601111 51.3125 463.4375 C51.3125 462.7775 51.3125 462.1175 51.3125 461.4375 C50.71324707 461.20119873 50.11399414 460.96489746 49.49658203 460.72143555 C46.79455424 459.13302015 45.90910461 457.60793254 44.3671875 454.89453125 C43.8525293 453.99299316 43.33787109 453.09145508 42.80761719 452.16259766 C22.78803751 415.67361196 8.41073972 376.11926164 -6.6875 337.4375 C-7.38959739 335.64223264 -8.09174268 333.84698401 -8.79394531 332.05175781 C-24.9030523 290.82280542 -40.00297058 249.19314086 -54.6875 207.4375 C-55.23083984 205.89286072 -55.23083984 205.89286072 -55.78515625 204.3170166 C-73.55621223 153.7482444 -89.87096107 102.84256106 -104.83288574 51.37304688 C-105.64343325 48.58886655 -106.45809769 45.80593109 -107.27441406 43.0234375 C-108.41291735 39.14018316 -109.5413473 35.25419339 -110.65872192 31.36480713 C-111.04730272 30.01605573 -111.43887727 28.66816258 -111.83370972 27.32122803 C-112.35840455 25.52683554 -112.86911557 23.72837105 -113.37890625 21.9296875 C-113.65935791 20.95370605 -113.93980957 19.97772461 -114.22875977 18.97216797 C-114.70455577 16.34326208 -114.63669861 14.91168532 -113.6875 12.4375 C-88.84483537 -16.90520065 -30.01119052 -22.81672704 0 0 Z " fill="#FF9918" transform="translate(2272.6875,1745.5625)"/>
<path d="M0 0 C26.12020372 23.04890478 45.1417475 52.09811923 55.79858398 85.33203125 C56.03270996 86.05390625 56.26683594 86.77578125 56.50805664 87.51953125 C63.73176506 110.25644957 66.0323269 133.72085749 66.04858398 157.45703125 C66.04925873 158.34397675 66.04993347 159.23092224 66.05062866 160.14474487 C66.03307122 174.71856629 65.36286691 188.95453467 62.79858398 203.33203125 C62.62697754 204.29802246 62.45537109 205.26401367 62.27856445 206.25927734 C54.12492107 250.42302405 32.85996488 292.56177117 -3.20141602 320.33203125 C-4.17336914 321.13125 -5.14532227 321.93046875 -6.14672852 322.75390625 C-14.83930323 329.83500603 -24.25349565 335.20511202 -34.20141602 340.33203125 C-34.83805176 340.66332031 -35.4746875 340.99460937 -36.13061523 341.3359375 C-57.89290271 352.51827925 -82.03955554 358.38505116 -106.20141602 361.33203125 C-107.36096802 361.47777588 -107.36096802 361.47777588 -108.54394531 361.62646484 C-118.12333789 362.66808938 -127.76467809 362.57579609 -137.38891602 362.58203125 C-138.32482574 362.58270599 -139.26073547 362.58338074 -140.2250061 362.58407593 C-154.74421513 362.56746729 -168.89645522 362.01794544 -183.20141602 359.33203125 C-184.1648291 359.15510742 -185.12824219 358.97818359 -186.12084961 358.79589844 C-205.01798764 355.23249088 -222.85292367 349.63048184 -240.20141602 341.33203125 C-240.82081055 341.03603027 -241.44020508 340.7400293 -242.07836914 340.43505859 C-260.1369027 331.64790149 -275.10128952 319.49548166 -289.20141602 305.33203125 C-289.7525708 304.79731201 -290.30372559 304.26259277 -290.87158203 303.71166992 C-307.20951763 287.73982552 -319.0933005 266.56083758 -327.20141602 245.33203125 C-327.46116211 244.6570459 -327.7209082 243.98206055 -327.98852539 243.28662109 C-332.8773524 230.31312274 -335.82611017 216.96948851 -338.20141602 203.33203125 C-338.45133301 201.90503906 -338.45133301 201.90503906 -338.70629883 200.44921875 C-344.88879037 163.27746836 -342.51341913 123.4703813 -332.20141602 87.33203125 C-331.95439941 86.46562012 -331.70738281 85.59920898 -331.45288086 84.70654297 C-323.43504269 57.57290844 -308.34315898 32.88550607 -288.58618164 12.74755859 C-287.26988462 11.40202084 -285.97711365 10.03358635 -284.68579102 8.6640625 C-275.00354339 -1.40859833 -263.78703327 -9.33794821 -251.91918945 -16.61083984 C-250.29704097 -17.60912053 -248.69008308 -18.63196432 -247.08422852 -19.65625 C-229.16857771 -30.58523503 -208.66844322 -37.43318034 -188.20141602 -41.66796875 C-187.21061035 -41.87679688 -186.21980469 -42.085625 -185.19897461 -42.30078125 C-121.91866712 -54.98292945 -49.69884971 -42.73315992 0 0 Z M-192.82641602 71.484375 C-217.08917771 100.57574552 -221.45706195 140.22540222 -218.44018555 176.84228516 C-215.72388058 205.16629132 -208.15413245 233.52748018 -185.64477539 252.65478516 C-178.19507905 258.57733967 -170.23754781 262.41437017 -161.20141602 265.33203125 C-159.34516602 265.95078125 -159.34516602 265.95078125 -157.45141602 266.58203125 C-137.47640884 271.19164829 -115.07713327 268.8118111 -97.45141602 258.08203125 C-76.67428045 243.91580246 -64.62500224 222.39581929 -59.68920898 198.02978516 C-52.77003939 159.76310649 -53.03241351 113.37990158 -75.78344727 80.01171875 C-87.57212433 64.16464466 -103.37772327 52.46017359 -123.20141602 49.33203125 C-124.23975586 49.16574219 -124.23975586 49.16574219 -125.29907227 48.99609375 C-150.37363673 45.62854789 -175.34120936 52.87758436 -192.82641602 71.484375 Z " fill="#FF9918" transform="translate(2983.201416015625,1870.66796875)"/>
<path d="M0 0 C1.77706329 0.00131424 1.77706329 0.00131424 3.59002686 0.00265503 C56.56575926 0.13149877 112.93345221 9.75790082 152.25 48.3125 C174.36471626 70.86833427 184.9670254 103.14694812 184.95967102 134.34222412 C184.96334771 135.19828758 184.9670244 136.05435105 184.9708125 136.93635583 C184.98174959 139.78016799 184.985676 142.6239435 184.98950195 145.46777344 C184.99577398 147.51694858 185.00242143 149.5661226 185.00941467 151.61529541 C185.03036359 158.32164736 185.04080615 165.0279993 185.05078125 171.734375 C185.05483176 174.04988873 185.05894877 176.36540234 185.06313133 178.68091583 C185.08216017 189.55878725 185.09639793 200.43665197 185.1047433 211.31453681 C185.11451753 223.84532852 185.14085179 236.37594368 185.18124419 248.90667319 C185.21144782 258.61143761 185.22621607 268.31615151 185.22952431 278.020962 C185.2318692 283.8088722 185.24075732 289.59659329 185.26598549 295.38445282 C185.28934667 300.83137283 185.29346709 306.27798022 185.28322411 311.72493744 C185.28273065 313.7158411 185.28899439 315.70676059 185.30278015 317.69761658 C185.40012364 332.59726989 184.43235997 345.22002399 174.8125 357.375 C173.66587891 358.82712891 173.66587891 358.82712891 172.49609375 360.30859375 C146.6462446 390.99235024 97.08844548 401.8670506 59.375 407.125 C58.5487915 407.24061279 57.72258301 407.35622559 56.87133789 407.4753418 C40.81177069 409.54708732 24.66551075 409.61612273 8.5 409.625 C7.39133575 409.62567474 6.28267151 409.62634949 5.14041138 409.62704468 C-11.48503533 409.6109942 -27.76423105 409.20678534 -44.1875 406.375 C-45.25629395 406.19275879 -46.32508789 406.01051758 -47.42626953 405.82275391 C-85.59231521 399.1191946 -128.2289949 384.89615894 -151.79296875 351.85546875 C-154.09216589 348.45128573 -156.1588692 344.94670696 -158.1875 341.375 C-158.75082031 340.40046875 -159.31414062 339.4259375 -159.89453125 338.421875 C-175.33879009 309.8011219 -175.74713663 272.34355714 -166.89160156 241.57373047 C-163.22732006 230.13110938 -157.94360607 219.58537596 -150.1875 210.375 C-149.465625 209.51519531 -148.74375 208.65539063 -148 207.76953125 C-145.79199542 205.23569267 -143.5229483 202.79154026 -141.1875 200.375 C-140.2284375 199.37726563 -140.2284375 199.37726563 -139.25 198.359375 C-109.59853521 169.86617056 -65.10986959 164.81686243 -26.29988861 160.6897583 C-22.30750101 160.26344702 -18.31618742 159.82728595 -14.32470703 159.39257812 C-6.4126481 158.53281036 1.50074181 157.68590658 9.41467285 156.84356689 C13.52639439 156.40586642 17.63774524 155.9647949 21.74902344 155.52294922 C28.47782562 154.80037595 35.20739322 154.08531087 41.9375 153.375 C42.93414673 153.26922638 43.93079346 153.16345276 44.9576416 153.05447388 C47.72401456 152.76199149 50.49080407 152.47390011 53.2578125 152.1875 C54.04815887 152.10354477 54.83850525 152.01958954 55.65280151 151.93309021 C59.72438978 151.51752756 63.71991306 151.29070033 67.8125 151.375 C67.1854488 129.30384708 67.1854488 129.30384708 56.1484375 110.58984375 C54.43550323 109.06071749 52.68341936 107.70507543 50.8125 106.375 C50.24144531 105.94703125 49.67039062 105.5190625 49.08203125 105.078125 C22.54341707 86.74441286 -22.59877057 89.62553921 -53.03808594 94.79736328 C-74.67137044 98.76514244 -95.23712041 105.00298181 -115.953125 112.24926758 C-117.02046875 112.62075928 -118.0878125 112.99225098 -119.1875 113.375 C-120.27289062 113.77605957 -121.35828125 114.17711914 -122.4765625 114.59033203 C-125.1875 115.375 -125.1875 115.375 -127.3125 114.28515625 C-128.240625 113.37056641 -128.240625 113.37056641 -129.1875 112.4375 C-129.86554688 111.77234375 -130.54359375 111.1071875 -131.2421875 110.421875 C-131.88414063 109.74640625 -132.52609375 109.0709375 -133.1875 108.375 C-133.72632813 107.84390625 -134.26515625 107.3128125 -134.8203125 106.765625 C-144.96298981 96.03881444 -148.4050279 82.10871717 -148.5625 67.8125 C-148.57651855 66.93795166 -148.59053711 66.06340332 -148.60498047 65.16235352 C-148.54399596 56.82389518 -146.75095716 49.16613265 -142.25 42.0625 C-141.52490234 40.89267578 -141.52490234 40.89267578 -140.78515625 39.69921875 C-126.70945816 19.22234745 -99.11936378 11.48717374 -75.85079956 7.16117859 C-71.94690417 6.45424042 -68.03740507 5.78304807 -64.125 5.125 C-63.38475586 4.99985016 -62.64451172 4.87470032 -61.88183594 4.74575806 C-41.2394509 1.30011604 -20.92855878 -0.03793065 0 0 Z M55.33666992 232.87817383 C54.09394821 232.98861526 52.8512265 233.0990567 51.57084656 233.21284485 C50.22819613 233.33563944 48.88557081 233.45870891 47.54296875 233.58203125 C46.13878619 233.70944862 44.73459598 233.8367816 43.33039856 233.96403503 C40.38745002 234.23162463 37.44475828 234.50186552 34.50219727 234.77368164 C31.52081843 235.04873298 28.53908537 235.31921303 25.55688477 235.58520508 C-15.37051806 237.36224045 -15.37051806 237.36224045 -49.75390625 256.51171875 C-56.64361217 265.46645915 -57.09935803 275.48366045 -56.1875 286.375 C-54.24236244 296.95497117 -47.38746556 304.60743041 -38.8125 310.75 C-13.98280424 325.98347019 22.811517 321.52615974 49.8125 315.375 C56.57790278 313.69642444 62.55843534 311.50203233 68.8125 308.375 C68.8125 283.295 68.8125 258.215 68.8125 232.375 C64.19662964 232.375 59.89724131 232.46813708 55.33666992 232.87817383 Z " fill="#1D3B6F" transform="translate(1596.1875,1824.625)"/>
<path d="M0 0 C1.30535706 -0.01469078 1.30535706 -0.01469078 2.63708496 -0.02967834 C56.69201296 -0.51220439 107.45201506 11.17361403 147.28613281 49.81396484 C148.64436163 51.12500172 150.02624327 52.41141683 151.41015625 53.6953125 C178.47538898 79.43716634 194.4028555 118.31146879 195.88769531 155.38354492 C195.96752797 158.93988782 195.996509 162.49359992 196.01171875 166.05078125 C196.04265625 167.84225586 196.04265625 167.84225586 196.07421875 169.66992188 C196.13743978 184.18705097 192.79285387 196.52160891 182.82421875 207.328125 C169.27979729 219.87210624 152.01469085 222.41190619 134.52734375 225.01953125 C132.3209782 225.35930022 130.1147848 225.70018866 127.90875244 226.04211426 C122.05259709 226.9450463 116.19364657 227.82818279 110.33340454 228.7041626 C106.80938068 229.23115377 103.28585638 229.76137022 99.76245117 230.29248047 C84.2355471 232.63043971 68.70212427 234.92303461 53.16644287 237.20184326 C47.09242127 238.09338413 41.01887907 238.98817788 34.9453125 239.8828125 C27.7317151 240.9452617 20.51806532 242.00734561 13.30407715 243.06713867 C0.93361506 244.88484637 -11.43554081 246.7109566 -23.80273438 248.55078125 C-25.06442318 248.73833733 -26.32611198 248.9258934 -27.62603378 249.119133 C-33.68448235 250.01978564 -39.74272119 250.92180457 -45.80059814 251.82629395 C-47.95396998 252.14662968 -50.10735082 252.46690497 -52.26074219 252.78710938 C-53.24809608 252.93508972 -54.23544998 253.08307007 -55.25272369 253.23553467 C-56.5980933 253.43514801 -56.5980933 253.43514801 -57.97064209 253.63879395 C-59.14165781 253.81351604 -59.14165781 253.81351604 -60.33633041 253.99176788 C-62.23828125 254.23828125 -62.23828125 254.23828125 -64.23828125 254.23828125 C-58.50745664 267.90409378 -52.76708246 279.52826143 -42.23828125 290.23828125 C-41.62339844 290.86605469 -41.00851562 291.49382813 -40.375 292.140625 C-16.34452071 314.83321893 20.25908648 318.033462 51.48583984 317.33886719 C82.02472402 316.40117004 111.2707855 306.78626245 138.82421875 294.0625 C139.46182129 293.77318604 140.09942383 293.48387207 140.75634766 293.18579102 C142.21009409 292.49891618 143.64263388 291.76656963 145.06005859 291.00756836 C147.29078743 289.86949343 149.34575562 288.89968669 151.76171875 288.23828125 C163.47698809 292.25881713 170.14084834 305.43368696 175.28125 315.80859375 C180.63903383 328.22055734 180.75163034 343.654997 176.07421875 356.35546875 C167.44965417 375.29870882 150.32571793 386.239499 131.59765625 393.8359375 C117.02303933 399.29083242 102.10636197 402.79869512 86.76171875 405.23828125 C85.8809668 405.3892627 85.00021484 405.54024414 84.09277344 405.69580078 C68.11244561 408.36110555 52.17033542 408.52827875 36.01171875 408.55078125 C34.46091614 408.55615906 34.46091614 408.55615906 32.87878418 408.56164551 C13.40385703 408.59793467 -5.85536173 407.66604061 -24.92578125 403.48828125 C-26.76837524 403.09358643 -26.76837524 403.09358643 -28.64819336 402.69091797 C-38.73657289 400.4693442 -48.53794618 397.78662235 -58.23828125 394.23828125 C-59.03991699 393.94727539 -59.84155273 393.65626953 -60.66748047 393.35644531 C-84.14384765 384.70557107 -105.5452283 372.9708106 -123.7265625 355.6328125 C-125.77956912 353.67559157 -127.8585874 351.84615414 -130.05078125 350.05078125 C-165.88448307 319.44639955 -180.21209993 267.82873577 -183.77734375 222.73046875 C-184.30594518 215.06549368 -184.43931228 207.41939549 -184.42578125 199.73828125 C-184.42484467 199.04274139 -184.42390808 198.34720154 -184.42294312 197.63058472 C-184.32367674 163.3621691 -179.05418661 128.49175216 -162.28125 98.12695312 C-161.18316664 96.13847634 -160.11679121 94.13473772 -159.05078125 92.12890625 C-154.45258566 83.59455893 -149.33519994 75.80297667 -143.23828125 68.23828125 C-142.82932617 67.72249512 -142.42037109 67.20670898 -141.99902344 66.67529297 C-137.47500446 60.9793476 -132.9024781 55.56792746 -127.26953125 50.9296875 C-124.99893392 49.03897857 -122.88568971 47.01758224 -120.73828125 44.98828125 C-114.09240558 38.99676872 -106.72020868 34.11136591 -99.23828125 29.23828125 C-98.28566406 28.61050781 -97.33304688 27.98273438 -96.3515625 27.3359375 C-72.51103519 12.54436946 -44.77874759 5.09618891 -17.23828125 1.23828125 C-16.00634033 1.06321045 -14.77439941 0.88813965 -13.50512695 0.70776367 C-9.00183641 0.15437846 -4.53345509 0.04222688 0 0 Z M-47.23828125 112.23828125 C-61.51985596 127.34074979 -70.03544922 147.33588947 -71.79516602 168.02783203 C-71.87976578 169.00696564 -71.96436554 169.98609924 -72.05152893 170.99490356 C-72.14397133 172.10537552 -72.14397133 172.10537552 -72.23828125 173.23828125 C-56.88410385 170.84744408 -41.5299417 168.456509 -26.17579651 166.06546497 C-19.74378709 165.06383402 -13.31177602 164.0622137 -6.87975216 163.0606755 C-4.78116722 162.73390172 -2.68258342 162.40712063 -0.58399963 162.08033943 C2.18492628 161.64917813 4.95385808 161.21805461 7.72279358 160.78695488 C14.46922213 159.73653904 21.21555002 158.68548353 27.96166992 157.63308716 C38.90768055 155.92587485 49.85381027 154.22017801 60.8046875 152.54443359 C63.06869335 152.19654379 65.33265231 151.84835092 67.59658813 151.50000572 C69.56548223 151.19841196 71.53504968 150.90122413 73.50463867 150.60420227 C74.61814697 150.43277206 75.73165527 150.26134186 76.87890625 150.0847168 C77.81331543 149.94293503 78.74772461 149.80115326 79.71044922 149.65507507 C81.7460169 149.43803258 81.7460169 149.43803258 82.76171875 148.23828125 C83.49996918 133.79425101 74.81488201 119.8073838 65.76171875 109.23828125 C52.43312028 94.81685479 35.0123305 89.01926067 15.7421875 88.20703125 C-8.08980024 88.39413223 -29.86502197 95.32490237 -47.23828125 112.23828125 Z " fill="#1D3B6F" transform="translate(1177.23828125,1824.76171875)"/>
<path d="M0 0 C0.87180908 0.00491455 1.74361816 0.0098291 2.6418457 0.01489258 C19.56350685 0.31966065 30.23739958 5.76944748 42.25 17.3125 C42.91773437 17.92867187 43.58546875 18.54484375 44.2734375 19.1796875 C50.05608665 24.67910485 54.83156492 30.95483952 59.67578125 37.26757812 C61.35728799 39.45186789 63.05211671 41.62529342 64.75 43.796875 C71.34455738 52.23434382 77.85483173 60.72280258 84.25 69.3125 C85.15690124 70.52002034 86.06449386 71.72702162 86.97265625 72.93359375 C92.4208864 80.17452026 97.82561104 87.4448811 103.1875 94.75 C109.75634703 103.6961004 116.47444375 112.522285 123.25 121.3125 C127.51960415 117.25756868 131.10061581 112.85019668 134.6875 108.1875 C135.29585693 107.40125244 135.90421387 106.61500488 136.53100586 105.80493164 C141.47211507 99.38981274 146.28616132 92.88528075 151.06811523 86.35107422 C154.8994342 81.12173312 158.79541054 75.94914171 162.75 70.8125 C167.95380776 64.04945142 173.04119394 57.20760387 178.08984375 50.328125 C181.78063453 45.30044778 185.49902619 40.29541743 189.25 35.3125 C193.76154667 29.31538831 198.2349642 23.29105855 202.6875 17.25 C203.26693359 16.46431641 203.84636719 15.67863281 204.44335938 14.86914062 C204.99701172 14.11697266 205.55066406 13.36480469 206.12109375 12.58984375 C206.6507373 11.87038574 207.18038086 11.15092773 207.72607422 10.40966797 C209.18920801 8.3961596 210.61322091 6.35910605 212.03515625 4.31640625 C214.25 1.3125 214.25 1.3125 216.25 0.3125 C229.8995145 -0.6132712 244.07581762 -0.63526861 257.25 3.3125 C257.9011377 3.50585938 258.55227539 3.69921875 259.22314453 3.8984375 C274.34542576 8.53932703 287.37230883 16.94064294 295.0625 31.1875 C301.00709178 43.97619417 300.37760942 58.02036359 296.25 71.3125 C291.78158171 83.36206708 284.21980562 93.37981889 276.25 103.3125 C275.45021729 104.31845215 275.45021729 104.31845215 274.63427734 105.34472656 C264.70376323 117.81838467 254.38879331 129.93241507 243.60546875 141.67578125 C241.27448261 144.2850941 239.06672813 146.9606282 236.875 149.6875 C233.00781137 154.4839071 228.90019284 158.9829146 224.69189453 163.47607422 C220.79810701 167.65709821 217.18833169 172.01260604 213.62109375 176.4765625 C210.32899527 180.41406414 206.81178937 184.13130016 203.234375 187.81054688 C200.37608337 190.815901 198.32288839 193.28277549 197.25 197.3125 C198.08799366 199.52051119 198.08799366 199.52051119 199.765625 201.5 C200.64589355 202.66184814 200.64589355 202.66184814 201.54394531 203.84716797 C202.51219238 205.06750732 202.51219238 205.06750732 203.5 206.3125 C204.14807617 207.15828613 204.79615234 208.00407227 205.46386719 208.87548828 C207.37723003 211.36683629 209.31239459 213.83999182 211.25 216.3125 C212.189912 217.53721517 213.12771545 218.76355425 214.0625 219.9921875 C216.43979697 223.11343859 218.84396351 226.21333379 221.25 229.3125 C222.91896875 231.47739845 224.58447057 233.64495501 226.25 235.8125 C227.08716898 236.90109597 227.92440836 237.9896378 228.76171875 239.078125 C229.17470215 239.61501953 229.58768555 240.15191406 230.01318359 240.70507812 C231.22320355 242.27767414 232.43386023 243.84978016 233.64453125 245.421875 C243.83261726 258.65486555 253.96808188 271.92806208 264.08300781 285.21704102 C267.53951249 289.75794744 271.00089521 294.29496266 274.47265625 298.82421875 C281.14046675 307.53138411 287.77222546 316.24372113 294.0546875 325.234375 C295.52990607 327.30283093 297.05769112 329.33469269 298.6328125 331.328125 C299.37273438 332.27171875 300.11265625 333.2153125 300.875 334.1875 C301.85339844 335.39019531 301.85339844 335.39019531 302.8515625 336.6171875 C305.63227492 341.97666116 304.49351025 347.50704456 302.82983398 353.09472656 C302.61786377 353.7440918 302.40589355 354.39345703 302.1875 355.0625 C301.96199463 355.75569336 301.73648926 356.44888672 301.50415039 357.16308594 C296.22174619 372.64101193 285.87945793 385.24893906 271.34375 392.91015625 C255.20480496 400.2256629 235.28657072 401.20549802 218.42675781 395.22583008 C208.10536314 390.89515069 200.33250759 385.31070741 192.625 377.25 C191.71911133 376.3226001 190.81322266 375.3952002 189.87988281 374.43969727 C183.11525749 367.42878704 176.97698441 360.18087858 171.25 352.3125 C170.56035156 351.41789062 169.87070313 350.52328125 169.16015625 349.6015625 C163.29913206 341.98332249 157.87441363 334.06453915 152.40673828 326.16210938 C148.14969662 320.01669534 143.83601162 313.91987818 139.4375 307.875 C134.88323612 301.61541654 130.44742313 295.28770602 126.08544922 288.89282227 C122.25187039 283.28227193 118.290228 277.7766479 114.25 272.3125 C113.52296875 273.34246094 112.7959375 274.37242187 112.046875 275.43359375 C107.765625 281.49869792 103.484375 287.56380208 99.203125 293.62890625 C98.71497314 294.32048828 98.22682129 295.01207031 97.72387695 295.72460938 C96.7329563 297.12834524 95.74190599 298.53198958 94.75073242 299.93554688 C92.25919948 303.46403941 89.76985819 306.99403697 87.28515625 310.52734375 C82.23781276 317.69962217 77.15318328 324.84083496 72 331.9375 C64.93697294 341.67478383 58.09123297 351.56027809 51.23876953 361.44628906 C28.85100167 393.71149833 28.85100167 393.71149833 26.25 396.3125 C4.26678198 399.723689 -22.73113662 397.54744943 -41.33984375 384.49609375 C-51.43494939 376.73880204 -59.79657461 367.37208432 -62.46875 354.55078125 C-65.11925452 333.45718278 -57.30858804 317.2898108 -44.75390625 301.1171875 C-40.82495919 296.120739 -36.81718801 291.19698687 -32.75 286.3125 C-31.65531063 284.98124063 -30.56163878 283.64914419 -29.46875 282.31640625 C-22.30452203 273.58312463 -15.07045557 264.91503901 -7.75 256.3125 C-5.8735208 254.10541869 -3.99851658 251.89709674 -2.125 249.6875 C-1.43845337 248.87817017 -1.43845337 248.87817017 -0.73803711 248.05249023 C2.17476317 244.6096156 5.0360684 241.1293062 7.875 237.625 C11.44815632 233.23167078 15.1862423 229.0282897 19 224.84375 C22.11571297 221.33857291 25.04097433 217.68981099 27.98828125 214.04296875 C30.23437935 211.33135809 32.56189213 208.72344545 34.9375 206.125 C38.66124918 202.04194169 42.04502396 197.81203499 45.25 193.3125 C44.14205078 192.02279297 44.14205078 192.02279297 43.01171875 190.70703125 C33.75922246 179.92961781 24.52967308 169.14181264 15.5625 158.125 C12.98853455 154.99450149 10.37423097 151.90084366 7.75 148.8125 C2.84451199 143.03703975 -1.96834183 137.19102599 -6.75 131.3125 C-8.24943092 129.47870121 -9.74943458 127.64537057 -11.25 125.8125 C-15.75 120.3125 -15.75 120.3125 -20.25 114.8125 C-20.99507812 113.90242188 -21.74015625 112.99234375 -22.5078125 112.0546875 C-23.9840486 110.24925589 -25.45806736 108.44200859 -26.9296875 106.6328125 C-31.44719353 101.0864083 -36.03030501 95.60250595 -40.66137695 90.15112305 C-44.32185119 85.83569064 -47.92726419 81.47965923 -51.46484375 77.0625 C-53.12222146 75.0679805 -54.78658026 73.18942934 -56.56640625 71.3125 C-63.30606913 64.07698471 -63.30606913 64.07698471 -64.3671875 59.859375 C-64.22984024 57.09411687 -63.65041596 54.9356126 -62.75 52.3125 C-62.35554688 51.14589844 -61.96109375 49.97929688 -61.5546875 48.77734375 C-54.27211779 28.63693219 -42.68537144 13.338719 -23.125 4 C-15.76710082 0.68143731 -7.97706681 -0.05359992 0 0 Z " fill="#FF9918" transform="translate(3159.75,1830.6875)"/>
<path d="M0 0 C0.74701172 0.14453613 1.49402344 0.28907227 2.26367188 0.43798828 C27.21698832 5.32368749 51.34267284 16.13371769 67 37 C75.60972831 51.28180254 77.53141276 65.73997862 74 82 C71.24270281 91.30209051 62.37973151 107.60134434 54 113 C49.22893861 112.80648842 45.59137959 110.99746647 41.375 108.875 C8.93765653 93.18188603 -27.76565897 87.51700885 -62.625 98.1875 C-84.42916193 105.9483034 -104.6200042 120.56773481 -116 141 C-116.51046875 141.86496094 -117.0209375 142.72992187 -117.546875 143.62109375 C-133.73567701 173.0363139 -133.71235278 212.33682788 -124.75 243.9375 C-117.69236097 266.9938892 -103.11585104 284.74966965 -82.0234375 296.2109375 C-52.46054591 311.69643056 -16.80116051 313.49370705 15.0625 303.8125 C25.69581941 300.36070461 36.39980493 296.09831845 46.1875 290.69140625 C48.86657482 289.35170303 50.03566136 288.99933218 53.12890625 288.94140625 C56.74430194 290.2744297 59.2098483 292.3027556 61.9375 294.9375 C62.45892578 295.43113037 62.98035156 295.92476074 63.51757812 296.43334961 C70.82964649 303.53763715 75.86449938 311.27837246 79 321 C79.22558594 321.68191406 79.45117188 322.36382813 79.68359375 323.06640625 C83.5214759 337.01512275 81.27884274 351.76708257 74.25 364.25 C60.26697135 385.65611794 36.14495868 395.55699192 12 401 C-1.13006563 403.55698167 -14.49309272 405.13361484 -27.87109375 405.203125 C-28.78275803 405.21018463 -29.6944223 405.21724426 -30.63371277 405.22451782 C-81.06433699 405.52594138 -136.41428334 399.67853122 -178 368 C-179.59328125 366.84371094 -179.59328125 366.84371094 -181.21875 365.6640625 C-221.0633201 336.15082689 -242.94604547 291.99931305 -250.34765625 243.73291016 C-258.15886941 188.49823986 -252.61344977 124.99083828 -218.68701172 78.79736328 C-214.62077484 73.39756701 -210.36999206 68.15560861 -206 63 C-205.39414062 62.27039062 -204.78828125 61.54078125 -204.1640625 60.7890625 C-200.13564049 56.03151433 -195.76011854 52.01061914 -191 48 C-190.07574219 47.17628906 -189.15148437 46.35257813 -188.19921875 45.50390625 C-170.97798848 30.27269701 -150.58554849 18.79927614 -129 11 C-128.32420898 10.7515332 -127.64841797 10.50306641 -126.95214844 10.24707031 C-114.55267216 5.73244789 -101.95921369 2.46649621 -89 0 C-88.13358887 -0.16661133 -87.26717773 -0.33322266 -86.37451172 -0.50488281 C-59.00587053 -5.47538617 -27.26373228 -5.66684054 0 0 Z " fill="#1D3B6F" transform="translate(637,1828)"/>
<path d="M0 0 C0.7719873 -0.00570007 1.54397461 -0.01140015 2.33935547 -0.01727295 C3.96629495 -0.0266604 5.5932529 -0.03323181 7.22021484 -0.03710938 C9.6536781 -0.04674113 12.08626802 -0.0777934 14.51953125 -0.109375 C32.64589947 -0.23234135 52.13736722 1.84156265 65.6875 15.203125 C79.22902584 31.19848438 77.99415925 53.60490137 77.92800903 73.36257935 C77.92888334 75.33327028 77.93063844 77.30396098 77.93318737 79.27465045 C77.93762071 84.63835857 77.92971305 90.00198552 77.91963124 95.36568332 C77.91094059 101.16910198 77.91392085 106.97251659 77.91543579 112.77593994 C77.91648111 122.81368201 77.91024154 132.85139795 77.89896011 142.88913345 C77.88266003 157.40175539 77.87748583 171.91436534 77.87498413 186.42699538 C77.87079184 209.9765652 77.85734104 233.52612142 77.83837891 257.07568359 C77.81998758 279.94287036 77.80583138 302.8100534 77.79736328 325.67724609 C77.7969687 326.73596864 77.7969687 326.73596864 77.79656615 327.81607952 C77.79392894 334.9046579 77.79137734 341.99323631 77.78888843 349.08181475 C77.78381705 363.5199466 77.77817455 377.95807821 77.77218628 392.39620972 C77.77177441 393.39180551 77.77177441 393.39180551 77.77135422 394.40751435 C77.75297664 438.67272357 77.72124724 482.93792517 77.6875 527.203125 C76.4084596 527.69261354 75.12847637 528.17963894 73.84809875 528.6656189 C72.77906547 529.07283204 72.77906547 529.07283204 71.68843555 529.48827171 C69.44041711 530.29139772 67.280224 530.78005952 64.91796875 531.1171875 C64.09103516 531.23835938 63.26410156 531.35953125 62.41210938 531.484375 C61.57486328 531.5978125 60.73761719 531.71125 59.875 531.828125 C59.04935547 531.94929688 58.22371094 532.07046875 57.37304688 532.1953125 C29.23188273 536.21235998 -4.7041114 538.80565265 -28.96875 521.28515625 C-40.10199989 511.39511927 -42.25920736 496.66112098 -43.10655272 482.59512007 C-43.5239299 474.59304701 -43.45356922 466.58021197 -43.44621277 458.56974792 C-43.44808449 456.61957086 -43.45038663 454.66939418 -43.45307809 452.71921808 C-43.45915675 447.39822554 -43.4590672 442.07724881 -43.45788372 436.7562536 C-43.45767874 431.00386655 -43.46320737 425.25148445 -43.46794128 419.49909973 C-43.47622425 408.24880728 -43.47899496 396.99852007 -43.47955366 385.74822482 C-43.48002947 376.60958252 -43.4820874 367.47094194 -43.48525429 358.33230019 C-43.49262115 336.63273586 -43.49877993 314.93317301 -43.49825573 293.23360729 C-43.49824015 292.54090364 -43.49822457 291.8482 -43.49820852 291.13450533 C-43.49812542 287.6238855 -43.49802638 284.11326567 -43.49792381 280.60264584 C-43.49790387 279.90546169 -43.49788392 279.20827754 -43.49786337 278.48996659 C-43.49782294 277.08009939 -43.49778114 275.67023219 -43.49773798 274.26036499 C-43.49712413 252.28546785 -43.50465525 230.3105861 -43.51831055 208.33569336 C-43.53365488 183.63270574 -43.54226528 158.92972862 -43.54134732 134.22673589 C-43.54101476 121.15054678 -43.54378836 108.07437506 -43.55452538 94.99818993 C-43.56359815 83.87799486 -43.56583193 72.75782507 -43.55901595 61.63762792 C-43.55573579 55.96043617 -43.55574783 50.28329303 -43.5643692 44.6061058 C-43.57216835 39.41736707 -43.57087113 34.22871603 -43.56208507 29.03997961 C-43.56053554 27.15547849 -43.56242006 25.27097103 -43.56794515 23.38647737 C-43.57492114 20.84003787 -43.56977877 18.2939133 -43.56138897 15.74748516 C-43.56635715 15.00298454 -43.57132533 14.25848393 -43.57644406 13.49142268 C-43.54079662 8.43142162 -43.54079662 8.43142162 -41.3125 6.203125 C-38.91748047 5.53295898 -38.91748047 5.53295898 -35.9296875 4.94921875 C-34.30160156 4.62727539 -34.30160156 4.62727539 -32.640625 4.29882812 C-30.93132813 3.97301758 -30.93132813 3.97301758 -29.1875 3.640625 C-28.07117188 3.41955078 -26.95484375 3.19847656 -25.8046875 2.97070312 C-17.1689216 1.28530306 -8.79638664 0.05207737 0 0 Z " fill="#1D3B6F" transform="translate(838.3125,1692.796875)"/>
<path d="M0 0 C2.86985004 -0.00963926 5.73896172 -0.04071171 8.60864258 -0.07226562 C32.05125675 -0.20589596 58.61135403 2.0546997 76.5012207 19.03710938 C88.35008786 32.29655596 89.16904588 47.38113555 88.65356445 64.29150391 C88.26108249 70.59522345 86.65150074 76.31692143 84.4699707 82.24023438 C83.85702148 83.93986328 83.85702148 83.93986328 83.23168945 85.67382812 C79.50769582 95.27781172 79.50769582 95.27781172 75.4699707 98.24023438 C72.69262695 98.22851562 72.69262695 98.22851562 69.5324707 97.55273438 C31.58971195 89.7339358 -21.08173379 93.6996299 -54.5300293 114.24023438 C-55.1900293 114.24023438 -55.8500293 114.24023438 -56.5300293 114.24023438 C-56.5300293 206.97023438 -56.5300293 299.70023438 -56.5300293 395.24023438 C-87.71294838 401.47681819 -128.47851484 408.95332528 -157.8972168 391.86523438 C-167.98970903 384.85761713 -172.54887056 374.53319358 -175.09767187 362.8415122 C-175.86716484 358.21185888 -175.8080208 353.60190911 -175.79072571 348.91925049 C-175.79455126 347.81000678 -175.7983768 346.70076307 -175.80231827 345.55790591 C-175.81260091 341.85724002 -175.80866507 338.15673066 -175.8046875 334.45605469 C-175.80903664 331.79604584 -175.81415639 329.13604828 -175.82017517 326.4760437 C-175.8328967 320.00985808 -175.83471898 313.54371404 -175.83237491 307.07751802 C-175.83058844 301.81801869 -175.83234844 296.55853194 -175.83659935 291.29903412 C-175.83719454 290.54910867 -175.83778973 289.79918322 -175.83840295 289.02653275 C-175.83961477 287.50279707 -175.8408289 285.97906138 -175.84204533 284.45532569 C-175.85291144 270.17861561 -175.85076301 255.90192917 -175.84466048 241.62521777 C-175.83949433 228.58509205 -175.85074044 215.5450411 -175.8697587 202.50493017 C-175.88916578 189.09471825 -175.89738794 175.68454164 -175.89363545 162.2743156 C-175.89172748 154.75382829 -175.89417131 147.23340457 -175.90834999 139.71292877 C-175.92030154 133.30923554 -175.92162674 126.90564504 -175.90955982 120.50195029 C-175.90369693 117.23952104 -175.90414654 113.97731674 -175.91456223 110.71489334 C-175.98988243 85.28073699 -172.73537308 66.86396053 -154.26049805 47.91210938 C-121.65319258 16.98113304 -72.68157652 6.3380448 -29.5300293 1.24023438 C-28.70204834 1.13565918 -27.87406738 1.03108398 -27.02099609 0.92333984 C-18.04982772 -0.06745006 -9.01468205 0.01821915 0 0 Z " fill="#1D3B6F" transform="translate(2047.530029296875,1825.759765625)"/>
<path d="M0 0 C8.07058285 6.97004883 12.84445215 15.72265224 14.5625 26.25 C17.00653686 73.96426515 10.16692915 122.66210035 2.875 169.6875 C2.59003662 171.57867554 2.59003662 171.57867554 2.29931641 173.50805664 C2.1141748 174.63848389 1.9290332 175.76891113 1.73828125 176.93359375 C1.58270752 177.89837646 1.42713379 178.86315918 1.2668457 179.85717773 C0.47890358 182.53399603 -0.2463773 183.56105717 -2.4375 185.25 C-4.93426966 186.37526431 -7.37319336 187.37369485 -9.9375 188.3125 C-10.59492188 188.56837891 -11.25234375 188.82425781 -11.9296875 189.08789062 C-29.53805073 195.64886122 -52.67634686 196.43948151 -70.28515625 189.73046875 C-79.0768554 185.6015295 -85.84325005 180.79073614 -89.52559853 171.50663853 C-92.25003026 163.03479988 -93.30374364 154.91886984 -93.84130859 146.06811523 C-93.94236557 144.59478439 -94.04476147 143.12154488 -94.14837646 141.64839172 C-94.42266503 137.69120141 -94.67763151 133.73299357 -94.92822981 129.77424121 C-95.19414662 125.61682126 -95.4761442 121.46048661 -95.75576782 117.30397034 C-96.22193665 110.33736249 -96.67562155 103.37002849 -97.12158203 96.40209961 C-97.63714518 88.34884763 -98.17192773 80.29704597 -98.71700037 72.24574131 C-99.24226705 64.48137756 -99.75477409 56.71622375 -100.26118851 48.95060921 C-100.47649458 45.65177585 -100.69614002 42.35327391 -100.91926193 39.05496025 C-101.18083807 35.17886998 -101.4312013 31.30221382 -101.67287445 27.4248333 C-101.76332216 26.00235939 -101.85760624 24.58012349 -101.95598984 23.15817642 C-102.08952448 21.21884781 -102.20780597 19.2784868 -102.32528687 17.33811951 C-102.39567862 16.25253974 -102.46607037 15.16695997 -102.5385952 14.04848385 C-102.43385963 11.14922838 -102.0134502 9.65524077 -100.4375 7.25 C-75.45343132 -12.74797772 -26.49421018 -19.88055831 0 0 Z " fill="#FF9918" transform="translate(3605.4375,1724.75)"/>
<path d="M0 0 C8.01842204 7.5509804 11.81695642 17.24175438 12.1796875 28.265625 C11.64511348 40.12971942 7.44619687 49.50652931 -1.2578125 57.578125 C-4.40296374 60.19101988 -7.21236365 61.73039901 -11.2578125 62.640625 C-8.46445757 66.94704718 -5.46435656 71.00628061 -2.2578125 75.015625 C-1.29335592 76.24016537 -0.32985292 77.46545726 0.6328125 78.69140625 C2.22856544 80.72194554 3.82840912 82.74865007 5.43945312 84.76708984 C7.13837759 86.90132763 8.81665212 89.05049982 10.4921875 91.203125 C11.02972656 91.86940918 11.56726562 92.53569336 12.12109375 93.22216797 C15.74910486 97.93307817 15.74910486 97.93307817 15.71484375 101.4375 C13.73617755 105.91929813 10.19326759 108.79425104 5.7421875 110.640625 C1.68509769 111.19947279 -2.04551534 111.10245249 -5.8828125 109.640625 C-13.1725877 103.50186694 -18.22419222 95.49158503 -23.3828125 87.578125 C-25.41413749 84.48557508 -27.44548112 81.39624086 -29.52441406 78.33544922 C-31.2578125 75.640625 -31.2578125 75.640625 -32.26464844 73.37158203 C-33.22797853 71.07095608 -33.22797853 71.07095608 -36.2578125 68.640625 C-41.8678125 68.310625 -47.4778125 67.980625 -53.2578125 67.640625 C-53.2578125 81.170625 -53.2578125 94.700625 -53.2578125 108.640625 C-61.56067489 110.7163406 -67.22867222 111.72875588 -75.2578125 108.640625 C-77.88508124 105.83031965 -78.63360623 103.94075918 -78.64549255 100.12438965 C-78.65539719 99.22435715 -78.66530182 98.32432465 -78.67550659 97.39701843 C-78.67100494 96.41715469 -78.6665033 95.43729095 -78.66186523 94.42773438 C-78.66872849 93.38994339 -78.67559174 92.3521524 -78.68266296 91.28291321 C-78.70097568 87.84992827 -78.69708731 84.41739833 -78.69140625 80.984375 C-78.69596557 78.60070649 -78.70127039 76.21703929 -78.70729065 73.83337402 C-78.71623032 68.83661561 -78.7137884 63.84001695 -78.70385742 58.84326172 C-78.69236103 52.43366848 -78.71258575 46.02462559 -78.74177456 39.61510468 C-78.76010141 34.69265225 -78.75985118 29.77033259 -78.75413704 24.84785461 C-78.75398343 22.48431119 -78.76006066 20.12075899 -78.77242851 17.75724792 C-78.78727157 14.45565018 -78.77671021 11.15508072 -78.75952148 7.85351562 C-78.76918945 6.87365189 -78.77885742 5.89378815 -78.78881836 4.88423157 C-78.71671941 -1.71435471 -78.71671941 -1.71435471 -76.45301819 -4.89611816 C-57.12637278 -17.77866769 -17.13154556 -14.07487975 0 0 Z M-53.2578125 10.640625 C-53.2578125 22.850625 -53.2578125 35.060625 -53.2578125 47.640625 C-47.6271875 47.7953125 -47.6271875 47.7953125 -41.8828125 47.953125 C-40.13991943 48.02140503 -40.13991943 48.02140503 -38.36181641 48.09106445 C-30.9217286 48.18891051 -25.47266261 46.8145509 -19.2578125 42.640625 C-14.1283429 37.38604638 -13.90830245 32.66329123 -13.9765625 25.58984375 C-14.46402593 20.47824805 -16.9446034 17.9924579 -20.3828125 14.453125 C-30.17051539 8.28261666 -42.21827651 8.4327178 -53.2578125 10.640625 Z " fill="#000000" transform="translate(2642.2578125,2433.359375)"/>
<path d="M0 0 C1.76804575 2.88675912 2.2468233 5.04003897 2.22705078 8.40136719 C2.22680908 9.27390137 2.22656738 10.14643555 2.22631836 11.04541016 C2.21097046 12.40738525 2.21097046 12.40738525 2.1953125 13.796875 C2.19329834 14.63814941 2.19128418 15.47942383 2.18920898 16.34619141 C2.17876577 19.48084994 2.15084316 22.6154306 2.125 25.75 C2.08375 32.7625 2.0425 39.775 2 47 C17.84 47 33.68 47 50 47 C50 31.16 50 15.32 50 -1 C64.87730061 -3.97546012 64.87730061 -3.97546012 72 -0.5625 C74 1 74 1 75 3 C75.09434893 4.50553951 75.12629854 6.01520412 75.12698364 7.5236969 C75.13121338 8.95185226 75.13121338 8.95185226 75.13552856 10.40885925 C75.13249222 11.98066704 75.13249222 11.98066704 75.12939453 13.58422852 C75.13202301 15.23548737 75.13202301 15.23548737 75.13470459 16.92010498 C75.13911995 20.57305459 75.1361864 24.22595612 75.1328125 27.87890625 C75.13348558 30.40714019 75.13445564 32.93537407 75.13571167 35.46360779 C75.13718818 40.76733067 75.13513018 46.07103618 75.13037109 51.37475586 C75.12492592 57.51413543 75.1266935 63.6534818 75.1321975 69.79286057 C75.13727411 75.69072088 75.13674729 81.58857084 75.13381577 87.48643303 C75.13314631 90.00037579 75.13397556 92.5143194 75.13629532 95.02826118 C75.13882017 98.53391934 75.13498374 102.03951272 75.12939453 105.54516602 C75.13141876 106.5950621 75.13344299 107.64495819 75.13552856 108.72666931 C75.13270874 109.67595306 75.12988892 110.62523682 75.12698364 111.60328674 C75.1264181 112.84795888 75.1264181 112.84795888 75.12584114 114.11777592 C75 116 75 116 74 117 C59.21145374 119.14096916 59.21145374 119.14096916 53 115 C49.2341842 110.4276595 49.6089081 105.95844492 49.70703125 100.32421875 C49.71005249 99.50360962 49.71307373 98.68300049 49.71618652 97.83752441 C49.73182103 94.78738738 49.77370497 91.73743037 49.8125 88.6875 C49.9053125 78.4471875 49.9053125 78.4471875 50 68 C34.16 68 18.32 68 2 68 C2.03960829 83.75184806 2.03960829 83.75184806 2.09008789 99.50366211 C2.0930069 101.46988877 2.09555549 103.43611604 2.09765625 105.40234375 C2.10277222 106.43363403 2.10788818 107.46492432 2.11315918 108.52746582 C2.11328003 109.50187622 2.11340088 110.47628662 2.11352539 111.48022461 C2.115746 112.33071884 2.11796661 113.18121307 2.12025452 114.05747986 C2 116 2 116 1 117 C-6.89080913 118.15631938 -13.88713751 118.9667887 -21 115 C-22.92246187 112.05913823 -23.24829694 109.74043719 -23.24050903 106.26702881 C-23.24325836 105.3191449 -23.24600769 104.37126099 -23.24884033 103.39465332 C-23.24164978 102.36175171 -23.23445923 101.3288501 -23.22705078 100.26464844 C-23.22734283 99.17166443 -23.22763489 98.07868042 -23.22793579 96.95257568 C-23.2265419 93.33809484 -23.21097766 89.72381986 -23.1953125 86.109375 C-23.19158259 83.6040254 -23.18873551 81.09867434 -23.18673706 78.59332275 C-23.17987972 72.67187288 -23.16411502 66.7504891 -23.14403808 60.82907319 C-23.11948006 53.42512445 -23.10874607 46.02116655 -23.09765625 38.6171875 C-23.07620315 25.41142077 -23.0424491 12.20571507 -23 -1 C-21.43654714 -1.34608765 -19.87101249 -1.68277737 -18.3046875 -2.015625 C-17.43312012 -2.20415039 -16.56155273 -2.39267578 -15.66357422 -2.58691406 C-10.28730276 -3.42070428 -4.64992304 -2.99618472 0 0 Z " fill="#000000" transform="translate(1681,2426)"/>
<path d="M0 0 C3.43815062 1.97954127 4.79741731 3.39225192 6.0625 7.1875 C6.15903775 8.61837497 6.20163295 10.05326039 6.20967102 11.48736572 C6.21682632 12.36485977 6.22398163 13.24235382 6.23135376 14.1464386 C6.23404266 15.106483 6.23673157 16.0665274 6.23950195 17.05566406 C6.24607315 18.068983 6.25264435 19.08230194 6.25941467 20.12632751 C6.27915173 23.48526074 6.2908112 26.84414925 6.30078125 30.203125 C6.30485678 31.35005577 6.3089323 32.49698654 6.31313133 33.67867279 C6.33399377 39.74915894 6.34829478 45.81962247 6.35766602 51.89013672 C6.36873096 58.15929021 6.40313176 64.42808882 6.44283772 70.69711685 C6.46898614 75.51843932 6.4773563 80.339677 6.48094749 85.16106415 C6.48581798 87.47190498 6.49744502 89.78274191 6.51598549 92.09351349 C6.54033841 95.32988081 6.53941854 98.56532687 6.5324707 101.80175781 C6.54528076 102.75370529 6.55809082 103.70565277 6.57128906 104.68644714 C6.5241934 110.71445293 5.57614565 114.24797083 2.0625 119.1875 C-10.86644551 129.99511594 -27.99941517 130.03476972 -43.9375 129.1875 C-54.54870523 127.83677485 -66.0928513 123.35551201 -73.41015625 115.3046875 C-83.84766043 100.83633132 -85.39176428 83.72670785 -82.65625 66.59375 C-80.26469023 55.25983631 -74.62197576 46.13313247 -65.03515625 39.46484375 C-53.78799968 32.61601657 -41.93592945 31.05242588 -28.9375 32.1875 C-25.6375 33.1775 -22.3375 34.1675 -18.9375 35.1875 C-18.9375 23.9675 -18.9375 12.7475 -18.9375 1.1875 C-12.31646743 -1.01951086 -6.78039566 -1.87542859 0 0 Z M-52.3125 59.375 C-59.14886893 68.45217874 -58.84436477 79.28146546 -57.9375 90.1875 C-56.62651976 97.96191768 -53.18741848 101.8475587 -46.8125 106.4375 C-42.29973774 109.18439877 -38.90671338 109.37511896 -33.6875 109.4375 C-31.76164062 109.47617188 -31.76164062 109.47617188 -29.796875 109.515625 C-25.26612112 109.33426662 -25.26612112 109.33426662 -18.9375 106.1875 C-18.9375 89.3575 -18.9375 72.5275 -18.9375 55.1875 C-30.70989091 50.77285341 -42.97911247 49.56239208 -52.3125 59.375 Z " fill="#000000" transform="translate(2492.9375,2415.8125)"/>
<path d="M0 0 C3.24771004 1.85583431 3.79160254 2.40524685 5.0625 5.75 C5.31976891 7.8964901 5.31976891 7.8964901 5.32992554 10.2527771 C5.33845551 11.14991928 5.34698547 12.04706146 5.35577393 12.97138977 C5.35486755 13.94811142 5.35396118 14.92483307 5.35302734 15.93115234 C5.35974457 16.96573074 5.36646179 18.00030914 5.37338257 19.0662384 C5.39239508 22.48952016 5.3962884 25.91260621 5.3984375 29.3359375 C5.40486305 31.71481406 5.41159123 34.09368982 5.41860962 36.4725647 C5.43059046 41.46089511 5.4342896 46.44915622 5.43310547 51.4375 C5.43290221 57.82893573 5.46020802 64.21992714 5.49464989 70.61125755 C5.51688882 75.52519776 5.52094393 80.43903052 5.51988602 85.3530159 C5.52224636 87.70933184 5.53109416 90.06565054 5.54655075 92.42191696 C5.56614955 95.7182806 5.56039604 99.01367937 5.54833984 102.31005859 C5.55957886 103.28273178 5.57081787 104.25540497 5.58239746 105.2575531 C5.52831956 111.07716001 4.87753123 114.28575982 1.0625 118.75 C-11.11153538 129.00901857 -27.19899263 129.82822192 -42.33740234 128.97753906 C-54.25991045 127.93417967 -65.44715591 123.81843826 -73.75 115 C-84.72887642 101.40587236 -85.13155455 85.50951763 -83.9375 68.75 C-82.42741253 57.50738599 -76.63172297 47.22800478 -67.6875 40.3125 C-58.39148673 34.07253511 -48.80249977 31.63951883 -37.6875 31.5 C-36.46546875 31.47421875 -35.2434375 31.4484375 -33.984375 31.421875 C-29.9375 31.75 -29.9375 31.75 -19.9375 34.75 C-19.9375 23.53 -19.9375 12.31 -19.9375 0.75 C-12.8523494 -1.27432874 -7.020487 -2.67099609 0 0 Z M-53.3125 58.875 C-59.27874968 69.43067251 -60.61113382 80.12032563 -58.3125 91.97265625 C-56.27662214 98.58017056 -52.86890169 103.12994523 -46.9375 106.75 C-42.53640013 108.56400797 -38.74573504 109.04676828 -34 109.0625 C-32.83597656 109.07925781 -31.67195313 109.09601562 -30.47265625 109.11328125 C-26.21925929 108.85356404 -26.21925929 108.85356404 -19.9375 105.75 C-19.9375 88.92 -19.9375 72.09 -19.9375 54.75 C-32.3298842 50.10285593 -43.04214672 49.68573654 -53.3125 58.875 Z " fill="#000000" transform="translate(3307.9375,2416.25)"/>
<path d="M0 0 C3.24771004 1.85583431 3.79160254 2.40524685 5.0625 5.75 C5.31976891 7.8964901 5.31976891 7.8964901 5.32992554 10.2527771 C5.33845551 11.14991928 5.34698547 12.04706146 5.35577393 12.97138977 C5.35486755 13.94811142 5.35396118 14.92483307 5.35302734 15.93115234 C5.35974457 16.96573074 5.36646179 18.00030914 5.37338257 19.0662384 C5.39239508 22.48952016 5.3962884 25.91260621 5.3984375 29.3359375 C5.40486305 31.71481406 5.41159123 34.09368982 5.41860962 36.4725647 C5.43059046 41.46089511 5.4342896 46.44915622 5.43310547 51.4375 C5.43290221 57.82893573 5.46020802 64.21992714 5.49464989 70.61125755 C5.51688882 75.52519776 5.52094393 80.43903052 5.51988602 85.3530159 C5.52224636 87.70933184 5.53109416 90.06565054 5.54655075 92.42191696 C5.56614955 95.7182806 5.56039604 99.01367937 5.54833984 102.31005859 C5.55957886 103.28273178 5.57081787 104.25540497 5.58239746 105.2575531 C5.52831956 111.07716001 4.87753123 114.28575982 1.0625 118.75 C-11.11153538 129.00901857 -27.19899263 129.82822192 -42.33740234 128.97753906 C-54.25991045 127.93417967 -65.44715591 123.81843826 -73.75 115 C-84.72887642 101.40587236 -85.13155455 85.50951763 -83.9375 68.75 C-82.42741253 57.50738599 -76.63172297 47.22800478 -67.6875 40.3125 C-58.39148673 34.07253511 -48.80249977 31.63951883 -37.6875 31.5 C-36.46546875 31.47421875 -35.2434375 31.4484375 -33.984375 31.421875 C-29.9375 31.75 -29.9375 31.75 -19.9375 34.75 C-19.9375 23.53 -19.9375 12.31 -19.9375 0.75 C-12.8523494 -1.27432874 -7.020487 -2.67099609 0 0 Z M-53.3125 58.875 C-59.27874968 69.43067251 -60.61113382 80.12032563 -58.3125 91.97265625 C-56.27662214 98.58017056 -52.86890169 103.12994523 -46.9375 106.75 C-42.53640013 108.56400797 -38.74573504 109.04676828 -34 109.0625 C-32.83597656 109.07925781 -31.67195313 109.09601562 -30.47265625 109.11328125 C-26.21925929 108.85356404 -26.21925929 108.85356404 -19.9375 105.75 C-19.9375 88.92 -19.9375 72.09 -19.9375 54.75 C-32.3298842 50.10285593 -43.04214672 49.68573654 -53.3125 58.875 Z " fill="#000000" transform="translate(2137.9375,2416.25)"/>
<path d="M0 0 C6.52591559 4.85649532 8.36863201 14.6690427 10.69921875 22.1171875 C11.25800468 23.87218063 11.25800468 23.87218063 11.82807922 25.66262817 C13.01659732 29.39814791 14.19641825 33.13633457 15.375 36.875 C16.91621913 41.74878595 18.46176155 46.62117337 20.01171875 51.4921875 C20.39190155 52.68753113 20.77208435 53.88287476 21.16378784 55.11444092 C25.12219461 67.4852836 29.36955119 79.7503855 33.6875 92 C39.78696533 74.11223607 45.76392497 56.20607407 51.0625 38.0625 C51.26941467 37.35756409 51.47632935 36.65262817 51.68951416 35.92633057 C53.7002849 29.06760366 55.65842543 22.2027907 57.4296875 15.27734375 C57.68959473 14.28661865 57.94950195 13.29589355 58.21728516 12.27514648 C58.6798807 10.49266394 59.12153464 8.70454138 59.53662109 6.91040039 C60.140625 4.59375 60.140625 4.59375 61.6875 1 C66.67937933 -1.63914932 72.15632977 -1.59262538 77.6875 -1 C81.80025909 0.54228466 83.24530938 1.33671407 85.6875 5 C86.65676571 12.66903125 85.10923915 19.75081607 82.9375 27.0625 C82.47875488 28.64732178 82.47875488 28.64732178 82.01074219 30.26416016 C76.00930067 50.47481176 68.72737079 70.34083488 60.8125 89.875 C60.38485352 90.93058105 59.95720703 91.98616211 59.51660156 93.07373047 C50.45821499 114.97478692 50.45821499 114.97478692 43.6875 118 C36.9402953 120.24906823 28.37076668 119.76935267 21.79003906 117.17944336 C15.47235069 113.63546373 12.78524464 104.05325229 10.1875 97.6875 C9.765896 96.66188965 9.34429199 95.6362793 8.90991211 94.57958984 C-20.67169518 21.77730357 -20.67169518 21.77730357 -21.4375 5.3125 C-19.86540135 2.08096389 -17.86563221 1.15178409 -14.6328125 -0.2734375 C-9.51667684 -1.87545978 -5.08286885 -1.53445097 0 0 Z " fill="#000000" transform="translate(1131.3125,2425)"/>
<path d="M0 0 C8.89104055 6.9224254 15.16032914 18.14080633 16.78515625 29.33203125 C18.08531006 45.47757769 16.63859402 61.01177785 6 74 C-2.34702972 83.11058337 -13.33783329 87.71953876 -25.578125 88.3359375 C-40.03077205 88.61563657 -52.44916855 86.3885158 -64 77 C-66.70472356 74.19957859 -68.90791746 71.27855128 -71 68 C-71.39832031 67.38640625 -71.79664062 66.7728125 -72.20703125 66.140625 C-79.65635326 53.08338642 -79.42418091 36.54598986 -76.03515625 22.359375 C-72.50870908 10.91505588 -65.4112633 2.05897878 -55.07421875 -3.97265625 C-37.88079665 -12.48841898 -15.47654059 -11.44373644 0 0 Z M-45.75390625 17.05859375 C-50.81984539 24.29739353 -52.34694167 30.59875625 -52.3125 39.3125 C-52.32861328 40.11623047 -52.34472656 40.91996094 -52.36132812 41.74804688 C-52.36809249 50.15615678 -50.46882892 57.39623115 -44.578125 63.55859375 C-39.24229062 68.43216525 -34.01735505 68.47481144 -27.05859375 68.27734375 C-21.51282508 67.77447073 -18.52310354 65.75726784 -14.8125 61.8125 C-8.68924421 54.21453339 -7.21414242 44.53216136 -8 35 C-9.34433129 26.3529877 -11.66814909 19.11581474 -18.78125 13.625 C-27.36891259 8.55687126 -39.12961541 9.28353523 -45.75390625 17.05859375 Z " fill="#000000" transform="translate(2941,2457)"/>
<path d="M0 0 C6.7804262 6.13392045 11.214128 14.56529107 13.375 23.375 C13.55804687 24.09816406 13.74109375 24.82132813 13.9296875 25.56640625 C16.41980799 41.27163988 14.33665695 57.0587351 5.375 70.375 C-2.00795719 79.54303839 -12.10754448 84.55302964 -23.625 86.375 C-39.47315549 87.43140721 -53.05575159 85.81152507 -65.8125 75.62890625 C-76.25552554 66.11546821 -79.84614265 53.0434752 -80.58984375 39.359375 C-80.72667772 23.85152482 -76.60732264 11.89842642 -66.00390625 0.65625 C-48.28286686 -16.00237695 -18.35184879 -14.11993688 0 0 Z M-48.375 16 C-55.50157971 24.88820615 -55.80055949 35.38272089 -54.625 46.375 C-53.16026417 53.09231002 -50.67924196 58.67337957 -45.625 63.375 C-39.61992126 67.05157882 -33.54190922 67.07825122 -26.625 66.375 C-21.21263069 64.50527242 -17.21885952 61.31668704 -14.4609375 56.2265625 C-9.65441682 45.81819758 -8.92432461 34.44482109 -12.7109375 23.52734375 C-15.33772913 17.34203526 -19.02319436 13.43317465 -24.8125 10.125 C-33.78361235 7.73270337 -41.85843208 9.17052798 -48.375 16 Z " fill="#000000" transform="translate(1303.625,2458.625)"/>
<path d="M0 0 C9.25432063 8.20367459 15.11871971 19.0814672 16.22143555 31.4921875 C16.89075946 46.95085832 16.12682355 60.51924167 6 73 C5.49855469 73.62519531 4.99710938 74.25039062 4.48046875 74.89453125 C-2.42559853 82.60714653 -12.98677157 87.27438239 -23.24047852 88.20288086 C-25.60209834 88.30295584 -27.94885773 88.32877292 -30.3125 88.3125 C-31.14628174 88.30831055 -31.98006348 88.30412109 -32.83911133 88.29980469 C-39.25956694 88.1825133 -44.99170789 87.37441097 -51 85 C-52.03253906 84.61714844 -52.03253906 84.61714844 -53.0859375 84.2265625 C-62.89412441 80.00090095 -70.99657766 71.54023752 -74.92578125 61.67578125 C-79.8850647 47.45603487 -80.36473943 29.8060075 -74 16 C-68.41818179 4.82155769 -59.880316 -2.9691785 -48 -7 C-47.34 -7.22429688 -46.68 -7.44859375 -46 -7.6796875 C-30.70408334 -11.90924021 -12.89677347 -9.16502342 0 0 Z M-46.8125 17.8125 C-53.59734358 27.69898636 -54.4551491 39.18963934 -52.3125 50.8125 C-50.70794514 56.91654088 -47.84780265 61.55871394 -42.875 65.4375 C-36.62036837 68.83675632 -29.54175549 69.11472606 -22.64453125 67.421875 C-16.90654354 64.9801781 -13.68697398 60.50230659 -11 55 C-7.44612469 44.78869388 -7.37266911 32.30662729 -11.6640625 22.30859375 C-14.88705342 16.73903926 -18.84087275 12.98235383 -25 11 C-33.94206271 9.85049717 -40.42653284 11.42653284 -46.8125 17.8125 Z " fill="#000000" transform="translate(859,2457)"/>
<path d="M0 0 C7.81802674 7.25305215 10.69380102 15.03153826 11.09872437 25.56918335 C11.14798163 28.4879587 11.16476771 31.40502978 11.16796875 34.32421875 C11.17296135 35.92086113 11.17296135 35.92086113 11.17805481 37.54975891 C11.18309437 39.78780691 11.18546406 42.02586235 11.18530273 44.26391602 C11.18749977 47.68713625 11.20571585 51.11003934 11.22460938 54.53320312 C11.22754181 56.71354057 11.22952761 58.89387954 11.23046875 61.07421875 C11.23765427 62.09513107 11.24483978 63.1160434 11.25224304 64.16789246 C11.24916641 65.12271011 11.24608978 66.07752777 11.24291992 67.0612793 C11.24434494 67.89652634 11.24576996 68.73177338 11.24723816 69.59233093 C10.79794711 73.96764328 9.32200603 77.19567268 6 80.0625 C-4.02385191 88.1522892 -16.92052705 89.35007421 -29.3125 89.3125 C-30.36373047 89.32861328 -31.41496094 89.34472656 -32.49804688 89.36132812 C-43.86827169 89.36831659 -54.98913293 87.35940923 -64 80 C-70.25284461 73.11149276 -72.34974591 65.72208877 -71.9375 56.5625 C-71.10247514 49.86353652 -69.05362702 43.95820117 -64.125 39.18359375 C-53.89138658 31.67768979 -40.95886333 30.30520069 -28.6875 29.25 C-27.34949153 29.12495248 -26.0115992 28.99865587 -24.67382812 28.87109375 C-21.45013576 28.56850891 -18.22585836 28.27836217 -15 28 C-14.95746094 26.10701172 -14.95746094 26.10701172 -14.9140625 24.17578125 C-14.89811035 23.46591064 -14.8821582 22.75604004 -14.86572266 22.0246582 C-14.88599446 19.78319325 -14.88599446 19.78319325 -16.375 17.1875 C-21.67716997 12.76902503 -28.64503386 11.45353849 -35.453125 11.70703125 C-44.22759866 12.71636488 -52.71401156 14.99990074 -61 18 C-65.12804221 12.93981922 -66.45180024 10.66405357 -66 4 C-64.59896031 0.23470585 -63.13280056 -0.91316887 -59.75 -3.125 C-42.57845529 -10.80536363 -15.53135275 -11.73951859 0 0 Z M-45 52 C-47.66053508 54.66053508 -47.78483954 56.27055195 -48 60 C-46.44874877 64.16388487 -44.83797869 66.72120015 -41 69 C-37.24832773 70.25055742 -33.7217828 70.22310897 -29.8125 70.25 C-29.08224609 70.270625 -28.35199219 70.29125 -27.59960938 70.3125 C-26.5080957 70.32023437 -26.5080957 70.32023437 -25.39453125 70.328125 C-24.41770386 70.34214355 -24.41770386 70.34214355 -23.42114258 70.35644531 C-19.81061718 69.82489675 -16.41708039 68.28140515 -13 67 C-13 60.07 -13 53.14 -13 46 C-29.75057275 45.94570612 -29.75057275 45.94570612 -45 52 Z " fill="#000000" transform="translate(1951,2456)"/>
<path d="M0 0 C7.93321528 6.76126303 13.41138182 14.33707609 15.0625 24.7578125 C15.17655904 26.77639224 15.23722023 28.79855329 15.25 30.8203125 C15.26417969 31.84253906 15.27835938 32.86476563 15.29296875 33.91796875 C15.05165937 36.89139107 14.84723382 38.37987202 13.0625 40.7578125 C7.39947865 44.39990781 1.19268756 44.89542347 -5.3359375 45.80078125 C-6.52603424 45.97410477 -7.71613098 46.14742828 -8.94229126 46.32600403 C-12.73103096 46.87551388 -16.52164734 47.41059416 -20.3125 47.9453125 C-22.88685588 48.3161065 -25.46107654 48.68784056 -28.03515625 49.06054688 C-34.33441116 49.97053593 -40.63526683 50.86869739 -46.9375 51.7578125 C-46.9375 55.75540272 -45.14956569 57.50884101 -42.9375 60.7578125 C-42.9375 61.4178125 -42.9375 62.0778125 -42.9375 62.7578125 C-31.36449813 68.77577347 -20.81590726 70.78039635 -8.125 66.9453125 C-3.62504448 65.42549579 0.75641223 63.76064402 5.0625 61.7578125 C10.96850522 67.51238169 10.96850522 67.51238169 11.3125 72.0703125 C11.03609279 76.14731879 10.67457919 77.65596846 8.0625 80.7578125 C-3.17245326 90.21882577 -19.06016867 89.89349837 -32.9375 88.7578125 C-46.08136706 87.0362844 -56.88705909 81.22500785 -65.2890625 70.98828125 C-74.43161166 58.61767563 -75.37138199 42.03199821 -73.3125 27.1953125 C-71.10194043 16.59080993 -65.41674947 6.41311613 -56.55078125 0.04296875 C-39.40605414 -10.6954591 -16.91268738 -12.37362055 0 0 Z M-43.7578125 16.62890625 C-48.16328069 22.25811561 -50.03592044 26.57312062 -49.9375 33.7578125 C-35.82080679 32.40318032 -21.90398581 30.2011473 -7.9375 27.7578125 C-9.95935773 20.38101484 -9.95935773 20.38101484 -14.9375 14.7578125 C-15.618125 14.2009375 -16.29875 13.6440625 -17 13.0703125 C-24.87553731 7.7352711 -37.33527302 10.02719721 -43.7578125 16.62890625 Z " fill="#000000" transform="translate(2742.9375,2456.2421875)"/>
<path d="M0 0 C6.16577835 5.56614663 9.69115403 12.36145561 10.14717102 20.68687439 C10.15701523 21.65250809 10.16685944 22.61814178 10.17700195 23.61303711 C10.19625481 25.26516457 10.19625481 25.26516457 10.21589661 26.95066833 C10.22328354 28.13097122 10.23067047 29.31127411 10.23828125 30.52734375 C10.246353 31.74901749 10.25442474 32.97069122 10.26274109 34.22938538 C10.27655596 36.81070547 10.28728969 39.39204363 10.29516602 41.97338867 C10.31242111 45.91945795 10.3563373 49.86469838 10.40039062 53.81054688 C10.41051446 56.32030635 10.41903153 58.83007293 10.42578125 61.33984375 C10.44328934 62.51812241 10.46079742 63.69640106 10.47883606 64.91038513 C10.46206176 71.24365027 10.33960365 75.2285752 6 80 C-3.93253603 88.44265563 -17.77313755 89.19140714 -30.1875 89.25 C-31.26064453 89.270625 -32.33378906 89.29125 -33.43945312 89.3125 C-44.00082675 89.36361373 -55.81237816 87.59002456 -63.94140625 80.24609375 C-70.83733569 72.88947592 -72.6300234 66.27860873 -72.33984375 56.25 C-71.61559095 49.32381227 -69.47348293 44.00587052 -64.4375 39.125 C-51.00035127 28.75502652 -30.35772466 29.02015917 -14 28 C-14.66998733 23.41008679 -15.37116089 19.8692776 -18.125 16.0625 C-24.26196037 11.659898 -31.66438927 11.19240983 -39 12 C-46.7789097 13.51451345 -54.39139972 15.80919681 -62 18 C-65.51079393 13.72121989 -66.68515949 10.68323689 -66.3671875 5.109375 C-65.76145119 1.62961324 -64.71832287 0.26526905 -62 -2 C-44.01455862 -11.54329543 -17.09384078 -11.30448294 0 0 Z M-30.5625 47.3125 C-31.49513672 47.43044922 -32.42777344 47.54839844 -33.38867188 47.66992188 C-38.20144031 48.33883837 -42.06462768 48.92499248 -46 52 C-48.32849047 55.21553446 -48.54457007 58.11021377 -48 62 C-45.13191871 66.26114934 -42.89163661 68.52571508 -38 70 C-35.34759785 70.21521071 -32.83589605 70.32495718 -30.1875 70.3125 C-29.17719727 70.33666992 -29.17719727 70.33666992 -28.14648438 70.36132812 C-22.44678877 70.36678238 -19.77700154 69.16637558 -14 67 C-14 60.07 -14 53.14 -14 46 C-19.69457203 46 -24.94749954 46.52928342 -30.5625 47.3125 Z " fill="#000000" transform="translate(2272,2456)"/>
<path d="M0 0 C9.94417172 9.68248299 12.63714844 19.42951172 12.96875 32.859375 C12.2086985 37.27967452 10.78812417 38.471671 7.375 41.3125 C4.37670898 42.3449707 4.37670898 42.3449707 0.93359375 42.92578125 C0.29360947 43.03795486 -0.34637482 43.15012848 -1.00575256 43.26570129 C-3.20872489 43.64113713 -5.41515334 43.97997793 -7.625 44.3125 C-8.45602234 44.44041931 -9.28704468 44.56833862 -10.14324951 44.70013428 C-16.60889481 45.68779365 -23.08422076 46.59964023 -29.5625 47.5 C-31.51763396 47.77499395 -33.47271253 48.05038202 -35.42773438 48.32617188 C-40.15953147 48.99281582 -44.89204078 49.65415965 -49.625 50.3125 C-48.64280402 55.76176128 -46.7165694 58.60010621 -42.625 62.3125 C-34.18253421 67.8034006 -24.47472334 68.54799386 -14.6796875 66.78125 C-10.20428991 65.63435145 -6.24468622 64.2123289 -2.1875 62 C-1.011875 61.443125 0.16375 60.88625 1.375 60.3125 C4.80076919 61.60428727 6.69201606 63.03068132 8.375 66.3125 C9.20028371 71.02199945 8.9041174 74.3298534 6.625 78.5625 C-0.60402976 85.99866529 -12.19437006 87.41076711 -22.01049805 87.55395508 C-37.74192567 87.60302379 -51.90126942 85.43298075 -63.8125 74.2421875 C-73.66515054 63.75251214 -76.71690621 50.43542102 -76.625 36.3125 C-76.08306049 22.70696597 -71.91684193 11.42873092 -62.625 1.3125 C-43.36233952 -13.71821234 -19.97312618 -12.83986683 0 0 Z M-49.21484375 19.29296875 C-52.20004719 23.56817701 -52.70177149 27.2370517 -52.625 32.3125 C-43.47087846 31.67140737 -34.47941142 30.25123937 -25.4375 28.75 C-23.99419892 28.51331614 -22.55083984 28.27698564 -21.10742188 28.04101562 C-17.61260466 27.46890731 -14.11859164 26.89205112 -10.625 26.3125 C-11.06906812 24.86998572 -11.52276679 23.43043396 -11.98046875 21.9921875 C-12.35788208 20.78925049 -12.35788208 20.78925049 -12.74291992 19.56201172 C-14.44028082 15.23334211 -17.5344448 13.0655024 -21.25 10.5 C-32.73173502 6.46013027 -41.82887975 10.22455281 -49.21484375 19.29296875 Z " fill="#000000" transform="translate(3197.625,2457.6875)"/>
<path d="M0 0 C8.73185465 6.76204232 14.69987532 15.81391186 16.3203125 26.796875 C16.72438743 31.42601416 16.89066853 35.3859943 15.1328125 39.734375 C11.6600208 43.68617245 7.91915795 45.13989708 2.7956543 45.87182617 C1.17453987 46.11173531 1.17453987 46.11173531 -0.47932434 46.35649109 C-1.634702 46.51599747 -2.79007965 46.67550385 -3.98046875 46.83984375 C-5.17198044 47.01316727 -6.36349213 47.18649078 -7.59111023 47.36506653 C-11.39005571 47.91524596 -15.19099094 48.4499931 -18.9921875 48.984375 C-21.57110974 49.35510417 -24.1498879 49.72683715 -26.72851562 50.09960938 C-33.04394838 51.01034431 -39.36108334 51.90842514 -45.6796875 52.796875 C-45.6796875 57.00501253 -44.93192231 58.73247189 -42.44140625 62.05078125 C-36.6506259 67.79020213 -28.65461829 69.92354535 -20.7421875 70.109375 C-11.09588923 70.04427062 -2.3456542 66.82755719 6.3203125 62.796875 C9.86126358 65.61147714 11.67824099 67.79707359 12.3828125 72.234375 C12.54426234 75.47951683 12.26143758 76.94266051 11.0078125 80.046875 C3.97356834 87.24470623 -5.91435184 89.72787424 -15.73046875 90.09765625 C-17.48427152 90.11710449 -19.23831299 90.12062706 -20.9921875 90.109375 C-21.91572021 90.10373535 -22.83925293 90.0980957 -23.79077148 90.09228516 C-37.13550856 89.85551424 -50.21871723 86.37463554 -60.1171875 76.921875 C-71.53323735 64.44001137 -73.3590038 50.32673952 -72.81152344 33.98681641 C-72.12614687 22.60195003 -67.19091755 11.11018734 -58.7109375 3.35546875 C-41.95655976 -9.50029417 -17.98742059 -11.68314778 0 0 Z M-44.0546875 19.234375 C-47.92324006 24.17228355 -48.94854629 28.58217476 -49.6796875 34.796875 C-40.92334398 34.18683067 -32.29371423 33.11193342 -23.6171875 31.796875 C-22.40869141 31.61898437 -21.20019531 31.44109375 -19.95507812 31.2578125 C-13.73481489 30.38509838 -13.73481489 30.38509838 -7.6796875 28.796875 C-8.27420257 22.55446678 -10.60156621 18.71913719 -15.1796875 14.484375 C-24.50615319 8.18901066 -36.9053643 11.34427855 -44.0546875 19.234375 Z " fill="#000000" transform="translate(1850.6796875,2455.203125)"/>
<path d="M0 0 C8.73185465 6.76204232 14.69987532 15.81391186 16.3203125 26.796875 C16.72438743 31.42601416 16.89066853 35.3859943 15.1328125 39.734375 C11.6600208 43.68617245 7.91915795 45.13989708 2.7956543 45.87182617 C1.17453987 46.11173531 1.17453987 46.11173531 -0.47932434 46.35649109 C-1.634702 46.51599747 -2.79007965 46.67550385 -3.98046875 46.83984375 C-5.17198044 47.01316727 -6.36349213 47.18649078 -7.59111023 47.36506653 C-11.39005571 47.91524596 -15.19099094 48.4499931 -18.9921875 48.984375 C-21.57110974 49.35510417 -24.1498879 49.72683715 -26.72851562 50.09960938 C-33.04394838 51.01034431 -39.36108334 51.90842514 -45.6796875 52.796875 C-45.6796875 57.00501253 -44.93192231 58.73247189 -42.44140625 62.05078125 C-36.6506259 67.79020213 -28.65461829 69.92354535 -20.7421875 70.109375 C-11.09588923 70.04427062 -2.3456542 66.82755719 6.3203125 62.796875 C9.86126358 65.61147714 11.67824099 67.79707359 12.3828125 72.234375 C12.54426234 75.47951683 12.26143758 76.94266051 11.0078125 80.046875 C3.97356834 87.24470623 -5.91435184 89.72787424 -15.73046875 90.09765625 C-17.48427152 90.11710449 -19.23831299 90.12062706 -20.9921875 90.109375 C-21.91572021 90.10373535 -22.83925293 90.0980957 -23.79077148 90.09228516 C-37.13550856 89.85551424 -50.21871723 86.37463554 -60.1171875 76.921875 C-71.53323735 64.44001137 -73.3590038 50.32673952 -72.81152344 33.98681641 C-72.12614687 22.60195003 -67.19091755 11.11018734 -58.7109375 3.35546875 C-41.95655976 -9.50029417 -17.98742059 -11.68314778 0 0 Z M-44.0546875 19.234375 C-47.92324006 24.17228355 -48.94854629 28.58217476 -49.6796875 34.796875 C-40.92334398 34.18683067 -32.29371423 33.11193342 -23.6171875 31.796875 C-22.40869141 31.61898437 -21.20019531 31.44109375 -19.95507812 31.2578125 C-13.73481489 30.38509838 -13.73481489 30.38509838 -7.6796875 28.796875 C-8.27420257 22.55446678 -10.60156621 18.71913719 -15.1796875 14.484375 C-24.50615319 8.18901066 -36.9053643 11.34427855 -44.0546875 19.234375 Z " fill="#000000" transform="translate(1545.6796875,2455.203125)"/>
<path d="M0 0 C6.52451538 5.81109918 10.48594695 12.76155029 11.34509277 21.5166626 C11.46136882 25.63482669 11.45105625 29.73313643 11.390625 33.8515625 C11.38314888 35.36183924 11.37746244 36.87212579 11.37347412 38.38241577 C11.35832533 42.32484524 11.31913936 46.26666926 11.2746582 50.2088623 C11.23347069 54.24462702 11.2154134 58.28049118 11.1953125 62.31640625 C11.15263208 70.2112129 11.08451481 78.10553078 11 86 C3.43036619 88.27089014 -2.471891 88.89542654 -10 86 C-12.95878489 82.93847504 -13.3757827 80.74041271 -13.38476562 76.5480957 C-13.39487671 75.45628494 -13.40498779 74.36447418 -13.41540527 73.23957825 C-13.41238403 72.06352524 -13.40936279 70.88747223 -13.40625 69.67578125 C-13.41708618 68.45980759 -13.42792236 67.24383392 -13.43908691 65.99101257 C-13.47339225 62.09812126 -13.48894369 58.20552266 -13.5 54.3125 C-13.51460709 49.20414698 -13.54840685 44.09644375 -13.59375 38.98828125 C-13.59072876 37.8223494 -13.58770752 36.65641754 -13.58459473 35.45515442 C-13.64313955 29.04213439 -13.83376518 22.74345012 -17 17 C-22.04268089 12.53832889 -27.89034713 12.55811824 -34.36328125 12.56640625 C-39.33939326 13.15969136 -44.16522609 14.6814253 -49 16 C-49 39.1 -49 62.2 -49 86 C-57.77363286 88.50675225 -62.89831566 89.21287586 -71 85 C-74.59688427 81.40311573 -74.13226809 77.41144508 -74.16113281 72.5065918 C-74.17074036 71.18809738 -74.1803479 69.86960297 -74.19024658 68.51115417 C-74.1950951 67.07384413 -74.19937379 65.63653207 -74.203125 64.19921875 C-74.20888136 62.71954854 -74.21463903 61.23987833 -74.22039795 59.76020813 C-74.23089224 56.65922703 -74.23674508 53.55827174 -74.24023438 50.45727539 C-74.24571374 46.49630496 -74.26973618 42.5356792 -74.29820633 38.5748167 C-74.3168903 35.51806156 -74.32204137 32.46138847 -74.32357025 29.40458107 C-74.32658468 27.94502696 -74.3345721 26.48547387 -74.34775543 25.02597618 C-74.48503245 8.65928407 -74.48503245 8.65928407 -68.5 2.375 C-50.89911131 -10.73938765 -18.15550199 -13.64327351 0 0 Z " fill="#000000" transform="translate(2379,2456)"/>
<path d="M0 0 C0.77279297 -0.01224609 1.54558594 -0.02449219 2.34179688 -0.03710938 C9.82068586 -0.05640144 9.82068586 -0.05640144 12.6875 2.1875 C14.66559091 5.37130435 14.94191604 7.84820351 14.95874023 11.56347656 C14.96892685 12.63849426 14.97911346 13.71351196 14.98960876 14.82110596 C14.99174881 15.97842224 14.99388885 17.13573853 14.99609375 18.328125 C15.02125903 20.78515857 15.04665698 23.24218976 15.07226562 25.69921875 C15.10097497 29.56786456 15.12499499 33.43646903 15.14379883 37.30517578 C15.16551191 41.04221234 15.20496295 44.77875898 15.24609375 48.515625 C15.24620956 49.66484436 15.24632538 50.81406372 15.2464447 51.99810791 C15.33208659 58.9812352 15.66359173 65.35774811 20.16796875 71.0625 C26.95893342 75.5380099 34.88999496 74.91090135 42.6875 74.1875 C46.6475 73.1975 46.6475 73.1975 50.6875 72.1875 C50.6875 48.7575 50.6875 25.3275 50.6875 1.1875 C53.80136082 -0.36943041 57.08494932 -0.03817195 60.5 -0.0625 C61.21220703 -0.083125 61.92441406 -0.10375 62.65820312 -0.125 C67.19956543 -0.1586086 70.09114881 0.36522059 73.6875 3.1875 C75.15301545 6.1185309 74.86064017 9.08129676 74.88037109 12.29589844 C74.89263733 13.39378693 74.89263733 13.39378693 74.90515137 14.51385498 C74.93000833 16.94151999 74.94652343 19.36912644 74.9609375 21.796875 C74.96626118 22.62602669 74.97158485 23.45517838 74.97706985 24.30945587 C75.00380473 28.69945858 75.02317717 33.08943283 75.03759766 37.47949219 C75.05423256 42.01027217 75.09899899 46.54032292 75.1499691 51.07082748 C75.18365751 54.55732032 75.19517686 58.04364056 75.20082474 61.53028107 C75.20753451 63.20003065 75.22274962 64.86976898 75.24671555 66.53936005 C75.27840187 68.88068147 75.27839958 71.22004313 75.27099609 73.56152344 C75.28740143 74.24746582 75.30380676 74.9334082 75.32070923 75.64013672 C75.24903312 81.19633664 73.47531941 83.42006778 69.6875 87.1875 C54.62483427 96.85034217 33.53855201 97.43425406 16.4375 94.0625 C7.39429374 91.5124575 0.90638111 87.23642526 -4.83984375 79.82421875 C-9.7142915 71.09675925 -9.72889915 62.44946096 -9.640625 52.6875 C-9.63756214 51.20060416 -9.63569003 49.71370545 -9.63494873 48.22680664 C-9.63037305 45.13041995 -9.6160439 42.03429732 -9.59375 38.93798828 C-9.56527111 34.96211035 -9.55451577 30.98643782 -9.5500679 27.01046753 C-9.54592357 23.94966572 -9.53611763 20.88890561 -9.52419281 17.828125 C-9.51848665 16.36084323 -9.51372908 14.89355747 -9.50992584 13.42626953 C-9.50308814 11.38701985 -9.48856254 9.34780024 -9.47363281 7.30859375 C-9.46680481 6.1477124 -9.45997681 4.98683105 -9.45294189 3.79077148 C-9.15703813 -1.69418605 -4.37215062 0.00359256 0 0 Z " fill="#000000" transform="translate(904.3125,2449.8125)"/>
<path d="M0 0 C6.24553025 5.20460854 9.59047542 11.84491574 13.3125 18.9375 C17.77746192 27.3211682 22.32987766 35.63916558 27.0625 43.875 C27.58400635 44.78258057 28.1055127 45.69016113 28.64282227 46.62524414 C29.84298296 48.70979806 31.04512641 50.79316769 32.25 52.875 C33.96734986 49.65055882 35.67280895 46.4199677 37.375 43.1875 C37.90689941 42.18050049 38.43879883 41.17350098 38.98681641 40.13598633 C42.12395497 34.13760648 45.11295845 28.10412326 47.953125 21.9609375 C48.57140118 20.63498615 49.18972772 19.30905828 49.80810547 17.9831543 C50.7175314 16.03078066 51.61879987 14.07637278 52.49761963 12.11001587 C53.321443 10.26696193 54.17195926 8.43591066 55.0234375 6.60546875 C55.50216309 5.54739014 55.98088867 4.48931152 56.47412109 3.39916992 C58.72734764 0.19651537 60.49073836 -0.28164384 64.25 -1.125 C69.92510788 -1.85330551 74.37321944 -1.33653842 79.25 1.875 C82.00358959 6.00538439 82.17432266 9.12500856 81.25 13.875 C78.97982062 19.42706914 76.13336571 24.62214739 73.25 29.875 C72.49364205 31.29496116 71.73843276 32.71553476 70.984375 34.13671875 C63.93715956 47.25713224 56.39736036 60.92096825 47.09423828 72.57568359 C44.63872405 76.9685641 44.64765066 80.47849422 44.640625 85.4296875 C44.62408875 86.33123566 44.60755249 87.23278381 44.59051514 88.16165161 C44.54215897 91.02450457 44.52069184 93.8868268 44.5 96.75 C44.47182994 98.69794319 44.44190107 100.64586179 44.41015625 102.59375 C44.33640334 107.35412295 44.28675312 112.11420343 44.25 116.875 C36.68036619 119.14589014 30.778109 119.77042654 23.25 116.875 C20.56762261 114.36661257 20.26002966 113.02278318 20.00805664 109.31005859 C20.04657007 107.88080451 20.09808928 106.45186258 20.16015625 105.0234375 C20.19170801 103.44253975 20.21905946 101.86155378 20.24267578 100.28051758 C20.25655334 99.45806549 20.27043091 98.6356134 20.284729 97.78823853 C20.4541556 82.3028342 19.54301578 71.72545741 8.87988281 59.80566406 C6.08120164 56.49050968 3.9517115 52.78918726 1.75 49.0625 C1.30785156 48.33200439 0.86570312 47.60150879 0.41015625 46.84887695 C-3.18155815 40.90430498 -6.66610526 34.89760273 -10.125 28.875 C-10.61291016 28.02703857 -11.10082031 27.17907715 -11.60351562 26.30541992 C-13.00772725 23.84008208 -14.38600644 21.36279929 -15.75 18.875 C-16.2440332 17.98167969 -16.73806641 17.08835937 -17.24707031 16.16796875 C-17.71467773 15.28753906 -18.18228516 14.40710937 -18.6640625 13.5 C-19.08896973 12.70851563 -19.51387695 11.91703125 -19.95166016 11.1015625 C-20.88892949 8.48752692 -20.80384912 7.41745229 -19.75 4.875 C-14.32963473 -1.25857122 -7.76102454 -3.17496459 0 0 Z " fill="#000000" transform="translate(697.75,2425.125)"/>
<path d="M0 0 C6.15798006 5.23428306 6.15798006 5.23428306 6.84765625 9.046875 C7.03938591 13.48166529 6.45766958 16.63917514 3.5 20.125 C0.67254055 21.40962199 -0.51798653 21.11928335 -3.5234375 20.1640625 C-4.62945313 19.69742188 -5.73546875 19.23078125 -6.875 18.75 C-16.7547866 14.60835644 -25.60492372 13.78606753 -35.75 17.2734375 C-37.69004872 17.99794554 -37.69004872 17.99794554 -38.5 20.125 C-38.5689472 21.49842831 -38.58467708 22.87502102 -38.5625 24.25 C-38.541875 25.52875 -38.52125 26.8075 -38.5 28.125 C-33.20268463 29.97846784 -27.91096941 31.57936762 -22.4597168 32.91210938 C0.10982801 38.44703797 0.10982801 38.44703797 6.71484375 47.85546875 C11.15473235 55.26581663 11.62824441 63.27056643 10.00390625 71.69921875 C7.65647462 79.51072852 3.30523787 84.03451392 -3.73046875 87.94921875 C-12.19365353 91.54219282 -19.7643152 92.60049746 -28.9375 92.5 C-29.99259766 92.51160156 -31.04769531 92.52320312 -32.13476562 92.53515625 C-43.53330726 92.49306933 -53.31211273 90.11490606 -62.1640625 82.73828125 C-64.6795487 79.70057423 -64.61080173 75.9444009 -64.5 72.125 C-63.36691593 68.8450198 -62.52533618 66.91783365 -59.77734375 64.79296875 C-56.27872705 63.76678787 -54.42289986 65.23591903 -51.25 66.875 C-41.53828734 71.60136683 -32.08365561 74.10473202 -21.1796875 71.58984375 C-18.58016802 70.59463023 -16.77764537 69.46048816 -15 67.3125 C-14.27498866 64.14057539 -14.46694502 62.22416494 -15.5 59.125 C-21.59703007 53.87968452 -29.49417751 52.77282647 -37.11523438 50.85742188 C-48.03083254 47.9890416 -56.66674431 44.24282734 -62.609375 34.26171875 C-65.48548989 27.36156592 -65.03537234 19.30381683 -62.5703125 12.375 C-58.97477254 4.81649265 -52.78136543 0.44024647 -45.28125 -2.84765625 C-31.67616301 -7.47596907 -12.66851398 -6.78670392 0 0 Z " fill="#000000" transform="translate(2837.5,2452.875)"/>
<path d="M0 0 C4.84206517 4.10841893 6.19780175 8.67323675 7.953125 14.58984375 C8.21887833 15.46090256 8.48463165 16.33196136 8.75843811 17.22941589 C9.32465564 19.08786489 9.88730379 20.94740449 10.44668579 22.80792236 C11.88500251 27.59156372 13.34823907 32.36758128 14.80859375 37.14453125 C15.09200119 38.07412659 15.37540863 39.00372192 15.66740417 39.96148682 C18.61820087 49.61942302 21.77226737 59.20234314 25.0625 68.75 C28.66172339 60.38136851 31.32529149 51.77367181 33.9375 43.0625 C34.264655 41.98207428 34.264655 41.98207428 34.59841919 40.87982178 C37.74243848 30.49540107 40.68449161 20.08136576 43.17333984 9.5168457 C43.38297363 8.65792725 43.59260742 7.79900879 43.80859375 6.9140625 C43.98060303 6.17623535 44.1526123 5.4384082 44.32983398 4.67822266 C45.19957834 2.38923867 46.16643233 1.28445986 48.0625 -0.25 C53.55037539 -2.0792918 59.78744768 -2.22502242 65.125 0.0625 C67.37106232 2.01874783 68.90930801 3.67752191 69.34130859 6.7019043 C69.32739355 12.36216277 68.41669885 17.18776559 66.6875 22.5625 C66.42348389 23.40651367 66.15946777 24.25052734 65.88745117 25.12011719 C64.96945004 28.00504225 64.02097363 30.87827088 63.0625 33.75 C62.52375244 35.36817627 62.52375244 35.36817627 61.97412109 37.01904297 C47.79299638 79.12885407 47.79299638 79.12885407 38.0625 91.75 C31.35226161 94.82552593 22.1294008 95.12567205 15.125 92.75 C8.21627225 88.2381778 5.45019332 79.50916145 2.4375 72.125 C2.01364014 71.0952002 1.58978027 70.06540039 1.15307617 69.00439453 C-5.91740854 51.62456198 -12.3595785 33.95919179 -18.1875 16.125 C-18.6374231 14.77510986 -18.6374231 14.77510986 -19.09643555 13.39794922 C-19.35851807 12.57311035 -19.62060059 11.74827148 -19.890625 10.8984375 C-20.11911133 10.18864746 -20.34759766 9.47885742 -20.58300781 8.74755859 C-20.99907875 6.40300457 -20.76000332 4.97452435 -19.9375 2.75 C-14.4842753 -2.15790223 -6.66271347 -2.83519722 0 0 Z " fill="#000000" transform="translate(3040.9375,2450.25)"/>
<path d="M0 0 C3.60874325 3.20212429 4.11094643 5.0139184 4.65625 9.84375 C4.57602742 14.60362286 2.5004917 16.6870083 -0.78125 19.96875 C-1.65265625 19.6078125 -2.5240625 19.246875 -3.421875 18.875 C-13.20219403 15.06448609 -21.76365223 12.99422239 -32.09375 16.46875 C-38.64879287 19.47226643 -43.03583831 24.42373343 -45.71875 31.09375 C-48.44220281 40.96626645 -47.85691229 51.98527691 -42.78125 60.96875 C-38.04851084 66.81577964 -31.96305538 69.50410496 -24.6171875 70.3203125 C-16.59030978 70.65847365 -10.80280255 69.25820121 -3.62109375 65.671875 C-2.68394531 65.43984375 -1.74679687 65.2078125 -0.78125 64.96875 C2.02299311 66.70043838 3.73816542 68.00758085 5.21875 70.96875 C5.88960641 75.76058149 5.75379197 79.05400083 3.28125 83.28125 C-3.04344522 89.76811689 -12.09866817 91.077393 -20.72290039 91.21044922 C-36.02974727 91.25892922 -49.35550215 89.05740696 -61.09375 78.34375 C-72.00051526 66.65313097 -73.36946305 52.57701543 -73.09375 37.4140625 C-72.66215749 26.95873398 -69.42807285 18.11846753 -62.78125 9.96875 C-62.21792969 9.27007813 -61.65460938 8.57140625 -61.07421875 7.8515625 C-47.53017259 -7.26074164 -16.99709042 -12.41360537 0 0 Z " fill="#000000" transform="translate(1455.78125,2454.03125)"/>
<path d="M0 0 C3.25517811 1.86010177 3.80655041 2.3869507 5.0625 5.75 C5.30859566 8.11627579 5.30859566 8.11627579 5.30300903 10.78668213 C5.30575836 11.80187927 5.30850769 12.81707642 5.31134033 13.86303711 C5.30414978 14.97074463 5.29695923 16.07845215 5.28955078 17.21972656 C5.28984283 18.39073914 5.29013489 19.56175171 5.29043579 20.76824951 C5.28904142 24.64244981 5.27347487 28.51645826 5.2578125 32.390625 C5.25297242 35.07533664 5.25113723 37.76004807 5.24923706 40.44476318 C5.24302266 46.79120442 5.22661239 53.13757669 5.20653808 59.48398757 C5.18417784 66.71005163 5.17318534 73.93611899 5.16314721 81.16220903 C5.14224612 96.02484332 5.10707092 110.8874171 5.0625 125.75 C-1.93480351 127.79138813 -6.70052398 128.65210807 -13.75 126.6875 C-17.64771913 124.31829818 -18.8124868 122.0246245 -19.9375 117.75 C-20.34326273 113.90029552 -20.31710679 110.08300041 -20.27807617 106.21508789 C-20.27851425 105.07289795 -20.27895233 103.93070801 -20.27940369 102.75390625 C-20.27732021 98.99331334 -20.25400912 95.23317091 -20.23046875 91.47265625 C-20.22487125 88.85949446 -20.22060188 86.24632952 -20.21760559 83.63316345 C-20.20830267 77.46739959 -20.18371289 71.30179639 -20.15355712 65.13610309 C-20.11995826 58.11312251 -20.10351336 51.09013403 -20.08847082 44.06709301 C-20.05716159 29.62797935 -20.00443546 15.18899193 -19.9375 0.75 C-13.01499169 -1.27781056 -6.936333 -2.63897908 0 0 Z " fill="#000000" transform="translate(2997.9375,2416.25)"/>
<path d="M0 0 C2.78077048 2.97477773 3.3925859 4.95874237 3.3125 9 C3.30863281 9.845625 3.30476563 10.69125 3.30078125 11.5625 C2.98576274 14.11537729 2.28396996 15.79013935 1 18 C-0.23234375 17.96519531 -1.4646875 17.93039063 -2.734375 17.89453125 C-17.76903135 17.54953316 -17.76903135 17.54953316 -32 22 C-32.33 44.77 -32.66 67.54 -33 91 C-41.69955217 93.17488804 -47.04230865 94.43794325 -55 90 C-58.01716825 86.06805056 -58.37842645 83.08520473 -58.38818359 78.19360352 C-58.39344055 77.52951477 -58.39869751 76.86542603 -58.40411377 76.18121338 C-58.41726345 73.99686816 -58.40859322 71.81325825 -58.3984375 69.62890625 C-58.40045994 68.10342774 -58.40337279 66.57795018 -58.40713501 65.05247498 C-58.41155173 61.85902683 -58.40514943 58.66583088 -58.39111328 55.47241211 C-58.37403607 51.38912872 -58.38385703 47.30643759 -58.40183067 43.223176 C-58.4126987 40.07378216 -58.40920815 36.92452747 -58.4014473 33.77512932 C-58.39945286 32.27010973 -58.40187787 30.7650773 -58.40888596 29.26007271 C-58.41654895 27.15164113 -58.40482956 25.04415278 -58.38818359 22.93579102 C-58.38579681 21.73841812 -58.38341003 20.54104523 -58.38095093 19.30738831 C-57.68280583 13.24614325 -54.90841367 9.17480086 -50.2734375 5.44921875 C-37.30197866 -2.81952907 -14.18095601 -7.78562291 0 0 Z " fill="#000000" transform="translate(1061,2451)"/>
<path d="M0 0 C2.78077048 2.97477773 3.3925859 4.95874237 3.3125 9 C3.30863281 9.845625 3.30476563 10.69125 3.30078125 11.5625 C2.98576274 14.11537729 2.28396996 15.79013935 1 18 C-0.23234375 17.96519531 -1.4646875 17.93039063 -2.734375 17.89453125 C-12.31514302 17.70750908 -20.78714009 18.04146096 -30 21 C-31.32 21.33 -32.64 21.66 -34 22 C-34 44.77 -34 67.54 -34 91 C-41.7773133 93.22208952 -47.4042777 94.06750324 -55 91 C-58.09623403 87.04563643 -58.37863247 83.93670764 -58.38818359 78.99414062 C-58.39344055 78.30893845 -58.39869751 77.62373627 -58.40411377 76.91777039 C-58.41726553 74.66369505 -58.40859339 72.41033192 -58.3984375 70.15625 C-58.40045964 68.58353541 -58.40337224 67.01082174 -58.40713501 65.43811035 C-58.41155181 62.14631194 -58.40514825 58.85475819 -58.39111328 55.56298828 C-58.37402157 51.34957656 -58.38386624 47.13673818 -58.40183067 42.92334747 C-58.41268605 39.67705996 -58.40921417 36.43090774 -58.4014473 33.18461609 C-58.39945013 31.63132153 -58.40188756 30.07801457 -58.40888596 28.5247345 C-58.4165296 26.35144651 -58.40485681 24.17907904 -58.38818359 22.00585938 C-58.38579681 20.77073608 -58.38341003 19.53561279 -58.38095093 18.26306152 C-57.69144706 12.35706847 -54.43418975 9.0082137 -49.9921875 5.4140625 C-37.72856548 -3.2907045 -13.73582453 -7.541237 0 0 Z " fill="#000000" transform="translate(2043,2451)"/>
<path d="M0 0 C2.81096998 2.20319269 3.29156629 3.40320765 4.3125 6.8125 C4.48985049 9.60740731 4.5657129 12.29864325 4.53955078 15.09106445 C4.53984283 15.91109451 4.54013489 16.73112457 4.54043579 17.57600403 C4.53904675 20.27603885 4.52350567 22.97579486 4.5078125 25.67578125 C4.50408085 27.5519343 4.5012346 29.4280893 4.49923706 31.304245 C4.49161254 36.23456228 4.47197417 41.16476114 4.4498291 46.09503174 C4.42934524 51.12909341 4.42022991 56.16317427 4.41015625 61.19726562 C4.38872719 71.06906236 4.35460547 80.94077132 4.3125 90.8125 C-3.82682619 92.92518963 -9.92258795 94.14293172 -17.6875 89.8125 C-21.06748459 85.61196735 -21.09995181 81.61889583 -21.02807617 76.44213867 C-21.02851425 75.61235504 -21.02895233 74.78257141 -21.02940369 73.92764282 C-21.02731982 71.19500905 -21.0040079 68.46299486 -20.98046875 65.73046875 C-20.97487136 63.83189733 -20.97060194 61.93332157 -20.96760559 60.03474426 C-20.95616806 55.04517591 -20.9267102 50.05587081 -20.89349365 45.06640625 C-20.86276928 39.97204143 -20.84909519 34.87763395 -20.83398438 29.78320312 C-20.80183952 19.79285328 -20.75065629 9.80269856 -20.6875 -0.1875 C-13.97458015 -1.9937804 -6.62096803 -2.13217615 0 0 Z " fill="#000000" transform="translate(1358.6875,2451.1875)"/>
<path d="M0 0 C2.5341839 2.45243603 3.04702718 4.47649824 3.9375 7.875 C3.95514497 20.82640584 -2.75432386 36.01784187 -11.0625 45.875 C-14.83152315 49.32993788 -18.68343279 49.37136643 -23.61328125 49.24609375 C-27.29199341 48.68871312 -29.2430861 47.24924328 -32.0625 44.875 C-31.88726807 44.24118408 -31.71203613 43.60736816 -31.53149414 42.9543457 C-29.11214492 34.14987723 -26.8408539 25.30919585 -24.58007812 16.46289062 C-24.28423828 15.31369141 -23.98839844 14.16449219 -23.68359375 12.98046875 C-23.4198999 11.95074951 -23.15620605 10.92103027 -22.88452148 9.86010742 C-22.04380179 6.80709889 -21.21018819 3.82806436 -20.0625 0.875 C-14.34971672 -2.34759569 -6.06659813 -2.22854625 0 0 Z " fill="#000000" transform="translate(1598.0625,2516.125)"/>
<path d="M0 0 C3.29101701 3.58845587 4.19376435 7.0094118 4.27734375 11.7734375 C3.59847251 16.14838548 2.65901228 18.77512743 -0.66015625 21.6484375 C-5.15644843 24.76831371 -8.31570955 25.14001016 -13.72265625 24.7734375 C-18.36852202 23.04262476 -21.20090416 21.06975588 -23.72265625 16.7734375 C-24.92833568 12.30581716 -25.09272584 8.86308684 -23.59765625 4.4609375 C-21.07668169 0.84754063 -18.70524441 -1.68645543 -14.37109375 -2.8671875 C-9.46552777 -3.53283952 -4.11215113 -2.9279262 0 0 Z " fill="#000000" transform="translate(1360.72265625,2413.2265625)"/>
</svg>
